<svg width="379" height="379" viewBox="0 0 379 379" fill="none" xmlns="http://www.w3.org/2000/svg">
<g clip-path="url(#clip0_8046_379)">
<path d="M0 134.756C0 87.5867 0 64.0023 9.17967 45.9861C17.2543 30.1387 30.1387 17.2543 45.9861 9.17967C64.0023 0 87.5867 0 134.756 0H244.244C291.413 0 314.998 0 333.014 9.17967C348.861 17.2543 361.746 30.1387 369.82 45.9861C379 64.0023 379 87.5867 379 134.756V244.244C379 291.413 379 314.998 369.82 333.014C361.746 348.861 348.861 361.746 333.014 369.82C314.998 379 291.413 379 244.244 379H134.756C87.5867 379 64.0023 379 45.9861 369.82C30.1387 361.746 17.2543 348.861 9.17967 333.014C0 314.998 0 291.413 0 244.244V134.756Z" fill="url(#paint0_linear_8046_379)"/>
<g clip-path="url(#clip1_8046_379)">
<path d="M166.465 195.869L178.525 114.171C179.027 110.77 177.598 107.369 174.714 105.497C169.948 102.406 162.361 97.8778 156.145 95.9773C149.531 93.9549 140.144 93.5842 134.056 93.5893C130.364 93.5924 127.152 95.9795 126.176 99.5401C124.294 106.405 121.886 117.98 124.042 126.587C126.406 136.03 127.594 140.233 128.848 149.886C130.195 160.247 124.384 178.598 129.225 189.809C133.118 198.826 151.478 200.595 160.577 200.911C163.552 201.015 166.03 198.814 166.465 195.869Z" fill="#FFBCAD"/>
<path d="M170.185 210.769C173.097 190.887 184.916 109.454 189.113 80.6958C189.575 77.5288 192.561 75.3821 195.728 75.8447L225.547 80.2002C228.713 80.6626 230.952 83.631 230.492 86.7974L222.134 144.367C221.671 147.554 223.951 150.533 227.141 150.969L260.204 155.492C263.377 155.926 265.653 158.888 265.217 162.061L262.42 182.412C261.984 185.583 259.027 187.824 255.856 187.389L223.269 182.927C219.77 182.447 216.184 185.186 215.679 188.681C212.756 208.902 216.247 184.798 212.12 213.067C212.064 213.452 212.041 213.872 212.066 214.26C212.349 218.737 212.91 221.334 214.434 225.57C215.983 230.181 218.579 233.94 219.897 235.916C220.943 237.659 224.976 242.012 227.104 244.091C230.552 247.462 238.147 252.809 245.005 255.638C249.976 257.688 255.03 259.169 260.297 259.68C263.6 260.001 266.393 262.649 266.393 265.968V295.947C266.393 299.114 263.849 301.77 260.685 301.63C257.682 301.497 254.729 301.216 251.592 300.778C246.593 300.081 238.457 297.95 233.419 296.051C228.382 294.152 223.413 291.892 219.626 289.813C212.497 285.899 207.091 282.041 200.833 276.871C197.121 273.804 194.401 270.284 190.837 266.681C186.691 261.993 184.005 258.005 180.569 251.918C177.354 246.224 174.912 240.372 172.781 232.739C171.424 228.283 169.875 218.131 170.185 210.769Z" fill="white"/>
<path d="M129.693 257.847C125.934 258.971 123.067 259.472 119.735 259.669C116.614 259.852 113.807 262.187 113.807 265.313L113.807 279.604C113.807 279.604 113.807 279.604 113.807 294.353C113.807 297.43 116.21 300.065 119.287 300.045C122.187 300.026 125.243 299.815 129.189 299.268C135.117 298.26 140.038 297.292 148.95 293.805C157.579 290.428 162.589 287.295 169.253 282.8C174.045 279.569 177.463 276.827 181.221 273.41C183.511 271.327 183.716 267.741 181.851 265.27C181.678 265.04 181.497 264.802 181.304 264.551C178.32 260.366 176.305 256.801 174.717 253.779C172.741 250.137 169.912 243.046 168.943 239.481C168.244 237.026 167.763 235.157 167.421 233.707C167.066 232.205 165.062 231.764 164.1 232.972L164.1 232.972C162.589 234.87 162.434 235.064 160.574 237.234C157.203 240.876 153.716 244.402 149.376 247.502C146.587 249.788 142.518 252.307 138.488 254.283C136.667 255.329 132.948 256.801 129.693 257.847Z" fill="#FFBCAD" stroke="white" stroke-width="0.00774938" stroke-linecap="round"/>
</g>
</g>
<defs>
<linearGradient id="paint0_linear_8046_379" x1="189.5" y1="0" x2="189.5" y2="379" gradientUnits="userSpaceOnUse">
<stop stop-color="#FF7557"/>
<stop offset="1" stop-color="#F86545"/>
</linearGradient>
<clipPath id="clip0_8046_379">
<rect width="379" height="379" fill="white"/>
</clipPath>
<clipPath id="clip1_8046_379">
<rect width="152.528" height="228.791" fill="white" transform="translate(113.666 75)"/>
</clipPath>
</defs>
</svg>
