<svg width="20" height="20" viewBox="0 0 20 20" fill="none" xmlns="http://www.w3.org/2000/svg">
<path d="M6.19004 13.175L6.32694 13.3765L6.46516 13.1759C7.09012 12.2687 7.80389 11.4089 8.46687 10.6102C8.69067 10.3406 8.90868 10.078 9.11554 9.82289C11.496 6.90138 14.3004 4.12667 17.6359 2.35129C18.4607 1.91465 19.2446 2.31185 19.6178 2.95247C19.804 3.27202 19.8786 3.6401 19.8058 3.97684C19.734 4.30859 19.5157 4.62668 19.0821 4.84971L19.082 4.8497L19.08 4.85076C16.0411 6.46605 13.5292 8.98064 11.3538 11.6182C10.4546 12.681 9.61024 13.825 8.84767 14.9959C8.54789 15.4321 8.27413 15.8699 8.02716 16.336C7.98264 16.4109 7.94614 16.4912 7.91399 16.5619L7.91221 16.5658C7.87754 16.6421 7.84747 16.7078 7.81252 16.766L7.78877 16.8056V16.8518V16.8519V16.8521V16.8523V16.8524V16.8526V16.8527V16.8529V16.853V16.8532V16.8533V16.8535V16.8536V16.8538V16.8539V16.8541V16.8542V16.8544V16.8545V16.8547V16.8548V16.855V16.8551V16.8553V16.8554V16.8556V16.8557V16.8558V16.856V16.8561V16.8563V16.8564V16.8566V16.8567V16.8568V16.857V16.8571V16.8571L7.78713 16.8611C7.77838 16.8829 7.76633 16.9168 7.76271 16.9611C7.64975 17.3664 7.42704 17.6345 7.15966 17.7941C6.88598 17.9575 6.55497 18.0133 6.2269 17.9715C5.56353 17.887 4.96467 17.4162 4.89328 16.7261L4.88719 16.6673L4.85095 16.631C4.85052 16.6302 4.85002 16.6292 4.84945 16.628L4.84844 16.626C4.84282 16.6147 4.83173 16.5924 4.81233 16.5679C3.77138 14.5469 2.34877 12.8257 0.572912 11.405C0.286273 11.1757 0.155014 10.7993 0.167468 10.3977C0.179926 9.99591 0.336181 9.59859 0.585453 9.34856C1.1872 8.77211 2.03895 8.8546 2.67023 9.35956C4.04052 10.4612 5.22275 11.7509 6.19004 13.175Z" fill="#4BB97C" stroke="#46AA73" stroke-width="0.333333"/>
</svg>
