<svg width="1420" height="294" viewBox="0 0 1420 294" fill="none" xmlns="http://www.w3.org/2000/svg">
<mask id="mask0_616_6888" style="mask-type:alpha" maskUnits="userSpaceOnUse" x="0" y="0" width="294" height="294">
<rect y="0.00012207" width="293.336" height="293.336" rx="71.0967" fill="#C4C4C4"/>
</mask>
<g mask="url(#mask0_616_6888)">
<rect width="293.336" height="293.336" transform="translate(0 0.00390625)" fill="#FF7557"/>
<path d="M164.853 73.8572C164.853 82.3895 164.853 98.1855 164.853 110.911C164.853 135.53 163.26 132.665 129.997 132.665C107.766 132.665 121.923 132.665 111.137 132.665C80.9049 132.665 77.5282 152.507 77.528 167.455C77.528 175.33 76.9635 185.234 77.8081 191.153C79.0256 199.686 85.9573 206.644 94.4466 211.875C120.804 228.114 125.311 201.001 139.259 194.351M146.189 194.351C143.499 194.351 141.65 194.351 139.259 194.351M146.189 194.351H139.259M146.189 194.351C148.784 194.351 150.495 194.351 153.244 194.351C167.033 200.898 173.207 227.46 195.738 214.423C202.712 210.388 214.099 206.056 214.099 189.561V165.416" stroke="white" stroke-width="28.6869" stroke-linecap="square"/>
<circle cx="214.011" cy="119.205" r="14.3435" fill="white"/>
</g>
<path opacity="0.9" d="M399.43 211.168H353.578V81.8219H399.809C412.819 81.8219 424.019 84.4114 433.409 89.5903C442.798 94.7271 450.019 102.116 455.072 111.758C460.166 121.4 462.714 132.937 462.714 146.369C462.714 159.842 460.166 171.421 455.072 181.105C450.019 190.789 442.756 198.221 433.282 203.4C423.851 208.579 412.567 211.168 399.43 211.168ZM380.925 187.737H398.293C406.377 187.737 413.177 186.305 418.693 183.442C424.251 180.537 428.419 176.053 431.198 169.989C434.019 163.884 435.43 156.011 435.43 146.369C435.43 136.811 434.019 129 431.198 122.937C428.419 116.874 424.272 112.411 418.756 109.548C413.24 106.685 406.441 105.253 398.356 105.253H380.925V187.737ZM493.137 211.168V114.158H520.042V211.168H493.137ZM506.653 101.653C502.653 101.653 499.221 100.327 496.358 97.6744C493.537 94.9797 492.127 91.7587 492.127 88.0113C492.127 84.3061 493.537 81.1272 496.358 78.4746C499.221 75.7799 502.653 74.4325 506.653 74.4325C510.653 74.4325 514.063 75.7799 516.884 78.4746C519.747 81.1272 521.179 84.3061 521.179 88.0113C521.179 91.7587 519.747 94.9797 516.884 97.6744C514.063 100.327 510.653 101.653 506.653 101.653ZM642.707 114.158L608.791 211.168H578.476L544.56 114.158H572.981L593.128 183.568H594.139L614.223 114.158H642.707ZM708.23 213.063C698.251 213.063 689.662 211.042 682.462 207C675.304 202.915 669.788 197.147 665.914 189.695C662.041 182.2 660.104 173.337 660.104 163.105C660.104 153.126 662.041 144.369 665.914 136.832C669.788 129.295 675.241 123.422 682.272 119.211C689.346 115.001 697.64 112.895 707.156 112.895C713.556 112.895 719.514 113.927 725.03 115.99C730.588 118.011 735.43 121.064 739.556 125.148C743.724 129.232 746.966 134.369 749.282 140.558C751.598 146.705 752.756 153.905 752.756 162.158V169.547H670.841V152.874H727.43C727.43 149 726.588 145.569 724.903 142.579C723.219 139.59 720.882 137.253 717.893 135.569C714.946 133.842 711.514 132.979 707.598 132.979C703.514 132.979 699.893 133.927 696.735 135.821C693.619 137.674 691.177 140.179 689.409 143.337C687.641 146.453 686.735 149.926 686.693 153.758V169.611C686.693 174.41 687.577 178.558 689.346 182.052C691.156 185.547 693.704 188.242 696.988 190.137C700.272 192.031 704.167 192.979 708.672 192.979C711.661 192.979 714.398 192.558 716.882 191.716C719.367 190.873 721.493 189.61 723.261 187.926C725.03 186.242 726.377 184.179 727.303 181.737L752.187 183.379C750.924 189.358 748.335 194.579 744.419 199.042C740.545 203.463 735.535 206.915 729.388 209.4C723.282 211.842 716.23 213.063 708.23 213.063ZM780.984 211.168V114.158H807.068V131.085H808.079C809.847 125.064 812.816 120.516 816.984 117.443C821.152 114.327 825.952 112.769 831.384 112.769C832.731 112.769 834.184 112.853 835.742 113.022C837.3 113.19 838.668 113.422 839.847 113.716V137.59C838.584 137.211 836.837 136.874 834.605 136.579C832.373 136.285 830.331 136.137 828.479 136.137C824.521 136.137 820.984 137 817.868 138.727C814.795 140.411 812.353 142.769 810.542 145.8C808.774 148.832 807.889 152.326 807.889 156.284V211.168H780.984ZM945.143 141.821L920.512 143.337C920.091 141.232 919.186 139.337 917.796 137.653C916.407 135.927 914.575 134.558 912.302 133.548C910.07 132.495 907.396 131.969 904.281 131.969C900.112 131.969 896.597 132.853 893.733 134.621C890.87 136.348 889.439 138.663 889.439 141.569C889.439 143.884 890.365 145.842 892.218 147.442C894.07 149.042 897.249 150.326 901.754 151.295L919.312 154.832C928.744 156.769 935.775 159.884 940.407 164.179C945.038 168.474 947.354 174.116 947.354 181.105C947.354 187.463 945.48 193.042 941.733 197.842C938.028 202.642 932.933 206.389 926.449 209.084C920.007 211.736 912.575 213.063 904.154 213.063C891.312 213.063 881.081 210.389 873.46 205.042C865.881 199.652 861.439 192.326 860.134 183.063L886.597 181.674C887.397 185.589 889.333 188.579 892.407 190.642C895.481 192.663 899.418 193.673 904.218 193.673C908.933 193.673 912.723 192.768 915.586 190.958C918.491 189.105 919.965 186.726 920.007 183.821C919.965 181.379 918.933 179.379 916.912 177.821C914.891 176.221 911.775 175 907.565 174.158L890.765 170.81C881.291 168.916 874.239 165.632 869.607 160.958C865.018 156.284 862.723 150.326 862.723 143.084C862.723 136.853 864.407 131.485 867.776 126.979C871.186 122.474 875.965 119 882.112 116.558C888.302 114.116 895.544 112.895 903.839 112.895C916.091 112.895 925.733 115.485 932.765 120.664C939.838 125.843 943.964 132.895 945.143 141.821ZM1010.71 212.747C1003.35 212.747 996.672 210.852 990.693 207.063C984.756 203.231 980.041 197.61 976.546 190.2C973.093 182.747 971.367 173.61 971.367 162.79C971.367 151.674 973.156 142.432 976.735 135.063C980.314 127.653 985.072 122.116 991.009 118.453C996.988 114.748 1003.54 112.895 1010.65 112.895C1016.08 112.895 1020.61 113.822 1024.23 115.674C1027.89 117.485 1030.84 119.758 1033.07 122.495C1035.35 125.19 1037.07 127.843 1038.25 130.453H1039.07V81.8219H1065.91V211.168H1039.39V195.631H1038.25C1036.99 198.326 1035.2 201 1032.88 203.652C1030.61 206.263 1027.64 208.431 1023.98 210.157C1020.36 211.884 1015.93 212.747 1010.71 212.747ZM1019.24 191.337C1023.58 191.337 1027.24 190.158 1030.23 187.8C1033.26 185.4 1035.58 182.052 1037.18 177.758C1038.82 173.463 1039.64 168.432 1039.64 162.663C1039.64 156.895 1038.84 151.884 1037.24 147.632C1035.64 143.379 1033.32 140.095 1030.29 137.779C1027.26 135.463 1023.58 134.306 1019.24 134.306C1014.82 134.306 1011.09 135.506 1008.06 137.906C1005.03 140.306 1002.74 143.632 1001.18 147.884C999.619 152.137 998.84 157.063 998.84 162.663C998.84 168.305 999.619 173.295 1001.18 177.631C1002.78 181.926 1005.07 185.295 1008.06 187.737C1011.09 190.137 1014.82 191.337 1019.24 191.337ZM1142.92 213.063C1132.94 213.063 1124.35 211.042 1117.15 207C1109.99 202.915 1104.47 197.147 1100.6 189.695C1096.73 182.2 1094.79 173.337 1094.79 163.105C1094.79 153.126 1096.73 144.369 1100.6 136.832C1104.47 129.295 1109.93 123.422 1116.96 119.211C1124.03 115.001 1132.33 112.895 1141.84 112.895C1148.24 112.895 1154.2 113.927 1159.72 115.99C1165.27 118.011 1170.11 121.064 1174.24 125.148C1178.41 129.232 1181.65 134.369 1183.97 140.558C1186.28 146.705 1187.44 153.905 1187.44 162.158V169.547H1105.53V152.874H1162.12C1162.12 149 1161.27 145.569 1159.59 142.579C1157.9 139.59 1155.57 137.253 1152.58 135.569C1149.63 133.842 1146.2 132.979 1142.28 132.979C1138.2 132.979 1134.58 133.927 1131.42 135.821C1128.3 137.674 1125.86 140.179 1124.09 143.337C1122.33 146.453 1121.42 149.926 1121.38 153.758V169.611C1121.38 174.41 1122.26 178.558 1124.03 182.052C1125.84 185.547 1128.39 188.242 1131.67 190.137C1134.96 192.031 1138.85 192.979 1143.36 192.979C1146.35 192.979 1149.08 192.558 1151.57 191.716C1154.05 190.873 1156.18 189.61 1157.95 187.926C1159.72 186.242 1161.06 184.179 1161.99 181.737L1186.87 183.379C1185.61 189.358 1183.02 194.579 1179.1 199.042C1175.23 203.463 1170.22 206.915 1164.07 209.4C1157.97 211.842 1150.92 213.063 1142.92 213.063ZM1296.38 141.821L1271.75 143.337C1271.33 141.232 1270.43 139.337 1269.04 137.653C1267.65 135.927 1265.82 134.558 1263.54 133.548C1261.31 132.495 1258.64 131.969 1255.52 131.969C1251.35 131.969 1247.84 132.853 1244.97 134.621C1242.11 136.348 1240.68 138.663 1240.68 141.569C1240.68 143.884 1241.61 145.842 1243.46 147.442C1245.31 149.042 1248.49 150.326 1253 151.295L1270.55 154.832C1279.99 156.769 1287.02 159.884 1291.65 164.179C1296.28 168.474 1298.6 174.116 1298.6 181.105C1298.6 187.463 1296.72 193.042 1292.97 197.842C1289.27 202.642 1284.17 206.389 1277.69 209.084C1271.25 211.736 1263.82 213.063 1255.4 213.063C1242.55 213.063 1232.32 210.389 1224.7 205.042C1217.12 199.652 1212.68 192.326 1211.38 183.063L1237.84 181.674C1238.64 185.589 1240.57 188.579 1243.65 190.642C1246.72 192.663 1250.66 193.673 1255.46 193.673C1260.17 193.673 1263.96 192.768 1266.83 190.958C1269.73 189.105 1271.21 186.726 1271.25 183.821C1271.21 181.379 1270.17 179.379 1268.15 177.821C1266.13 176.221 1263.02 175 1258.81 174.158L1242.01 170.81C1232.53 168.916 1225.48 165.632 1220.85 160.958C1216.26 156.284 1213.96 150.326 1213.96 143.084C1213.96 136.853 1215.65 131.485 1219.02 126.979C1222.43 122.474 1227.21 119 1233.35 116.558C1239.54 114.116 1246.79 112.895 1255.08 112.895C1267.33 112.895 1276.97 115.485 1284.01 120.664C1291.08 125.843 1295.21 132.895 1296.38 141.821ZM1350.59 183.252L1350.65 150.979H1354.57L1385.64 114.158H1416.52L1374.78 162.916H1368.4L1350.59 183.252ZM1326.21 211.168V81.8219H1353.11V211.168H1326.21ZM1386.84 211.168L1358.29 168.916L1376.23 149.905L1418.35 211.168H1386.84Z" fill="black"/>
</svg>
