<svg width="317" height="317" viewBox="0 0 317 317" fill="none" xmlns="http://www.w3.org/2000/svg">
<g clip-path="url(#clip0_723_507)">
<path d="M0 112.711C0 73.2585 0 53.5322 7.67799 38.4633C14.4317 25.2084 25.2084 14.4317 38.4633 7.67799C53.5322 0 73.2585 0 112.711 0H204.289C243.741 0 263.468 0 278.537 7.67799C291.792 14.4317 302.568 25.2084 309.322 38.4633C317 53.5322 317 73.2585 317 112.711V204.289C317 243.741 317 263.468 309.322 278.537C302.568 291.792 291.792 302.568 278.537 309.322C263.468 317 243.741 317 204.289 317H112.711C73.2585 317 53.5322 317 38.4633 309.322C25.2084 302.568 14.4317 291.792 7.67799 278.537C0 263.468 0 243.741 0 204.289V112.711Z" fill="url(#paint0_linear_723_507)"/>
<path d="M178.898 78.3997C178.898 87.6325 178.898 104.725 178.898 118.496C178.898 145.135 177.174 142.036 141.181 142.036C117.125 142.036 132.443 142.036 120.772 142.036C88.0583 142.036 84.4044 163.506 84.4042 179.682C84.4041 188.203 83.7933 198.92 84.7072 205.325C86.0246 214.558 93.5254 222.088 102.712 227.748C131.233 245.32 136.109 215.981 151.203 208.785M158.702 208.785C155.791 208.785 153.79 208.785 151.203 208.785M158.702 208.785H151.203M158.702 208.785C161.509 208.785 163.361 208.785 166.336 208.785C181.257 215.87 187.938 244.612 212.319 230.505C219.865 226.139 232.186 221.451 232.186 203.602V177.475" stroke="white" stroke-width="31.0419" stroke-linecap="square"/>
<circle cx="232.091" cy="127.47" r="15.521" fill="white"/>
</g>
<defs>
<linearGradient id="paint0_linear_723_507" x1="158.5" y1="0" x2="158.5" y2="317" gradientUnits="userSpaceOnUse">
<stop stop-color="#FF7557"/>
<stop offset="1" stop-color="#F86545"/>
</linearGradient>
<clipPath id="clip0_723_507">
<rect width="317" height="317" fill="white"/>
</clipPath>
</defs>
</svg>
