<svg width="379" height="379" viewBox="0 0 379 379" fill="none" xmlns="http://www.w3.org/2000/svg">
<g clip-path="url(#clip0_723_507)">
<path d="M0 134.756C0 87.5867 0 64.0023 9.17967 45.9861C17.2543 30.1387 30.1387 17.2543 45.9861 9.17967C64.0023 0 87.5867 0 134.756 0H244.244C291.413 0 314.998 0 333.014 9.17967C348.861 17.2543 361.746 30.1387 369.82 45.9861C379 64.0023 379 87.5867 379 134.756V244.244C379 291.413 379 314.998 369.82 333.014C361.746 348.861 348.861 361.746 333.014 369.82C314.998 379 291.413 379 244.244 379H134.756C87.5867 379 64.0023 379 45.9861 369.82C30.1387 361.746 17.2543 348.861 9.17967 333.014C0 314.998 0 291.413 0 244.244V134.756Z" fill="url(#paint0_linear_723_507)"/>
<path d="M213.887 93.7334C213.887 104.772 213.887 125.208 213.887 141.671C213.887 173.522 211.826 169.816 168.793 169.816C140.032 169.816 158.347 169.816 144.393 169.816C105.281 169.816 100.912 195.486 100.912 214.825C100.912 225.012 100.182 237.826 101.275 245.484C102.85 256.522 111.817 265.525 122.8 272.291C156.9 293.301 162.73 258.223 180.776 249.62M189.741 249.62C186.261 249.62 183.869 249.62 180.776 249.62M189.741 249.62H180.776M189.741 249.62C193.098 249.62 195.312 249.62 198.869 249.62C216.707 258.091 224.695 292.454 253.845 275.588C262.867 270.368 277.598 264.764 277.598 243.423V212.187" stroke="white" stroke-width="37.1132" stroke-linecap="square"/>
<circle cx="277.485" cy="152.401" r="18.5566" fill="white"/>
</g>
<defs>
<linearGradient id="paint0_linear_723_507" x1="189.5" y1="0" x2="189.5" y2="379" gradientUnits="userSpaceOnUse">
<stop stop-color="#FF7557"/>
<stop offset="1" stop-color="#F86545"/>
</linearGradient>
<clipPath id="clip0_723_507">
<rect width="379" height="379" fill="white"/>
</clipPath>
</defs>
</svg>
