<svg width="241" height="54" viewBox="0 0 241 54" fill="none" xmlns="http://www.w3.org/2000/svg">
<rect width="241" height="54" rx="5" fill="#FF7558"/>
<path d="M66.7195 33.5V21.1364H71.3558C72.3056 21.1364 73.1025 21.3014 73.7464 21.6314C74.3944 21.9614 74.8834 22.4242 75.2134 23.0199C75.5475 23.6115 75.7145 24.3017 75.7145 25.0906C75.7145 25.8834 75.5455 26.5716 75.2074 27.1552C74.8733 27.7347 74.3803 28.1835 73.7283 28.5014C73.0763 28.8153 72.2755 28.9723 71.3256 28.9723H68.0234V27.1129H71.0238C71.5792 27.1129 72.034 27.0365 72.3881 26.8835C72.7423 26.7266 73.0039 26.4992 73.1729 26.2013C73.346 25.8995 73.4325 25.5292 73.4325 25.0906C73.4325 24.6519 73.346 24.2776 73.1729 23.9677C72.9999 23.6538 72.7363 23.4163 72.3821 23.2553C72.0279 23.0903 71.5711 23.0078 71.0117 23.0078H68.9592V33.5H66.7195ZM73.1065 27.8977L76.1673 33.5H73.668L70.6616 27.8977H73.1065ZM81.6518 33.6811C80.7221 33.6811 79.9192 33.4879 79.2431 33.1016C78.571 32.7112 78.0538 32.1598 77.6916 31.4474C77.3294 30.7311 77.1483 29.8879 77.1483 28.918C77.1483 27.9641 77.3294 27.127 77.6916 26.4066C78.0578 25.6822 78.569 25.1187 79.225 24.7163C79.881 24.3098 80.6517 24.1065 81.5371 24.1065C82.1086 24.1065 82.6479 24.1991 83.155 24.3842C83.6661 24.5653 84.1169 24.8471 84.5073 25.2294C84.9017 25.6117 85.2116 26.0987 85.437 26.6903C85.6623 27.2779 85.775 27.9782 85.775 28.7912V29.4613H78.1745V27.9883H83.6802C83.6762 27.5697 83.5856 27.1974 83.4086 26.8714C83.2315 26.5414 82.984 26.2818 82.666 26.0927C82.3521 25.9035 81.9859 25.8089 81.5673 25.8089C81.1206 25.8089 80.7282 25.9176 80.3901 26.1349C80.052 26.3482 79.7884 26.63 79.5993 26.9801C79.4141 27.3262 79.3195 27.7066 79.3155 28.1211V29.407C79.3155 29.9463 79.4141 30.4091 79.6113 30.7955C79.8085 31.1778 80.0842 31.4716 80.4384 31.6768C80.7926 31.8781 81.2071 31.9787 81.682 31.9787C81.9999 31.9787 82.2877 31.9344 82.5453 31.8459C82.8029 31.7533 83.0262 31.6185 83.2154 31.4414C83.4045 31.2643 83.5474 31.045 83.644 30.7834L85.6845 31.0128C85.5557 31.5521 85.3102 32.023 84.948 32.4254C84.5898 32.8239 84.131 33.1338 83.5716 33.3551C83.0121 33.5724 82.3722 33.6811 81.6518 33.6811ZM91.6565 37.1705C90.8717 37.1705 90.1976 37.0638 89.6341 36.8505C89.0707 36.6412 88.6179 36.3595 88.2758 36.0053C87.9337 35.6512 87.6963 35.2588 87.5635 34.8281L89.5315 34.3512C89.6201 34.5323 89.7488 34.7114 89.9179 34.8885C90.0869 35.0696 90.3143 35.2185 90.6001 35.3352C90.8898 35.456 91.2541 35.5163 91.6927 35.5163C92.3125 35.5163 92.8257 35.3654 93.2322 35.0636C93.6386 34.7657 93.8419 34.2747 93.8419 33.5906V31.8338H93.7332C93.6205 32.0592 93.4555 32.2906 93.2382 32.5281C93.0249 32.7655 92.7412 32.9647 92.387 33.1257C92.0368 33.2867 91.5961 33.3672 91.0649 33.3672C90.3525 33.3672 89.7066 33.2002 89.127 32.8661C88.5515 32.5281 88.0927 32.025 87.7506 31.3569C87.4126 30.6848 87.2435 29.8436 87.2435 28.8335C87.2435 27.8152 87.4126 26.956 87.7506 26.2557C88.0927 25.5514 88.5535 25.0181 89.1331 24.6559C89.7126 24.2897 90.3586 24.1065 91.0709 24.1065C91.6143 24.1065 92.061 24.1991 92.4111 24.3842C92.7653 24.5653 93.047 24.7847 93.2563 25.0423C93.4656 25.2958 93.6246 25.5353 93.7332 25.7607H93.854V24.2273H96.0091V33.6509C96.0091 34.4438 95.82 35.0998 95.4417 35.619C95.0634 36.1381 94.5462 36.5265 93.8902 36.7841C93.2342 37.0417 92.4896 37.1705 91.6565 37.1705ZM91.6746 31.6527C92.1375 31.6527 92.5319 31.54 92.8579 31.3146C93.1839 31.0893 93.4314 30.7653 93.6004 30.3427C93.7694 29.9201 93.854 29.413 93.854 28.8214C93.854 28.2378 93.7694 27.7267 93.6004 27.288C93.4354 26.8493 93.1899 26.5092 92.8639 26.2678C92.5419 26.0223 92.1455 25.8995 91.6746 25.8995C91.1876 25.8995 90.7812 26.0263 90.4552 26.2798C90.1292 26.5334 89.8837 26.8815 89.7187 27.3242C89.5537 27.7629 89.4711 28.262 89.4711 28.8214C89.4711 29.3888 89.5537 29.8859 89.7187 30.3125C89.8877 30.7351 90.1352 31.0651 90.4612 31.3026C90.7912 31.536 91.1957 31.6527 91.6746 31.6527ZM98.2488 33.5V24.2273H100.434V33.5H98.2488ZM99.3476 22.9112C99.0015 22.9112 98.7036 22.7965 98.4541 22.5671C98.2046 22.3337 98.0798 22.054 98.0798 21.728C98.0798 21.398 98.2046 21.1183 98.4541 20.8888C98.7036 20.6554 99.0015 20.5387 99.3476 20.5387C99.6977 20.5387 99.9955 20.6554 100.241 20.8888C100.491 21.1183 100.615 21.398 100.615 21.728C100.615 22.054 100.491 22.3337 100.241 22.5671C99.9955 22.7965 99.6977 22.9112 99.3476 22.9112ZM110.01 26.6783L108.018 26.8956C107.962 26.6944 107.863 26.5052 107.722 26.3281C107.585 26.151 107.4 26.0082 107.167 25.8995C106.933 25.7908 106.648 25.7365 106.31 25.7365C105.855 25.7365 105.473 25.8351 105.163 26.0323C104.857 26.2295 104.706 26.4851 104.71 26.799C104.706 27.0687 104.804 27.288 105.006 27.457C105.211 27.6261 105.549 27.7649 106.02 27.8736L107.602 28.2116C108.479 28.4008 109.131 28.7006 109.558 29.1112C109.988 29.5217 110.205 30.0589 110.21 30.723C110.205 31.3066 110.034 31.8217 109.696 32.2685C109.362 32.7112 108.897 33.0573 108.302 33.3068C107.706 33.5563 107.022 33.6811 106.249 33.6811C105.114 33.6811 104.201 33.4437 103.509 32.9688C102.816 32.4898 102.404 31.8237 102.271 30.9705L104.402 30.7653C104.499 31.1838 104.704 31.4998 105.018 31.7131C105.332 31.9264 105.74 32.033 106.243 32.033C106.762 32.033 107.179 31.9264 107.493 31.7131C107.811 31.4998 107.97 31.2362 107.97 30.9222C107.97 30.6566 107.867 30.4373 107.662 30.2642C107.461 30.0911 107.147 29.9583 106.72 29.8658L105.138 29.5337C104.249 29.3486 103.591 29.0367 103.164 28.598C102.738 28.1553 102.527 27.5959 102.531 26.9197C102.527 26.3482 102.681 25.8532 102.995 25.4347C103.313 25.0121 103.754 24.6861 104.317 24.4567C104.885 24.2232 105.539 24.1065 106.279 24.1065C107.366 24.1065 108.221 24.3379 108.845 24.8008C109.473 25.2636 109.861 25.8894 110.01 26.6783ZM116.642 24.2273V25.9176H111.311V24.2273H116.642ZM112.627 22.0057H114.813V30.7109C114.813 31.0047 114.857 31.2301 114.945 31.3871C115.038 31.54 115.159 31.6446 115.308 31.701C115.457 31.7573 115.622 31.7855 115.803 31.7855C115.94 31.7855 116.064 31.7754 116.177 31.7553C116.294 31.7352 116.382 31.7171 116.443 31.701L116.811 33.4094C116.694 33.4497 116.527 33.494 116.31 33.5423C116.097 33.5906 115.835 33.6187 115.525 33.6268C114.978 33.6429 114.485 33.5604 114.046 33.3793C113.607 33.1941 113.259 32.9084 113.002 32.522C112.748 32.1357 112.623 31.6527 112.627 31.0732V22.0057ZM122.475 33.6811C121.545 33.6811 120.742 33.4879 120.066 33.1016C119.394 32.7112 118.877 32.1598 118.515 31.4474C118.153 30.7311 117.972 29.8879 117.972 28.918C117.972 27.9641 118.153 27.127 118.515 26.4066C118.881 25.6822 119.392 25.1187 120.048 24.7163C120.704 24.3098 121.475 24.1065 122.36 24.1065C122.932 24.1065 123.471 24.1991 123.978 24.3842C124.489 24.5653 124.94 24.8471 125.331 25.2294C125.725 25.6117 126.035 26.0987 126.26 26.6903C126.486 27.2779 126.598 27.9782 126.598 28.7912V29.4613H118.998V27.9883H124.503C124.499 27.5697 124.409 27.1974 124.232 26.8714C124.055 26.5414 123.807 26.2818 123.489 26.0927C123.175 25.9035 122.809 25.8089 122.391 25.8089C121.944 25.8089 121.551 25.9176 121.213 26.1349C120.875 26.3482 120.612 26.63 120.422 26.9801C120.237 27.3262 120.143 27.7066 120.139 28.1211V29.407C120.139 29.9463 120.237 30.4091 120.435 30.7955C120.632 31.1778 120.907 31.4716 121.262 31.6768C121.616 31.8781 122.03 31.9787 122.505 31.9787C122.823 31.9787 123.111 31.9344 123.369 31.8459C123.626 31.7533 123.849 31.6185 124.039 31.4414C124.228 31.2643 124.371 31.045 124.467 30.7834L126.508 31.0128C126.379 31.5521 126.133 32.023 125.771 32.4254C125.413 32.8239 124.954 33.1338 124.395 33.3551C123.835 33.5724 123.195 33.6811 122.475 33.6811ZM128.447 33.5V24.2273H130.566V25.7727H130.663C130.832 25.2375 131.121 24.8249 131.532 24.5352C131.946 24.2414 132.419 24.0945 132.951 24.0945C133.071 24.0945 133.206 24.1005 133.355 24.1126C133.508 24.1206 133.635 24.1347 133.735 24.1548V26.1651C133.643 26.1329 133.496 26.1048 133.295 26.0806C133.098 26.0524 132.906 26.0384 132.721 26.0384C132.323 26.0384 131.965 26.1249 131.647 26.2979C131.333 26.467 131.085 26.7024 130.904 27.0043C130.723 27.3061 130.632 27.6542 130.632 28.0487V33.5H128.447ZM141.589 28.0668V33.5H139.404V21.1364H141.541V25.8029H141.65C141.867 25.2797 142.203 24.8672 142.658 24.5653C143.117 24.2595 143.7 24.1065 144.409 24.1065C145.053 24.1065 145.614 24.2414 146.093 24.511C146.572 24.7807 146.942 25.1751 147.204 25.6942C147.469 26.2134 147.602 26.8473 147.602 27.5959V33.5H145.417V27.9339C145.417 27.3101 145.256 26.8252 144.934 26.479C144.616 26.1289 144.169 25.9538 143.594 25.9538C143.207 25.9538 142.861 26.0384 142.555 26.2074C142.254 26.3724 142.016 26.6119 141.843 26.9258C141.674 27.2397 141.589 27.62 141.589 28.0668ZM153.935 33.6811C153.005 33.6811 152.202 33.4879 151.526 33.1016C150.854 32.7112 150.337 32.1598 149.975 31.4474C149.613 30.7311 149.431 29.8879 149.431 28.918C149.431 27.9641 149.613 27.127 149.975 26.4066C150.341 25.6822 150.852 25.1187 151.508 24.7163C152.164 24.3098 152.935 24.1065 153.82 24.1065C154.392 24.1065 154.931 24.1991 155.438 24.3842C155.949 24.5653 156.4 24.8471 156.79 25.2294C157.185 25.6117 157.495 26.0987 157.72 26.6903C157.946 27.2779 158.058 27.9782 158.058 28.7912V29.4613H150.458V27.9883H155.963C155.959 27.5697 155.869 27.1974 155.692 26.8714C155.515 26.5414 155.267 26.2818 154.949 26.0927C154.635 25.9035 154.269 25.8089 153.85 25.8089C153.404 25.8089 153.011 25.9176 152.673 26.1349C152.335 26.3482 152.072 26.63 151.882 26.9801C151.697 27.3262 151.603 27.7066 151.599 28.1211V29.407C151.599 29.9463 151.697 30.4091 151.895 30.7955C152.092 31.1778 152.367 31.4716 152.722 31.6768C153.076 31.8781 153.49 31.9787 153.965 31.9787C154.283 31.9787 154.571 31.9344 154.828 31.8459C155.086 31.7533 155.309 31.6185 155.499 31.4414C155.688 31.2643 155.831 31.045 155.927 30.7834L157.968 31.0128C157.839 31.5521 157.593 32.023 157.231 32.4254C156.873 32.8239 156.414 33.1338 155.855 33.3551C155.295 33.5724 154.655 33.6811 153.935 33.6811ZM159.907 33.5V24.2273H162.026V25.7727H162.123C162.292 25.2375 162.581 24.8249 162.992 24.5352C163.406 24.2414 163.879 24.0945 164.411 24.0945C164.531 24.0945 164.666 24.1005 164.815 24.1126C164.968 24.1206 165.095 24.1347 165.195 24.1548V26.1651C165.103 26.1329 164.956 26.1048 164.755 26.0806C164.557 26.0524 164.366 26.0384 164.181 26.0384C163.783 26.0384 163.425 26.1249 163.107 26.2979C162.793 26.467 162.545 26.7024 162.364 27.0043C162.183 27.3061 162.092 27.6542 162.092 28.0487V33.5H159.907ZM170.371 33.6811C169.441 33.6811 168.638 33.4879 167.962 33.1016C167.29 32.7112 166.773 32.1598 166.41 31.4474C166.048 30.7311 165.867 29.8879 165.867 28.918C165.867 27.9641 166.048 27.127 166.41 26.4066C166.777 25.6822 167.288 25.1187 167.944 24.7163C168.6 24.3098 169.37 24.1065 170.256 24.1065C170.827 24.1065 171.367 24.1991 171.874 24.3842C172.385 24.5653 172.836 24.8471 173.226 25.2294C173.62 25.6117 173.93 26.0987 174.156 26.6903C174.381 27.2779 174.494 27.9782 174.494 28.7912V29.4613H166.893V27.9883H172.399C172.395 27.5697 172.304 27.1974 172.127 26.8714C171.95 26.5414 171.703 26.2818 171.385 26.0927C171.071 25.9035 170.705 25.8089 170.286 25.8089C169.839 25.8089 169.447 25.9176 169.109 26.1349C168.771 26.3482 168.507 26.63 168.318 26.9801C168.133 27.3262 168.038 27.7066 168.034 28.1211V29.407C168.034 29.9463 168.133 30.4091 168.33 30.7955C168.527 31.1778 168.803 31.4716 169.157 31.6768C169.511 31.8781 169.926 31.9787 170.401 31.9787C170.719 31.9787 171.006 31.9344 171.264 31.8459C171.522 31.7533 171.745 31.6185 171.934 31.4414C172.123 31.2643 172.266 31.045 172.363 30.7834L174.403 31.0128C174.274 31.5521 174.029 32.023 173.667 32.4254C173.309 32.8239 172.85 33.1338 172.29 33.3551C171.731 33.5724 171.091 33.6811 170.371 33.6811Z" fill="white"/>
</svg>
