<svg width="194" height="44" viewBox="0 0 194 44" fill="none" xmlns="http://www.w3.org/2000/svg">
<rect y="0.26556" width="194" height="43.4689" rx="4.0249" fill="#FF7558"/>
<path d="M53.4816 26.5V16.5475H57.2138C57.9784 16.5475 58.6199 16.6804 59.1382 16.946C59.6598 17.2117 60.0534 17.5842 60.3191 18.0637C60.588 18.54 60.7225 19.0956 60.7225 19.7306C60.7225 20.3688 60.5864 20.9228 60.3142 21.3926C60.0453 21.8591 59.6485 22.2203 59.1236 22.4762C58.5988 22.7289 57.9541 22.8553 57.1895 22.8553H54.5313V21.3585H56.9465C57.3936 21.3585 57.7597 21.297 58.0448 21.1739C58.3299 21.0475 58.5405 20.8645 58.6766 20.6247C58.8159 20.3818 58.8855 20.0837 58.8855 19.7306C58.8855 19.3774 58.8159 19.0761 58.6766 18.8267C58.5372 18.574 58.325 18.3828 58.0399 18.2532C57.7549 18.1204 57.3871 18.054 56.9368 18.054H55.2846V26.5H53.4816ZM58.6231 21.9903L61.0869 26.5H59.075L56.655 21.9903H58.6231ZM65.5019 26.6458C64.7535 26.6458 64.1072 26.4903 63.5629 26.1793C63.0219 25.865 62.6055 25.4212 62.314 24.8477C62.0224 24.2711 61.8766 23.5923 61.8766 22.8116C61.8766 22.0437 62.0224 21.3699 62.314 20.79C62.6088 20.2068 63.0202 19.7532 63.5483 19.4293C64.0764 19.1021 64.6968 18.9385 65.4095 18.9385C65.8696 18.9385 66.3037 19.013 66.7119 19.162C67.1234 19.3078 67.4862 19.5346 67.8005 19.8423C68.118 20.1501 68.3674 20.5421 68.5488 21.0184C68.7303 21.4914 68.821 22.0551 68.821 22.7095V23.2489H62.7027V22.0632H67.1347C67.1315 21.7262 67.0586 21.4266 66.916 21.1642C66.7735 20.8985 66.5742 20.6895 66.3183 20.5373C66.0656 20.385 65.7708 20.3089 65.4338 20.3089C65.0742 20.3089 64.7584 20.3963 64.4862 20.5713C64.2141 20.743 64.0019 20.9698 63.8496 21.2516C63.7006 21.5302 63.6244 21.8364 63.6212 22.1701V23.2052C63.6212 23.6393 63.7006 24.0119 63.8593 24.3229C64.0181 24.6307 64.24 24.8672 64.5251 25.0324C64.8102 25.1944 65.1439 25.2754 65.5262 25.2754C65.7821 25.2754 66.0138 25.2397 66.2211 25.1685C66.4284 25.094 66.6082 24.9854 66.7605 24.8429C66.9128 24.7003 67.0278 24.5238 67.1055 24.3132L68.7481 24.4978C68.6444 24.932 68.4468 25.311 68.1552 25.635C67.8669 25.9557 67.4976 26.2052 67.0472 26.3834C66.5969 26.5583 66.0818 26.6458 65.5019 26.6458ZM73.5555 29.4546C72.9237 29.4546 72.381 29.3688 71.9275 29.1971C71.4739 29.0286 71.1095 28.8018 70.8341 28.5167C70.5587 28.2316 70.3676 27.9158 70.2606 27.5691L71.8449 27.1852C71.9161 27.331 72.0198 27.4752 72.1559 27.6177C72.292 27.7635 72.475 27.8834 72.705 27.9773C72.9383 28.0745 73.2315 28.1231 73.5846 28.1231C74.0835 28.1231 74.4966 28.0016 74.8238 27.7586C75.151 27.5189 75.3146 27.1236 75.3146 26.5729V25.1587H75.2272C75.1364 25.3402 75.0036 25.5265 74.8287 25.7176C74.657 25.9087 74.4286 26.0691 74.1435 26.1987C73.8616 26.3283 73.5069 26.3931 73.0792 26.3931C72.5058 26.3931 71.9858 26.2586 71.5193 25.9897C71.056 25.7176 70.6867 25.3126 70.4113 24.7748C70.1392 24.2338 70.0031 23.5567 70.0031 22.7435C70.0031 21.9239 70.1392 21.2322 70.4113 20.6685C70.6867 20.1015 71.0576 19.6723 71.5241 19.3807C71.9907 19.0859 72.5106 18.9385 73.0841 18.9385C73.5214 18.9385 73.881 19.013 74.1629 19.162C74.448 19.3078 74.6748 19.4844 74.8432 19.6917C75.0117 19.8958 75.1397 20.0886 75.2272 20.27H75.3243V19.0356H77.0592V26.6215C77.0592 27.2597 76.907 27.7878 76.6024 28.2057C76.2979 28.6236 75.8816 28.9363 75.3535 29.1436C74.8254 29.351 74.2261 29.4546 73.5555 29.4546ZM73.57 25.013C73.9426 25.013 74.2601 24.9222 74.5225 24.7408C74.7849 24.5594 74.9842 24.2986 75.1202 23.9584C75.2563 23.6183 75.3243 23.21 75.3243 22.7338C75.3243 22.264 75.2563 21.8526 75.1202 21.4995C74.9874 21.1463 74.7898 20.8726 74.5274 20.6782C74.2682 20.4806 73.9491 20.3818 73.57 20.3818C73.178 20.3818 72.8508 20.4838 72.5884 20.6879C72.326 20.892 72.1283 21.1723 71.9955 21.5286C71.8627 21.8818 71.7963 22.2835 71.7963 22.7338C71.7963 23.1906 71.8627 23.5907 71.9955 23.9341C72.1316 24.2743 72.3308 24.54 72.5933 24.7311C72.8589 24.919 73.1845 25.013 73.57 25.013ZM78.8621 26.5V19.0356H80.6213V26.5H78.8621ZM79.7466 17.9763C79.468 17.9763 79.2282 17.8839 79.0274 17.6993C78.8265 17.5114 78.7261 17.2862 78.7261 17.0238C78.7261 16.7581 78.8265 16.5329 79.0274 16.3483C79.2282 16.1604 79.468 16.0664 79.7466 16.0664C80.0284 16.0664 80.2682 16.1604 80.4658 16.3483C80.6667 16.5329 80.7671 16.7581 80.7671 17.0238C80.7671 17.2862 80.6667 17.5114 80.4658 17.6993C80.2682 17.8839 80.0284 17.9763 79.7466 17.9763ZM88.3299 21.0086L86.7262 21.1836C86.6808 21.0216 86.6015 20.8693 86.4881 20.7268C86.3779 20.5842 86.2289 20.4692 86.041 20.3818C85.8531 20.2943 85.6231 20.2505 85.3509 20.2505C84.9848 20.2505 84.6771 20.3299 84.4276 20.4887C84.1814 20.6474 84.0599 20.8531 84.0631 21.1058C84.0599 21.3229 84.1393 21.4995 84.3013 21.6355C84.4665 21.7716 84.7386 21.8834 85.1177 21.9708L86.3909 22.243C87.0971 22.3953 87.622 22.6366 87.9654 22.9671C88.312 23.2975 88.487 23.73 88.4902 24.2646C88.487 24.7343 88.3493 25.149 88.0772 25.5086C87.8083 25.865 87.4341 26.1436 86.9546 26.3445C86.4751 26.5454 85.9244 26.6458 85.3023 26.6458C84.3887 26.6458 83.6533 26.4546 83.0961 26.0724C82.5388 25.6868 82.2068 25.1506 82.0999 24.4638L83.8153 24.2986C83.893 24.6355 84.0583 24.8899 84.311 25.0616C84.5637 25.2333 84.8925 25.3191 85.2975 25.3191C85.7154 25.3191 86.0507 25.2333 86.3034 25.0616C86.5594 24.8899 86.6873 24.6776 86.6873 24.4249C86.6873 24.2111 86.6047 24.0346 86.4395 23.8953C86.2775 23.7559 86.0248 23.649 85.6814 23.5745L84.4082 23.3072C83.6922 23.1582 83.1625 22.9071 82.8191 22.554C82.4757 22.1976 82.3056 21.7473 82.3088 21.203C82.3056 20.743 82.4303 20.3445 82.683 20.0076C82.9389 19.6674 83.2937 19.405 83.7473 19.2203C84.2041 19.0324 84.7305 18.9385 85.3266 18.9385C86.2014 18.9385 86.8898 19.1247 87.392 19.4973C87.8974 19.8699 88.21 20.3737 88.3299 21.0086ZM93.6681 19.0356V20.3963H89.3771V19.0356H93.6681ZM90.4365 17.2473H92.1957V24.2549C92.1957 24.4914 92.2313 24.6728 92.3026 24.7991C92.3771 24.9222 92.4743 25.0065 92.5942 25.0518C92.714 25.0972 92.8469 25.1199 92.9927 25.1199C93.1028 25.1199 93.2032 25.1118 93.294 25.0956C93.3879 25.0794 93.4592 25.0648 93.5078 25.0518L93.8042 26.4271C93.7103 26.4595 93.5758 26.4951 93.4009 26.534C93.2292 26.5729 93.0186 26.5956 92.7691 26.6021C92.3285 26.615 91.9316 26.5486 91.5785 26.4028C91.2254 26.2538 90.9451 26.0238 90.7378 25.7127C90.5337 25.4017 90.4333 25.013 90.4365 24.5464V17.2473ZM98.3637 26.6458C97.6154 26.6458 96.969 26.4903 96.4248 26.1793C95.8837 25.865 95.4674 25.4212 95.1758 24.8477C94.8843 24.2711 94.7385 23.5923 94.7385 22.8116C94.7385 22.0437 94.8843 21.3699 95.1758 20.79C95.4707 20.2068 95.8821 19.7532 96.4102 19.4293C96.9383 19.1021 97.5587 18.9385 98.2714 18.9385C98.7314 18.9385 99.1656 19.013 99.5738 19.162C99.9852 19.3078 100.348 19.5346 100.662 19.8423C100.98 20.1501 101.229 20.5421 101.411 21.0184C101.592 21.4914 101.683 22.0551 101.683 22.7095V23.2489H95.5646V22.0632H99.9966C99.9933 21.7262 99.9204 21.4266 99.7779 21.1642C99.6353 20.8985 99.4361 20.6895 99.1802 20.5373C98.9275 20.385 98.6326 20.3089 98.2957 20.3089C97.9361 20.3089 97.6202 20.3963 97.3481 20.5713C97.0759 20.743 96.8637 20.9698 96.7115 21.2516C96.5624 21.5302 96.4863 21.8364 96.4831 22.1701V23.2052C96.4831 23.6393 96.5624 24.0119 96.7212 24.3229C96.8799 24.6307 97.1019 24.8672 97.387 25.0324C97.6721 25.1944 98.0057 25.2754 98.388 25.2754C98.644 25.2754 98.8756 25.2397 99.083 25.1685C99.2903 25.094 99.4701 24.9854 99.6224 24.8429C99.7746 24.7003 99.8897 24.5238 99.9674 24.3132L101.61 24.4978C101.506 24.932 101.309 25.311 101.017 25.635C100.729 25.9557 100.359 26.2052 99.9091 26.3834C99.4588 26.5583 98.9436 26.6458 98.3637 26.6458ZM103.171 26.5V19.0356H104.877V20.2797H104.955C105.091 19.8488 105.324 19.5167 105.654 19.2835C105.988 19.047 106.369 18.9287 106.796 18.9287C106.894 18.9287 107.002 18.9336 107.122 18.9433C107.245 18.9498 107.347 18.9611 107.428 18.9773V20.5956C107.354 20.5697 107.235 20.547 107.073 20.5275C106.915 20.5049 106.761 20.4935 106.612 20.4935C106.291 20.4935 106.003 20.5632 105.747 20.7025C105.494 20.8386 105.295 21.0281 105.149 21.2711C105.003 21.514 104.93 21.7943 104.93 22.1118V26.5H103.171ZM113.75 22.1264V26.5H111.991V16.5475H113.712V20.304H113.799C113.974 19.8828 114.245 19.5508 114.611 19.3078C114.98 19.0616 115.45 18.9385 116.02 18.9385C116.538 18.9385 116.99 19.047 117.376 19.264C117.761 19.4811 118.059 19.7986 118.27 20.2165C118.484 20.6345 118.591 21.1447 118.591 21.7473V26.5H116.831V22.0194C116.831 21.5173 116.702 21.1269 116.443 20.8483C116.187 20.5664 115.827 20.4255 115.364 20.4255C115.053 20.4255 114.774 20.4935 114.528 20.6296C114.285 20.7624 114.094 20.9552 113.955 21.2079C113.818 21.4606 113.75 21.7667 113.75 22.1264ZM123.688 26.6458C122.94 26.6458 122.294 26.4903 121.749 26.1793C121.208 25.865 120.792 25.4212 120.5 24.8477C120.209 24.2711 120.063 23.5923 120.063 22.8116C120.063 22.0437 120.209 21.3699 120.5 20.79C120.795 20.2068 121.207 19.7532 121.735 19.4293C122.263 19.1021 122.883 18.9385 123.596 18.9385C124.056 18.9385 124.49 19.013 124.898 19.162C125.31 19.3078 125.673 19.5346 125.987 19.8423C126.304 20.1501 126.554 20.5421 126.735 21.0184C126.917 21.4914 127.007 22.0551 127.007 22.7095V23.2489H120.889V22.0632H125.321C125.318 21.7262 125.245 21.4266 125.102 21.1642C124.96 20.8985 124.761 20.6895 124.505 20.5373C124.252 20.385 123.957 20.3089 123.62 20.3089C123.261 20.3089 122.945 20.3963 122.673 20.5713C122.401 20.743 122.188 20.9698 122.036 21.2516C121.887 21.5302 121.811 21.8364 121.808 22.1701V23.2052C121.808 23.6393 121.887 24.0119 122.046 24.3229C122.205 24.6307 122.426 24.8672 122.712 25.0324C122.997 25.1944 123.33 25.2754 123.713 25.2754C123.969 25.2754 124.2 25.2397 124.408 25.1685C124.615 25.094 124.795 24.9854 124.947 24.8429C125.099 24.7003 125.214 24.5238 125.292 24.3132L126.935 24.4978C126.831 24.932 126.633 25.311 126.342 25.635C126.053 25.9557 125.684 26.2052 125.234 26.3834C124.783 26.5583 124.268 26.6458 123.688 26.6458ZM128.496 26.5V19.0356H130.201V20.2797H130.279C130.415 19.8488 130.649 19.5167 130.979 19.2835C131.313 19.047 131.693 18.9287 132.121 18.9287C132.218 18.9287 132.327 18.9336 132.447 18.9433C132.57 18.9498 132.672 18.9611 132.753 18.9773V20.5956C132.678 20.5697 132.56 20.547 132.398 20.5275C132.239 20.5049 132.085 20.4935 131.936 20.4935C131.616 20.4935 131.327 20.5632 131.071 20.7025C130.819 20.8386 130.619 21.0281 130.474 21.2711C130.328 21.514 130.255 21.7943 130.255 22.1118V26.5H128.496ZM136.919 26.6458C136.17 26.6458 135.524 26.4903 134.98 26.1793C134.439 25.865 134.022 25.4212 133.731 24.8477C133.439 24.2711 133.293 23.5923 133.293 22.8116C133.293 22.0437 133.439 21.3699 133.731 20.79C134.026 20.2068 134.437 19.7532 134.965 19.4293C135.493 19.1021 136.114 18.9385 136.826 18.9385C137.286 18.9385 137.72 19.013 138.129 19.162C138.54 19.3078 138.903 19.5346 139.217 19.8423C139.535 20.1501 139.784 20.5421 139.966 21.0184C140.147 21.4914 140.238 22.0551 140.238 22.7095V23.2489H134.119V22.0632H138.551C138.548 21.7262 138.475 21.4266 138.333 21.1642C138.19 20.8985 137.991 20.6895 137.735 20.5373C137.482 20.385 137.188 20.3089 136.851 20.3089C136.491 20.3089 136.175 20.3963 135.903 20.5713C135.631 20.743 135.419 20.9698 135.266 21.2516C135.117 21.5302 135.041 21.8364 135.038 22.1701V23.2052C135.038 23.6393 135.117 24.0119 135.276 24.3229C135.435 24.6307 135.657 24.8672 135.942 25.0324C136.227 25.1944 136.561 25.2754 136.943 25.2754C137.199 25.2754 137.431 25.2397 137.638 25.1685C137.845 25.094 138.025 24.9854 138.177 24.8429C138.33 24.7003 138.445 24.5238 138.522 24.3132L140.165 24.4978C140.061 24.932 139.864 25.311 139.572 25.635C139.284 25.9557 138.914 26.2052 138.464 26.3834C138.014 26.5583 137.499 26.6458 136.919 26.6458Z" fill="white"/>
</svg>
