<svg width="7262" height="1391" viewBox="0 0 7262 1391" fill="none" xmlns="http://www.w3.org/2000/svg">
<path d="M1953.93 526.081V633.604H1643.12V526.081H1953.93ZM1713.68 402.429H1856.82V883.594C1856.82 896.811 1858.84 907.115 1862.87 914.507C1866.9 921.675 1872.5 926.715 1879.67 929.627C1887.06 932.54 1895.58 933.996 1905.21 933.996C1911.93 933.996 1918.65 933.436 1925.37 932.316C1932.09 930.971 1937.24 929.963 1940.83 929.291L1963.34 1035.81C1956.17 1038.05 1946.09 1040.62 1933.1 1043.53C1920.1 1046.67 1904.31 1048.57 1885.72 1049.25C1851.22 1050.59 1820.98 1046 1795 1035.47C1769.24 1024.94 1749.19 1008.59 1734.85 986.413C1720.52 964.236 1713.46 936.236 1713.68 902.411V402.429ZM2028.25 1042.19V526.081H2167.02V616.131H2172.4C2181.8 584.098 2197.6 559.906 2219.77 543.553C2241.95 526.977 2267.49 518.689 2296.38 518.689C2303.55 518.689 2311.28 519.137 2319.57 520.033C2327.86 520.929 2335.14 522.161 2341.41 523.729V650.74C2334.69 648.724 2325.39 646.932 2313.52 645.364C2301.65 643.796 2290.78 643.012 2280.93 643.012C2259.87 643.012 2241.05 647.604 2224.48 656.788C2208.13 665.748 2195.13 678.293 2185.5 694.421C2176.09 710.55 2171.39 729.142 2171.39 750.199V1042.19H2028.25ZM2528.88 1051.93C2495.95 1051.93 2466.6 1046.22 2440.84 1034.8C2415.08 1023.15 2394.7 1006.01 2379.69 983.389C2364.91 960.54 2357.51 932.092 2357.51 898.043C2357.51 869.37 2362.78 845.289 2373.31 825.801C2383.83 806.312 2398.17 790.632 2416.32 778.759C2434.46 766.887 2455.07 757.927 2478.14 751.879C2501.44 745.831 2525.85 741.574 2551.39 739.11C2581.41 735.974 2605.6 733.062 2623.97 730.374C2642.34 727.462 2655.67 723.206 2663.95 717.606C2672.24 712.006 2676.39 703.717 2676.39 692.741V690.725C2676.39 669.445 2669.67 652.98 2656.23 641.332C2643.01 629.683 2624.19 623.859 2599.78 623.859C2574.02 623.859 2553.52 629.571 2538.29 640.996C2523.05 652.196 2512.97 666.308 2508.05 683.333L2375.66 672.581C2382.38 641.22 2395.59 614.115 2415.31 591.266C2435.02 568.194 2460.44 550.497 2491.58 538.177C2522.94 525.633 2559.23 519.361 2600.45 519.361C2629.12 519.361 2656.56 522.721 2682.77 529.441C2709.2 536.161 2732.61 546.577 2753 560.69C2773.6 574.802 2789.84 592.947 2801.72 615.123C2813.59 637.076 2819.53 663.396 2819.53 694.085V1042.19H2683.78V970.621H2679.75C2671.46 986.749 2660.37 1000.97 2646.48 1013.29C2632.59 1025.39 2615.9 1034.91 2596.42 1041.85C2576.93 1048.57 2554.41 1051.93 2528.88 1051.93ZM2569.87 953.148C2590.93 953.148 2609.52 949.004 2625.65 940.716C2641.78 932.204 2654.43 920.779 2663.62 906.443C2672.8 892.106 2677.39 875.866 2677.39 857.722V802.952C2672.91 805.864 2666.75 808.552 2658.91 811.016C2651.3 813.256 2642.67 815.384 2633.04 817.4C2623.41 819.193 2613.78 820.873 2604.14 822.441C2594.51 823.785 2585.78 825.017 2577.94 826.137C2561.13 828.601 2546.46 832.521 2533.92 837.897C2521.37 843.273 2511.63 850.553 2504.69 859.738C2497.74 868.698 2494.27 879.898 2494.27 893.338C2494.27 912.827 2501.33 927.723 2515.44 938.028C2529.77 948.108 2547.92 953.148 2569.87 953.148ZM3374.34 526.081L3193.9 1042.19H3032.62L2852.18 526.081H3003.38L3110.57 895.355H3115.95L3222.8 526.081H3374.34ZM3647.24 1052.27C3594.15 1052.27 3548.45 1041.52 3510.14 1020.01C3472.06 998.285 3442.72 967.596 3422.11 927.947C3401.5 888.074 3391.2 840.921 3391.2 786.488C3391.2 733.398 3401.5 686.805 3422.11 646.708C3442.72 606.611 3471.73 575.362 3509.14 552.961C3546.77 530.561 3590.9 519.361 3641.52 519.361C3675.57 519.361 3707.27 524.849 3736.61 535.825C3766.18 546.577 3791.94 562.818 3813.9 584.546C3836.07 606.275 3853.32 633.604 3865.64 666.532C3877.96 699.237 3884.12 737.542 3884.12 781.448V820.761H3448.32V732.054H3749.38C3749.38 711.446 3744.9 693.189 3735.94 677.285C3726.98 661.38 3714.55 648.948 3698.65 639.988C3682.97 630.804 3664.71 626.211 3643.88 626.211C3622.15 626.211 3602.88 631.252 3586.08 641.332C3569.51 651.188 3556.51 664.516 3547.11 681.317C3537.7 697.893 3532.88 716.374 3532.66 736.758V821.097C3532.66 846.633 3537.36 868.698 3546.77 887.29C3556.4 905.883 3569.95 920.219 3587.43 930.299C3604.9 940.38 3625.62 945.42 3649.59 945.42C3665.49 945.42 3680.05 943.18 3693.27 938.7C3706.49 934.22 3717.8 927.499 3727.21 918.539C3736.61 909.579 3743.78 898.603 3748.71 885.61L3881.1 894.347C3874.38 926.155 3860.6 953.932 3839.77 977.677C3819.16 1001.2 3792.5 1019.57 3759.8 1032.78C3727.32 1045.77 3689.8 1052.27 3647.24 1052.27ZM4101.75 354.044V1042.19H3958.61V354.044H4101.75ZM4509.86 526.081V633.604H4199.05V526.081H4509.86ZM4269.61 402.429H4412.75V883.594C4412.75 896.811 4414.76 907.115 4418.8 914.507C4422.83 921.675 4428.43 926.715 4435.6 929.627C4442.99 932.54 4451.5 933.996 4461.13 933.996C4467.85 933.996 4474.57 933.436 4481.29 932.316C4488.01 930.971 4493.17 929.963 4496.75 929.291L4519.26 1035.81C4512.1 1038.05 4502.02 1040.62 4489.02 1043.53C4476.03 1046.67 4460.24 1048.57 4441.65 1049.25C4407.15 1050.59 4376.91 1046 4350.92 1035.47C4325.16 1024.94 4305.11 1008.59 4290.78 986.413C4276.44 964.236 4269.39 936.236 4269.61 902.411V402.429ZM4584.17 1042.19V526.081H4722.95V616.131H4728.32C4737.73 584.098 4753.52 559.906 4775.7 543.553C4797.88 526.977 4823.41 518.689 4852.31 518.689C4859.48 518.689 4867.21 519.137 4875.49 520.033C4883.78 520.929 4891.06 522.161 4897.33 523.729V650.74C4890.61 648.724 4881.32 646.932 4869.45 645.364C4857.57 643.796 4846.71 643.012 4836.85 643.012C4815.8 643.012 4796.98 647.604 4780.4 656.788C4764.05 665.748 4751.06 678.293 4741.43 694.421C4732.02 710.55 4727.31 729.142 4727.31 750.199V1042.19H4584.17ZM5283.38 822.441V526.081H5426.52V1042.19H5289.1V948.444H5283.72C5272.07 978.685 5252.7 1002.99 5225.59 1021.36C5198.71 1039.73 5165.89 1048.91 5127.14 1048.91C5092.64 1048.91 5062.29 1041.07 5036.08 1025.39C5009.87 1009.71 4989.38 987.421 4974.59 958.524C4960.03 929.627 4952.64 895.019 4952.42 854.697V526.081H5095.56V829.161C5095.78 859.626 5103.96 883.706 5120.08 901.403C5136.21 919.099 5157.83 927.947 5184.93 927.947C5202.18 927.947 5218.31 924.027 5233.32 916.187C5248.33 908.123 5260.42 896.251 5269.61 880.57C5279.02 864.89 5283.61 845.513 5283.38 822.441ZM5951.52 673.253L5820.47 681.317C5818.23 670.117 5813.42 660.036 5806.02 651.076C5798.63 641.892 5788.89 634.612 5776.79 629.235C5764.92 623.635 5750.69 620.835 5734.12 620.835C5711.94 620.835 5693.24 625.539 5678 634.948C5662.77 644.132 5655.16 656.452 5655.16 671.909C5655.16 684.229 5660.08 694.645 5669.94 703.157C5679.8 711.67 5696.71 718.502 5720.68 723.654L5814.09 742.47C5864.26 752.775 5901.67 769.351 5926.31 792.2C5950.96 815.048 5963.28 845.065 5963.28 882.25C5963.28 916.075 5953.31 945.756 5933.37 971.293C5913.66 996.829 5886.55 1016.77 5852.06 1031.1C5817.78 1045.21 5778.25 1052.27 5733.45 1052.27C5665.12 1052.27 5610.69 1038.05 5570.14 1009.6C5529.82 980.925 5506.19 941.948 5499.25 892.666L5640.03 885.274C5644.29 906.107 5654.6 922.011 5670.95 932.988C5687.3 943.74 5708.24 949.116 5733.78 949.116C5758.87 949.116 5779.03 944.3 5794.26 934.668C5809.72 924.811 5817.56 912.155 5817.78 896.699C5817.56 883.706 5812.07 873.066 5801.32 864.778C5790.57 856.266 5773.99 849.769 5751.59 845.289L5662.21 827.481C5611.81 817.4 5574.29 799.928 5549.65 775.063C5525.23 750.199 5513.02 718.502 5513.02 679.973C5513.02 646.82 5521.98 618.259 5539.9 594.291C5558.05 570.322 5583.47 551.841 5616.18 538.849C5649.11 525.857 5687.64 519.361 5731.77 519.361C5796.95 519.361 5848.25 533.137 5885.66 560.69C5923.29 588.242 5945.24 625.763 5951.52 673.253ZM6309.01 526.081V633.604H5998.2V526.081H6309.01ZM6068.76 402.429H6211.9V883.594C6211.9 896.811 6213.91 907.115 6217.95 914.507C6221.98 921.675 6227.58 926.715 6234.75 929.627C6242.14 932.54 6250.65 933.996 6260.28 933.996C6267 933.996 6273.72 933.436 6280.44 932.316C6287.16 930.971 6292.32 929.963 6295.9 929.291L6318.41 1035.81C6311.25 1038.05 6301.16 1040.62 6288.17 1043.53C6275.18 1046.67 6259.39 1048.57 6240.8 1049.25C6206.3 1050.59 6176.06 1046 6150.07 1035.47C6124.31 1024.94 6104.26 1008.59 6089.93 986.413C6075.59 964.236 6068.53 936.236 6068.76 902.411V402.429ZM6612.99 1052.27C6559.9 1052.27 6514.2 1041.52 6475.89 1020.01C6437.81 998.285 6408.47 967.596 6387.86 927.947C6367.25 888.074 6356.95 840.921 6356.95 786.488C6356.95 733.398 6367.25 686.805 6387.86 646.708C6408.47 606.611 6437.48 575.362 6474.89 552.961C6512.52 530.561 6556.65 519.361 6607.27 519.361C6641.32 519.361 6673.02 524.849 6702.36 535.825C6731.93 546.577 6757.69 562.818 6779.65 584.546C6801.82 606.275 6819.07 633.604 6831.39 666.532C6843.71 699.237 6849.87 737.542 6849.87 781.448V820.761H6414.07V732.054H6715.13C6715.13 711.446 6710.65 693.189 6701.69 677.285C6692.73 661.38 6680.3 648.948 6664.39 639.988C6648.71 630.804 6630.46 626.211 6609.63 626.211C6587.9 626.211 6568.63 631.252 6551.83 641.332C6535.26 651.188 6522.26 664.516 6512.85 681.317C6503.45 697.893 6498.63 716.374 6498.41 736.758V821.097C6498.41 846.633 6503.11 868.698 6512.52 887.29C6522.15 905.883 6535.7 920.219 6553.18 930.299C6570.65 940.38 6591.37 945.42 6615.34 945.42C6631.24 945.42 6645.8 943.18 6659.02 938.7C6672.24 934.22 6683.55 927.499 6692.96 918.539C6702.36 909.579 6709.53 898.603 6714.46 885.61L6846.85 894.347C6840.13 926.155 6826.35 953.932 6805.52 977.677C6784.91 1001.2 6758.25 1019.57 6725.55 1032.78C6693.07 1045.77 6655.55 1052.27 6612.99 1052.27ZM6924.36 1042.19V526.081H7063.13V616.131H7068.51C7077.91 584.098 7093.71 559.906 7115.88 543.553C7138.06 526.977 7163.6 518.689 7192.49 518.689C7199.66 518.689 7207.39 519.137 7215.68 520.033C7223.97 520.929 7231.25 522.161 7237.52 523.729V650.74C7230.8 648.724 7221.5 646.932 7209.63 645.364C7197.76 643.796 7186.89 643.012 7177.04 643.012C7155.98 643.012 7137.16 647.604 7120.59 656.788C7104.24 665.748 7091.24 678.293 7081.61 694.421C7072.2 710.55 7067.5 729.142 7067.5 750.199V1042.19H6924.36Z" fill="#322E2D"/>
<mask id="mask0_7407_7095" style="mask-type:alpha" maskUnits="userSpaceOnUse" x="0" y="0" width="1391" height="1391">
<rect width="1390.53" height="1390.53" rx="337.027" fill="#C4C4C4"/>
</mask>
<g mask="url(#mask0_7407_7095)">
<rect width="1390.53" height="1390.53" fill="#FF7557"/>
</g>
<g clip-path="url(#clip0_7407_7095)">
<path d="M614.456 725.293L655.991 443.922C657.72 432.208 652.801 420.494 642.867 414.05C626.453 403.401 600.321 387.807 578.915 381.262C556.136 374.296 523.805 373.02 502.837 373.037C490.121 373.048 479.062 381.269 475.699 393.532C469.216 417.176 460.925 457.039 468.348 486.684C476.491 519.205 480.581 533.682 484.903 566.927C489.54 602.61 469.528 665.811 486.199 704.421C499.608 735.479 562.84 741.571 594.178 742.659C604.423 743.015 612.959 735.435 614.456 725.293Z" fill="#FFBCAD"/>
<path d="M627.281 776.602C637.31 708.127 678.018 427.666 692.471 328.624C694.063 317.716 704.348 310.323 715.255 311.916L817.95 326.916C828.854 328.509 836.565 338.733 834.982 349.637L806.197 547.909C804.603 558.884 812.454 569.145 823.442 570.648L937.312 586.225C948.241 587.721 956.077 597.919 954.575 608.847L944.943 678.938C943.442 689.858 933.257 697.576 922.336 696.081L810.107 680.711C798.056 679.06 785.705 688.493 783.965 700.531C773.9 770.173 785.922 687.157 771.708 784.516C771.514 785.841 771.437 787.288 771.522 788.624C772.495 804.045 774.429 812.989 779.676 827.578C785.014 843.459 793.955 856.403 798.492 863.208C802.095 869.213 815.985 884.203 823.313 891.365C835.189 902.975 861.345 921.391 884.965 931.132C902.087 938.194 919.49 943.292 937.632 945.055C949.008 946.16 958.627 955.278 958.627 966.708V1069.96C958.627 1080.87 949.865 1090.01 938.967 1089.53C928.625 1089.07 918.455 1088.1 907.651 1086.6C890.436 1084.2 862.412 1076.86 845.064 1070.32C827.716 1063.78 810.603 1055.99 797.558 1048.83C773.008 1035.35 754.388 1022.06 732.836 1004.26C720.05 993.698 710.684 981.575 698.407 969.164C684.128 953.018 674.879 939.286 663.044 918.322C651.973 898.711 643.561 878.555 636.221 852.266C631.551 836.919 626.213 801.957 627.281 776.602Z" fill="white"/>
<path d="M487.821 938.741C474.876 942.611 465.001 944.337 453.525 945.013C442.775 945.645 433.108 953.685 433.108 964.454L433.108 1013.67C433.108 1013.67 433.108 1013.67 433.108 1064.47C433.108 1075.06 441.387 1084.14 451.982 1084.07C461.971 1084.01 472.497 1083.28 486.086 1081.39C506.503 1077.92 523.451 1074.59 554.144 1062.58C583.863 1050.95 601.117 1040.16 624.069 1024.68C640.57 1013.55 652.345 1004.11 665.286 992.337C673.173 985.163 673.877 972.816 667.457 964.304C666.861 963.514 666.236 962.691 665.571 961.827C655.296 947.415 648.357 935.138 642.885 924.729C636.079 912.185 626.338 887.764 623.002 875.487C620.594 867.03 618.938 860.595 617.757 855.599C616.535 850.426 609.632 848.91 606.321 853.068L606.321 853.068C601.117 859.604 600.583 860.274 594.177 867.747C582.567 880.291 570.557 892.435 555.611 903.11C546.003 910.984 531.991 919.658 518.113 926.464C511.841 930.067 499.03 935.138 487.821 938.741Z" fill="#FFBCAD" stroke="white" stroke-width="0.0266892" stroke-linecap="round"/>
</g>
<defs>
<clipPath id="clip0_7407_7095">
<rect width="525.312" height="787.968" fill="white" transform="translate(432.61 309.007)"/>
</clipPath>
</defs>
</svg>
