<svg width="40" height="40" viewBox="0 0 40 40" fill="none" xmlns="http://www.w3.org/2000/svg">
<rect x="1.06141" y="1.06141" width="37.108" height="37.108" rx="11.6755" fill="#FF7557"/>
<rect x="1.06141" y="1.06141" width="37.108" height="37.108" rx="11.6755" stroke="#FF7557" stroke-width="2.12282"/>
<path d="M13.1183 28.1154V10.8236H20.0417C21.3138 10.8236 22.3749 11.0121 23.2248 11.3893C24.0748 11.7664 24.7137 12.2899 25.1415 12.9597C25.5693 13.6239 25.7831 14.3894 25.7831 15.2563C25.7831 15.9317 25.6481 16.5256 25.3779 17.0378C25.1077 17.5444 24.7362 17.9609 24.2634 18.2874C23.7962 18.6082 23.2614 18.8362 22.6591 18.9713V19.1402C23.3177 19.1683 23.9341 19.3541 24.5082 19.6974C25.088 20.0408 25.558 20.5221 25.9182 21.1412C26.2785 21.7548 26.4586 22.4865 26.4586 23.3365C26.4586 24.254 26.2306 25.073 25.7747 25.7935C25.3244 26.5083 24.6574 27.074 23.7737 27.4906C22.8899 27.9071 21.8007 28.1154 20.5061 28.1154H13.1183ZM16.7742 25.1264H19.7547C20.7735 25.1264 21.5165 24.9322 21.9837 24.5439C22.4509 24.1498 22.6845 23.6264 22.6845 22.9734C22.6845 22.495 22.5691 22.0728 22.3383 21.7069C22.1075 21.341 21.7782 21.054 21.3504 20.8457C20.9283 20.6374 20.4245 20.5333 19.8391 20.5333H16.7742V25.1264ZM16.7742 18.0594H19.4845C19.9854 18.0594 20.4301 17.9722 20.8185 17.7977C21.2125 17.6176 21.5221 17.3643 21.7473 17.0378C21.9781 16.7113 22.0934 16.3201 22.0934 15.8642C22.0934 15.2394 21.8711 14.7356 21.4264 14.3528C20.9874 13.9701 20.3626 13.7787 19.552 13.7787H16.7742V18.0594Z" fill="white"/>
</svg>
