<svg width="163" height="34" viewBox="0 0 163 34" fill="none" xmlns="http://www.w3.org/2000/svg">
<g clip-path="url(#clip0_616_6888)">
<path d="M0 12.4838C0 8.35381 0 6.28881 0.803749 4.71137C1.51075 3.32381 2.63887 2.19568 4.02643 1.48869C5.60388 0.684937 7.66887 0.684937 11.7989 0.684937H21.3854C25.5154 0.684937 27.5804 0.684937 29.1579 1.48869C30.5454 2.19568 31.6735 3.32381 32.3805 4.71137C33.1843 6.28881 33.1843 8.35381 33.1843 12.4838V22.0704C33.1843 26.2004 33.1843 28.2653 32.3805 29.8428C31.6735 31.2304 30.5454 32.3585 29.1579 33.0655C27.5804 33.8692 25.5154 33.8692 21.3854 33.8692H11.7989C7.66887 33.8692 5.60388 33.8692 4.02643 33.0655C2.63887 32.3585 1.51075 31.2304 0.803749 29.8428C0 28.2653 0 26.2004 0 22.0704V12.4838Z" fill="url(#paint0_linear_616_6888)"/>
<path d="M18.7274 8.89185C18.7274 9.85835 18.7274 11.6477 18.7274 13.0892C18.7274 15.8779 18.5469 15.5534 14.7791 15.5534C12.2609 15.5534 13.8645 15.5534 12.6427 15.5534C9.21812 15.5534 8.83562 17.801 8.8356 19.4943C8.83559 20.3863 8.77165 21.5082 8.86732 22.1787C9.00523 23.1452 9.79043 23.9335 10.7521 24.5259C13.7377 26.3655 14.2482 23.2942 15.8283 22.5409M16.6132 22.5409C16.3085 22.5409 16.0991 22.5409 15.8283 22.5409M16.6132 22.5409H15.8283M16.6132 22.5409C16.9071 22.5409 17.101 22.5409 17.4124 22.5409C18.9743 23.2826 19.6737 26.2913 22.226 24.8146C23.016 24.3575 24.3058 23.8668 24.3058 21.9983V19.2633" stroke="white" stroke-width="3.24954" stroke-linecap="square"/>
<circle cx="24.2959" cy="14.0285" r="1.62477" fill="white"/>
</g>
<path opacity="0.9" d="M45.3683 24.7771H40.1026V9.92281H45.4118C46.906 9.92281 48.1922 10.2202 49.2705 10.8149C50.3487 11.4049 51.178 12.2535 51.7583 13.3608C52.3433 14.4681 52.6359 15.793 52.6359 17.3354C52.6359 18.8828 52.3433 20.2125 51.7583 21.3246C51.178 22.4368 50.3439 23.2902 49.2559 23.885C48.1728 24.4797 46.8769 24.7771 45.3683 24.7771ZM43.2431 22.0862H45.2377C46.1661 22.0862 46.9471 21.9218 47.5805 21.593C48.2188 21.2594 48.6975 20.7444 49.0166 20.0481C49.3406 19.347 49.5025 18.4428 49.5025 17.3354C49.5025 16.2378 49.3406 15.3409 49.0166 14.6446C48.6975 13.9483 48.2212 13.4357 47.5877 13.1069C46.9543 12.7781 46.1734 12.6137 45.245 12.6137H43.2431V22.0862ZM56.1298 24.7771V13.6364H59.2196V24.7771H56.1298ZM57.6819 12.2003C57.2225 12.2003 56.8285 12.048 56.4997 11.7433C56.1757 11.4339 56.0137 11.064 56.0137 10.6336C56.0137 10.2081 56.1757 9.84303 56.4997 9.5384C56.8285 9.22893 57.2225 9.0742 57.6819 9.0742C58.1413 9.0742 58.5329 9.22893 58.8569 9.5384C59.1857 9.84303 59.3501 10.2081 59.3501 10.6336C59.3501 11.064 59.1857 11.4339 58.8569 11.7433C58.5329 12.048 58.1413 12.2003 57.6819 12.2003ZM73.3065 13.6364L69.4116 24.7771H65.9302L62.0353 13.6364H65.2992L67.6129 21.6075H67.7289L70.0354 13.6364H73.3065ZM80.8313 24.9947C79.6853 24.9947 78.6989 24.7626 77.8721 24.2984C77.05 23.8294 76.4166 23.1669 75.9718 22.3111C75.5269 21.4504 75.3045 20.4325 75.3045 19.2575C75.3045 18.1115 75.5269 17.1058 75.9718 16.2402C76.4166 15.3747 77.0428 14.7002 77.8503 14.2166C78.6626 13.7331 79.6152 13.4913 80.708 13.4913C81.443 13.4913 82.1272 13.6098 82.7606 13.8467C83.3989 14.0788 83.955 14.4294 84.4288 14.8984C84.9075 15.3674 85.2799 15.9574 85.5458 16.6682C85.8118 17.3741 85.9447 18.201 85.9447 19.1487V19.9973H76.5375V18.0825H83.0363C83.0363 17.6377 82.9395 17.2436 82.7461 16.9003C82.5527 16.557 82.2843 16.2886 81.941 16.0952C81.6026 15.8969 81.2085 15.7978 80.7588 15.7978C80.2898 15.7978 79.8739 15.9066 79.5113 16.1242C79.1534 16.3369 78.873 16.6246 78.6699 16.9873C78.4668 17.3451 78.3629 17.744 78.358 18.1841V20.0046C78.358 20.5558 78.4596 21.0321 78.6626 21.4334C78.8706 21.8348 79.1631 22.1442 79.5403 22.3618C79.9174 22.5794 80.3647 22.6882 80.8821 22.6882C81.2254 22.6882 81.5397 22.6399 81.825 22.5432C82.1103 22.4464 82.3545 22.3014 82.5575 22.108C82.7606 21.9146 82.9154 21.6776 83.0217 21.3972L85.8795 21.5857C85.7344 22.2724 85.437 22.872 84.9873 23.3845C84.5425 23.8922 83.9671 24.2887 83.2611 24.574C82.56 24.8545 81.75 24.9947 80.8313 24.9947ZM89.1866 24.7771V13.6364H92.1821V15.5802H92.2981C92.5012 14.8887 92.8421 14.3665 93.3208 14.0135C93.7995 13.6557 94.3507 13.4768 94.9745 13.4768C95.1292 13.4768 95.2961 13.4865 95.475 13.5058C95.6539 13.5252 95.811 13.5518 95.9464 13.5856V16.3273C95.8014 16.2838 95.6007 16.2451 95.3444 16.2112C95.0881 16.1774 94.8536 16.1605 94.6409 16.1605C94.1863 16.1605 93.7802 16.2596 93.4224 16.4578C93.0694 16.6512 92.7889 16.922 92.581 17.2702C92.3779 17.6183 92.2764 18.0197 92.2764 18.4742V24.7771H89.1866ZM108.039 16.8132L105.21 16.9873C105.162 16.7455 105.058 16.5279 104.898 16.3345C104.739 16.1363 104.528 15.9791 104.267 15.8631C104.011 15.7422 103.704 15.6817 103.346 15.6817C102.867 15.6817 102.464 15.7833 102.135 15.9864C101.806 16.1846 101.642 16.4506 101.642 16.7842C101.642 17.0502 101.748 17.275 101.961 17.4588C102.174 17.6425 102.539 17.79 103.056 17.9012L105.072 18.3074C106.155 18.5298 106.963 18.8876 107.495 19.3808C108.027 19.874 108.293 20.522 108.293 21.3246C108.293 22.0548 108.078 22.6955 107.647 23.2467C107.222 23.7979 106.637 24.2283 105.892 24.5377C105.152 24.8424 104.299 24.9947 103.332 24.9947C101.857 24.9947 100.682 24.6876 99.8066 24.0736C98.9362 23.4546 98.4261 22.6133 98.2762 21.5495L101.315 21.3899C101.407 21.8396 101.63 22.1829 101.983 22.4199C102.335 22.6519 102.788 22.768 103.339 22.768C103.88 22.768 104.316 22.664 104.644 22.4561C104.978 22.2434 105.147 21.9702 105.152 21.6365C105.147 21.3561 105.029 21.1264 104.797 20.9475C104.565 20.7637 104.207 20.6235 103.723 20.5268L101.794 20.1424C100.706 19.9248 99.896 19.5476 99.3641 19.0109C98.8371 18.4742 98.5736 17.79 98.5736 16.9583C98.5736 16.2427 98.767 15.6261 99.1538 15.1088C99.5455 14.5914 100.094 14.1925 100.8 13.912C101.511 13.6315 102.343 13.4913 103.295 13.4913C104.702 13.4913 105.81 13.7887 106.617 14.3834C107.43 14.9782 107.903 15.7881 108.039 16.8132ZM115.569 24.9584C114.723 24.9584 113.956 24.7408 113.27 24.3057C112.588 23.8656 112.046 23.2201 111.645 22.3691C111.249 21.5132 111.05 20.4639 111.05 19.2212C111.05 17.9447 111.256 16.8833 111.667 16.0371C112.078 15.1861 112.624 14.5503 113.306 14.1296C113.993 13.7041 114.745 13.4913 115.562 13.4913C116.186 13.4913 116.705 13.5977 117.121 13.8105C117.542 14.0184 117.88 14.2795 118.137 14.5938C118.398 14.9033 118.596 15.2079 118.731 15.5077H118.826V9.92281H121.908V24.7771H118.862V22.9928H118.731C118.586 23.3023 118.381 23.6094 118.115 23.914C117.854 24.2138 117.513 24.4628 117.092 24.6611C116.676 24.8593 116.169 24.9584 115.569 24.9584ZM116.548 22.4996C117.046 22.4996 117.467 22.3642 117.81 22.0935C118.158 21.8178 118.424 21.4334 118.608 20.9402C118.797 20.447 118.891 19.8692 118.891 19.2067C118.891 18.5443 118.799 17.9689 118.615 17.4805C118.432 16.9921 118.166 16.615 117.817 16.349C117.469 16.0831 117.046 15.9501 116.548 15.9501C116.04 15.9501 115.613 16.0879 115.264 16.3635C114.916 16.6392 114.653 17.0211 114.474 17.5095C114.295 17.9979 114.205 18.5636 114.205 19.2067C114.205 19.8547 114.295 20.4277 114.474 20.9257C114.658 21.4189 114.921 21.8058 115.264 22.0862C115.613 22.3618 116.04 22.4996 116.548 22.4996ZM130.751 24.9947C129.605 24.9947 128.619 24.7626 127.792 24.2984C126.97 23.8294 126.337 23.1669 125.892 22.3111C125.447 21.4504 125.224 20.4325 125.224 19.2575C125.224 18.1115 125.447 17.1058 125.892 16.2402C126.337 15.3747 126.963 14.7002 127.77 14.2166C128.583 13.7331 129.535 13.4913 130.628 13.4913C131.363 13.4913 132.047 13.6098 132.681 13.8467C133.319 14.0788 133.875 14.4294 134.349 14.8984C134.827 15.3674 135.2 15.9574 135.466 16.6682C135.732 17.3741 135.865 18.201 135.865 19.1487V19.9973H126.457V18.0825H132.956C132.956 17.6377 132.859 17.2436 132.666 16.9003C132.473 16.557 132.204 16.2886 131.861 16.0952C131.522 15.8969 131.128 15.7978 130.679 15.7978C130.21 15.7978 129.794 15.9066 129.431 16.1242C129.073 16.3369 128.793 16.6246 128.59 16.9873C128.387 17.3451 128.283 17.744 128.278 18.1841V20.0046C128.278 20.5558 128.379 21.0321 128.583 21.4334C128.79 21.8348 129.083 22.1442 129.46 22.3618C129.837 22.5794 130.285 22.6882 130.802 22.6882C131.145 22.6882 131.46 22.6399 131.745 22.5432C132.03 22.4464 132.274 22.3014 132.477 22.108C132.681 21.9146 132.835 21.6776 132.942 21.3972L135.799 21.5857C135.654 22.2724 135.357 22.872 134.907 23.3845C134.462 23.8922 133.887 24.2887 133.181 24.574C132.48 24.8545 131.67 24.9947 130.751 24.9947ZM148.376 16.8132L145.547 16.9873C145.499 16.7455 145.395 16.5279 145.235 16.3345C145.076 16.1363 144.865 15.9791 144.604 15.8631C144.348 15.7422 144.041 15.6817 143.683 15.6817C143.204 15.6817 142.801 15.7833 142.472 15.9864C142.143 16.1846 141.979 16.4506 141.979 16.7842C141.979 17.0502 142.085 17.275 142.298 17.4588C142.511 17.6425 142.876 17.79 143.393 17.9012L145.409 18.3074C146.493 18.5298 147.3 18.8876 147.832 19.3808C148.364 19.874 148.63 20.522 148.63 21.3246C148.63 22.0548 148.415 22.6955 147.984 23.2467C147.559 23.7979 146.974 24.2283 146.229 24.5377C145.489 24.8424 144.636 24.9947 143.669 24.9947C142.194 24.9947 141.019 24.6876 140.144 24.0736C139.273 23.4546 138.763 22.6133 138.613 21.5495L141.652 21.3899C141.744 21.8396 141.967 22.1829 142.32 22.4199C142.673 22.6519 143.125 22.768 143.676 22.768C144.217 22.768 144.653 22.664 144.981 22.4561C145.315 22.2434 145.484 21.9702 145.489 21.6365C145.484 21.3561 145.366 21.1264 145.134 20.9475C144.902 20.7637 144.544 20.6235 144.06 20.5268L142.131 20.1424C141.043 19.9248 140.233 19.5476 139.701 19.0109C139.174 18.4742 138.911 17.79 138.911 16.9583C138.911 16.2427 139.104 15.6261 139.491 15.1088C139.883 14.5914 140.431 14.1925 141.137 13.912C141.848 13.6315 142.68 13.4913 143.632 13.4913C145.039 13.4913 146.147 13.7887 146.954 14.3834C147.767 14.9782 148.241 15.7881 148.376 16.8132ZM154.601 21.5712L154.608 17.8649H155.057L158.626 13.6364H162.173L157.378 19.2358H156.646L154.601 21.5712ZM151.801 24.7771V9.92281H154.891V24.7771H151.801ZM158.764 24.7771L155.485 19.9248L157.545 17.7416L162.383 24.7771H158.764Z" fill="white"/>
<defs>
<linearGradient id="paint0_linear_616_6888" x1="16.5921" y1="0.684937" x2="16.5921" y2="33.8692" gradientUnits="userSpaceOnUse">
<stop stop-color="#FF7557"/>
<stop offset="1" stop-color="#F86545"/>
</linearGradient>
<clipPath id="clip0_616_6888">
<rect width="33.1843" height="33.1843" fill="white" transform="translate(0 0.684937)"/>
</clipPath>
</defs>
</svg>
