<svg width="1223" height="484" viewBox="0 0 1223 484" fill="none" xmlns="http://www.w3.org/2000/svg">
<path opacity="0.9" d="M589.25 232H536.848V84.1778H589.683C604.552 84.1778 617.351 87.1371 628.082 93.0558C638.812 98.9263 647.065 107.371 652.839 118.391C658.662 129.41 661.573 142.595 661.573 157.945C661.573 173.343 658.662 186.575 652.839 197.643C647.065 208.71 638.764 217.203 627.937 223.122C617.159 229.041 604.263 232 589.25 232ZM568.101 205.222H587.95C597.189 205.222 604.961 203.586 611.264 200.314C617.616 196.993 622.38 191.869 625.556 184.939C628.78 177.962 630.392 168.964 630.392 157.945C630.392 147.021 628.78 138.095 625.556 131.166C622.38 124.237 617.64 119.136 611.336 115.864C605.033 112.592 597.261 110.956 588.023 110.956H568.101V205.222ZM696.342 232V121.133H727.09V232H696.342ZM711.788 106.842C707.217 106.842 703.295 105.326 700.023 102.295C696.799 99.2151 695.187 95.5339 695.187 91.2513C695.187 87.0168 696.799 83.3838 700.023 80.3523C703.295 77.2727 707.217 75.7329 711.788 75.7329C716.36 75.7329 720.257 77.2727 723.481 80.3523C726.753 83.3838 728.389 87.0168 728.389 91.2513C728.389 95.5339 726.753 99.2151 723.481 102.295C720.257 105.326 716.36 106.842 711.788 106.842ZM867.277 121.133L828.517 232H793.871L755.111 121.133H787.591L810.616 200.458H811.771L834.724 121.133H867.277ZM942.159 234.165C930.755 234.165 920.939 231.856 912.71 227.236C904.53 222.569 898.226 215.976 893.799 207.459C889.372 198.894 887.159 188.765 887.159 177.072C887.159 165.668 889.372 155.659 893.799 147.046C898.226 138.432 904.458 131.72 912.494 126.908C920.578 122.096 930.057 119.69 940.932 119.69C948.246 119.69 955.055 120.869 961.359 123.227C967.711 125.536 973.244 129.025 977.96 133.692C982.724 138.36 986.429 144.231 989.075 151.304C991.722 158.329 993.045 166.558 993.045 175.989V184.434H899.429V165.379H964.102C964.102 160.952 963.139 157.03 961.214 153.614C959.29 150.197 956.619 147.527 953.203 145.602C949.834 143.629 945.913 142.643 941.437 142.643C936.77 142.643 932.632 143.725 929.023 145.891C925.462 148.008 922.671 150.871 920.65 154.48C918.629 158.041 917.594 162.011 917.546 166.389V184.506C917.546 189.992 918.557 194.732 920.578 198.726C922.647 202.719 925.558 205.799 929.311 207.964C933.065 210.13 937.516 211.213 942.664 211.213C946.081 211.213 949.209 210.731 952.048 209.769C954.887 208.807 957.317 207.363 959.338 205.438C961.359 203.513 962.899 201.156 963.957 198.365L992.396 200.241C990.952 207.074 987.993 213.041 983.518 218.142C979.091 223.194 973.365 227.14 966.339 229.979C959.362 232.77 951.302 234.165 942.159 234.165ZM1025.31 232V121.133H1055.12V140.477H1056.27C1058.29 133.596 1061.68 128.399 1066.45 124.887C1071.21 121.326 1076.7 119.545 1082.91 119.545C1084.44 119.545 1086.1 119.642 1087.89 119.834C1089.67 120.027 1091.23 120.291 1092.58 120.628V147.912C1091.13 147.479 1089.14 147.094 1086.59 146.757C1084.04 146.42 1081.7 146.252 1079.58 146.252C1075.06 146.252 1071.02 147.238 1067.46 149.211C1063.95 151.136 1061.16 153.83 1059.09 157.295C1057.07 160.76 1056.05 164.753 1056.05 169.277V232H1025.31ZM1212.91 152.748L1184.76 154.48C1184.28 152.074 1183.25 149.909 1181.66 147.984C1180.07 146.011 1177.98 144.447 1175.38 143.292C1172.83 142.089 1169.78 141.488 1166.21 141.488C1161.45 141.488 1157.43 142.498 1154.16 144.519C1150.89 146.492 1149.25 149.139 1149.25 152.459C1149.25 155.106 1150.31 157.343 1152.43 159.172C1154.55 161 1158.18 162.468 1163.33 163.574L1183.39 167.617C1194.17 169.83 1202.21 173.391 1207.5 178.299C1212.79 183.207 1215.44 189.655 1215.44 197.643C1215.44 204.909 1213.3 211.285 1209.02 216.77C1204.78 222.256 1198.96 226.538 1191.55 229.618C1184.19 232.65 1175.69 234.165 1166.07 234.165C1151.39 234.165 1139.7 231.11 1130.99 224.999C1122.33 218.839 1117.25 210.467 1115.76 199.88L1146 198.292C1146.92 202.768 1149.13 206.184 1152.64 208.542C1156.16 210.852 1160.66 212.006 1166.14 212.006C1171.53 212.006 1175.86 210.972 1179.13 208.903C1182.45 206.786 1184.14 204.067 1184.19 200.747C1184.14 197.956 1182.96 195.67 1180.65 193.89C1178.34 192.061 1174.78 190.666 1169.97 189.703L1150.77 185.878C1139.94 183.712 1131.88 179.959 1126.59 174.618C1121.34 169.277 1118.72 162.468 1118.72 154.191C1118.72 147.07 1120.65 140.934 1124.5 135.786C1128.39 130.637 1133.85 126.667 1140.88 123.876C1147.95 121.085 1156.23 119.69 1165.71 119.69C1179.71 119.69 1190.73 122.649 1198.77 128.568C1206.85 134.486 1211.57 142.546 1212.91 152.748Z" fill="black"/>
<path opacity="0.9" d="M580.369 404H531.385V265.818H580.774C594.673 265.818 606.638 268.585 616.669 274.117C626.699 279.605 634.414 287.499 639.811 297.8C645.254 308.1 647.975 320.425 647.975 334.774C647.975 349.168 645.254 361.538 639.811 371.884C634.414 382.229 626.654 390.168 616.534 395.701C606.458 401.234 594.403 404 580.369 404ZM560.6 378.968H579.154C587.791 378.968 595.055 377.439 600.948 374.38C606.885 371.276 611.338 366.486 614.307 360.009C617.321 353.486 618.828 345.075 618.828 334.774C618.828 324.563 617.321 316.219 614.307 309.742C611.338 303.265 606.908 298.497 601.015 295.438C595.123 292.379 587.858 290.85 579.222 290.85H560.6V378.968ZM727.707 406.024C717.047 406.024 707.871 403.865 700.179 399.547C692.532 395.184 686.64 389.021 682.501 381.06C678.363 373.053 676.294 363.585 676.294 352.654C676.294 341.994 678.363 332.638 682.501 324.586C686.64 316.534 692.465 310.259 699.976 305.761C707.533 301.263 716.395 299.014 726.56 299.014C733.397 299.014 739.762 300.116 745.655 302.32C751.592 304.479 756.765 307.741 761.173 312.104C765.626 316.467 769.09 321.955 771.564 328.567C774.038 335.134 775.275 342.826 775.275 351.642V359.536H687.764V341.724H748.219C748.219 337.585 747.319 333.92 745.52 330.726C743.721 327.532 741.224 325.036 738.03 323.237C734.882 321.392 731.216 320.47 727.033 320.47C722.669 320.47 718.801 321.482 715.427 323.506C712.099 325.486 709.49 328.162 707.601 331.536C705.712 334.864 704.744 338.575 704.7 342.668V359.604C704.7 364.732 705.644 369.162 707.533 372.896C709.467 376.629 712.189 379.508 715.697 381.532C719.206 383.556 723.367 384.568 728.18 384.568C731.373 384.568 734.297 384.118 736.951 383.219C739.605 382.319 741.876 380.97 743.766 379.17C745.655 377.371 747.094 375.167 748.084 372.558L774.668 374.312C773.318 380.7 770.552 386.277 766.369 391.045C762.23 395.768 756.878 399.457 750.31 402.111C743.788 404.72 736.254 406.024 727.707 406.024ZM891.661 329.916L865.347 331.536C864.897 329.286 863.93 327.262 862.445 325.463C860.961 323.619 859.004 322.157 856.575 321.077C854.191 319.953 851.335 319.391 848.006 319.391C843.553 319.391 839.797 320.335 836.739 322.224C833.68 324.069 832.151 326.543 832.151 329.646C832.151 332.12 833.14 334.212 835.119 335.921C837.099 337.63 840.495 339.002 845.308 340.037L864.065 343.815C874.14 345.884 881.652 349.213 886.6 353.801C891.548 358.389 894.022 364.417 894.022 371.884C894.022 378.676 892.02 384.636 888.017 389.763C884.059 394.891 878.616 398.895 871.689 401.773C864.807 404.607 856.868 406.024 847.872 406.024C834.152 406.024 823.222 403.168 815.08 397.455C806.984 391.698 802.238 383.871 800.844 373.975L829.114 372.491C829.969 376.674 832.038 379.868 835.322 382.072C838.605 384.231 842.811 385.31 847.939 385.31C852.977 385.31 857.025 384.343 860.084 382.409C863.188 380.43 864.762 377.888 864.807 374.785C864.762 372.176 863.66 370.039 861.501 368.375C859.342 366.666 856.013 365.361 851.515 364.462L833.568 360.886C823.447 358.862 815.912 355.353 810.965 350.36C806.062 345.367 803.61 339.002 803.61 331.266C803.61 324.608 805.409 318.873 809.008 314.06C812.651 309.247 817.757 305.536 824.324 302.928C830.936 300.319 838.673 299.014 847.534 299.014C860.624 299.014 870.924 301.781 878.436 307.313C885.993 312.846 890.401 320.38 891.661 329.916ZM949.565 374.178L949.633 339.7H953.816L987.012 300.364H1020.01L975.407 352.452H968.592L949.565 374.178ZM923.521 404V265.818H952.264V404H923.521ZM988.294 404L957.797 358.862L976.959 338.553L1021.96 404H988.294Z" fill="black"/>
<g clip-path="url(#clip0_1263_50)">
<path d="M0 171.948C0 111.761 0 81.6669 11.7133 58.6783C22.0165 38.457 38.457 22.0165 58.6783 11.7133C81.6669 0 111.761 0 171.948 0H311.656C371.843 0 401.937 0 424.926 11.7133C445.147 22.0165 461.588 38.457 471.891 58.6783C483.604 81.6669 483.604 111.761 483.604 171.948V311.656C483.604 371.843 483.604 401.937 471.891 424.926C461.588 445.147 445.147 461.588 424.926 471.891C401.937 483.604 371.843 483.604 311.656 483.604H171.948C111.761 483.604 81.6669 483.604 58.6783 471.891C38.457 461.588 22.0165 445.147 11.7133 424.926C0 401.937 0 371.843 0 311.656V171.948Z" fill="url(#paint0_linear_1263_50)"/>
<path d="M272.92 119.604C272.92 133.689 272.92 159.765 272.92 180.773C272.92 221.414 270.29 216.685 215.381 216.685C178.682 216.685 202.051 216.685 184.246 216.685C134.339 216.685 128.765 249.44 128.764 274.116C128.764 287.116 127.832 303.466 129.227 313.237C131.236 327.323 142.679 338.81 156.693 347.444C200.204 374.252 207.644 329.493 230.67 318.516M242.11 318.516C237.67 318.516 234.617 318.516 230.67 318.516M242.11 318.516H230.67M242.11 318.516C246.393 318.516 249.218 318.516 253.757 318.516C276.519 329.324 286.712 373.172 323.907 351.651C335.419 344.99 354.215 337.839 354.215 310.609V270.75" stroke="white" stroke-width="47.3565" stroke-linecap="square"/>
<circle cx="354.071" cy="194.463" r="23.6782" fill="white"/>
</g>
<defs>
<linearGradient id="paint0_linear_1263_50" x1="241.802" y1="0" x2="241.802" y2="483.604" gradientUnits="userSpaceOnUse">
<stop stop-color="#FF7557"/>
<stop offset="1" stop-color="#F86545"/>
</linearGradient>
<clipPath id="clip0_1263_50">
<rect width="483.604" height="483.604" fill="white"/>
</clipPath>
</defs>
</svg>
