<svg width="294" height="294" viewBox="0 0 294 294" fill="none" xmlns="http://www.w3.org/2000/svg">
<mask id="mask0_616_6908" style="mask-type:alpha" maskUnits="userSpaceOnUse" x="0" y="0" width="294" height="294">
<rect y="0.000183105" width="293.336" height="293.336" rx="71.0967" fill="#C4C4C4"/>
</mask>
<g mask="url(#mask0_616_6908)">
<rect width="293.336" height="293.336" transform="translate(0 0.00390625)" fill="#FF7557"/>
<path d="M164.853 73.8572C164.853 82.3895 164.853 98.1855 164.853 110.911C164.853 135.53 163.26 132.665 129.997 132.665C107.766 132.665 121.923 132.665 111.137 132.665C80.9049 132.665 77.5282 152.507 77.528 167.455C77.528 175.33 76.9635 185.234 77.8081 191.153C79.0256 199.686 85.9573 206.644 94.4466 211.875C120.804 228.114 125.311 201.001 139.259 194.351M146.189 194.351C143.499 194.351 141.65 194.351 139.259 194.351M146.189 194.351H139.259M146.189 194.351C148.784 194.351 150.495 194.351 153.244 194.351C167.033 200.898 173.207 227.46 195.738 214.423C202.712 210.388 214.099 206.056 214.099 189.561V165.416" stroke="white" stroke-width="28.6869" stroke-linecap="square"/>
<circle cx="214.011" cy="119.205" r="14.3435" fill="white"/>
</g>
</svg>
