<svg width="180" height="180" viewBox="0 0 180 180" fill="none" xmlns="http://www.w3.org/2000/svg">
<g clip-path="url(#clip0_723_507)">
<path d="M0 64C0 41.5979 0 30.3968 4.35974 21.8404C8.19467 14.3139 14.3139 8.19467 21.8404 4.35974C30.3968 0 41.5979 0 64 0H116C138.402 0 149.603 0 158.16 4.35974C165.686 8.19467 171.805 14.3139 175.64 21.8404C180 30.3968 180 41.5979 180 64V116C180 138.402 180 149.603 175.64 158.16C171.805 165.686 165.686 171.805 158.16 175.64C149.603 180 138.402 180 116 180H64C41.5979 180 30.3968 180 21.8404 175.64C14.3139 171.805 8.19467 165.686 4.35974 158.16C0 149.603 0 138.402 0 116V64Z" fill="url(#paint0_linear_723_507)"/>
<path d="M101.582 44.5172C101.582 49.7598 101.582 59.4654 101.582 67.2846C101.582 82.4113 100.603 80.6512 80.1656 80.6512C66.5061 80.6512 75.2044 80.6512 68.5771 80.6512C50.0015 80.6512 47.9267 92.8428 47.9266 102.028C47.9266 106.866 47.5797 112.952 48.0987 116.589C48.8467 121.831 53.1059 126.107 58.322 129.32C74.5169 139.298 77.286 122.639 85.8566 118.553M90.1145 118.553C88.4618 118.553 87.3254 118.553 85.8566 118.553M90.1145 118.553H85.8566M90.1145 118.553C91.7087 118.553 92.7602 118.553 94.4496 118.553C102.922 122.576 106.715 138.896 120.56 130.886C124.845 128.407 131.841 125.745 131.841 115.61V100.775" stroke="white" stroke-width="17.6263" stroke-linecap="square"/>
<circle cx="131.787" cy="72.3802" r="8.81317" fill="white"/>
</g>
<defs>
<linearGradient id="paint0_linear_723_507" x1="90" y1="0" x2="90" y2="180" gradientUnits="userSpaceOnUse">
<stop stop-color="#FF7557"/>
<stop offset="1" stop-color="#F86545"/>
</linearGradient>
<clipPath id="clip0_723_507">
<rect width="180" height="180" fill="white"/>
</clipPath>
</defs>
</svg>
