<svg width="1060" height="430" viewBox="0 0 1060 430" fill="none" xmlns="http://www.w3.org/2000/svg">
<mask id="mask0_616_6907" style="mask-type:alpha" maskUnits="userSpaceOnUse" x="0" y="15" width="399" height="400">
<rect y="15.6663" width="398.668" height="398.668" rx="96.6263" fill="#C4C4C4"/>
</mask>
<g mask="url(#mask0_616_6907)">
<rect width="398.668" height="398.668" transform="translate(0 15.6711)" fill="#FF7557"/>
<path d="M224.049 116.044C224.049 127.641 224.049 149.109 224.049 166.404C224.049 199.863 221.884 195.97 176.677 195.97C146.463 195.97 165.703 195.97 151.044 195.97C109.957 195.97 105.367 222.936 105.367 243.252C105.367 253.955 104.6 267.415 105.748 275.46C107.402 287.056 116.823 296.513 128.361 303.622C164.183 325.692 170.307 288.843 189.265 279.805M198.683 279.805C195.027 279.805 192.514 279.805 189.265 279.805M198.683 279.805H189.265M198.683 279.805C202.209 279.805 204.535 279.805 208.272 279.805C227.011 288.704 235.403 324.803 266.025 307.085C275.503 301.601 290.978 295.714 290.978 273.296V240.481" stroke="white" stroke-width="38.9879" stroke-linecap="square"/>
<circle cx="290.859" cy="177.676" r="19.494" fill="white"/>
</g>
<path d="M504.762 172H458.91V42.654H505.141C518.151 42.654 529.351 45.2434 538.741 50.4223C548.13 55.5591 555.351 62.9485 560.404 72.5905C565.498 82.2325 568.046 93.7692 568.046 107.201C568.046 120.674 565.498 132.253 560.404 141.937C555.351 151.621 548.088 159.053 538.614 164.232C529.183 169.411 517.899 172 504.762 172ZM486.257 148.569H503.625C511.709 148.569 518.509 147.137 524.025 144.274C529.583 141.369 533.751 136.885 536.53 130.821C539.351 124.716 540.762 116.843 540.762 107.201C540.762 97.6429 539.351 89.8324 536.53 83.7693C533.751 77.7062 529.604 73.2431 524.088 70.38C518.573 67.5169 511.773 66.0853 503.688 66.0853H486.257V148.569ZM598.469 172V74.9905H625.374V172H598.469ZM611.985 62.4853C607.985 62.4853 604.553 61.159 601.69 58.5064C598.869 55.8117 597.459 52.5907 597.459 48.8434C597.459 45.1381 598.869 41.9592 601.69 39.3066C604.553 36.6119 607.985 35.2646 611.985 35.2646C615.985 35.2646 619.395 36.6119 622.216 39.3066C625.079 41.9592 626.511 45.1381 626.511 48.8434C626.511 52.5907 625.079 55.8117 622.216 58.5064C619.395 61.159 615.985 62.4853 611.985 62.4853ZM748.039 74.9905L714.123 172H683.808L649.892 74.9905H678.313L698.46 144.4H699.471L719.555 74.9905H748.039ZM813.562 173.895C803.583 173.895 794.994 171.874 787.794 167.832C780.636 163.747 775.12 157.979 771.247 150.527C767.373 143.032 765.436 134.169 765.436 123.937C765.436 113.958 767.373 105.201 771.247 97.6639C775.12 90.1272 780.573 84.2535 787.604 80.043C794.678 75.8326 802.973 73.7273 812.488 73.7273C818.888 73.7273 824.846 74.7589 830.362 76.822C835.92 78.8431 840.762 81.8957 844.888 85.9798C849.056 90.064 852.298 95.2008 854.614 101.39C856.93 107.538 858.088 114.737 858.088 122.99V130.379H776.173V113.706H832.762C832.762 109.832 831.92 106.401 830.235 103.411C828.551 100.422 826.214 98.085 823.225 96.4008C820.278 94.6745 816.846 93.8113 812.93 93.8113C808.846 93.8113 805.225 94.7587 802.067 96.6534C798.952 98.506 796.509 101.011 794.741 104.169C792.973 107.285 792.067 110.759 792.025 114.59V130.443C792.025 135.242 792.909 139.39 794.678 142.885C796.488 146.379 799.036 149.074 802.32 150.969C805.604 152.863 809.499 153.811 814.004 153.811C816.993 153.811 819.73 153.39 822.214 152.548C824.699 151.705 826.825 150.442 828.593 148.758C830.362 147.074 831.709 145.011 832.635 142.569L857.519 144.211C856.256 150.19 853.667 155.411 849.751 159.874C845.877 164.295 840.867 167.747 834.72 170.232C828.614 172.674 821.562 173.895 813.562 173.895ZM886.317 172V74.9905H912.4V91.9166H913.411C915.179 85.8956 918.148 81.3483 922.316 78.2747C926.485 75.1589 931.284 73.601 936.716 73.601C938.063 73.601 939.516 73.6852 941.074 73.8536C942.632 74.0221 944 74.2536 945.179 74.5484V98.4218C943.916 98.0429 942.169 97.706 939.937 97.4113C937.705 97.1166 935.663 96.9692 933.811 96.9692C929.853 96.9692 926.316 97.8323 923.2 99.5586C920.127 101.243 917.685 103.601 915.874 106.632C914.106 109.664 913.221 113.159 913.221 117.116V172H886.317ZM1050.48 102.653L1025.84 104.169C1025.42 102.064 1024.52 100.169 1023.13 98.485C1021.74 96.7587 1019.91 95.3903 1017.63 94.3797C1015.4 93.3271 1012.73 92.8008 1009.61 92.8008C1005.44 92.8008 1001.93 93.685 999.065 95.4534C996.202 97.1797 994.771 99.4955 994.771 102.401C994.771 104.716 995.697 106.674 997.55 108.274C999.402 109.874 1002.58 111.159 1007.09 112.127L1024.64 115.664C1034.08 117.601 1041.11 120.716 1045.74 125.011C1050.37 129.306 1052.69 134.948 1052.69 141.937C1052.69 148.295 1050.81 153.874 1047.06 158.674C1043.36 163.474 1038.27 167.221 1031.78 169.916C1025.34 172.568 1017.91 173.895 1009.49 173.895C996.644 173.895 986.413 171.221 978.792 165.874C971.213 160.484 966.771 153.158 965.466 143.895L991.929 142.506C992.729 146.421 994.665 149.411 997.739 151.474C1000.81 153.495 1004.75 154.505 1009.55 154.505C1014.27 154.505 1018.05 153.6 1020.92 151.79C1023.82 149.937 1025.3 147.558 1025.34 144.653C1025.3 142.211 1024.27 140.211 1022.24 138.653C1020.22 137.053 1017.11 135.832 1012.9 134.99L996.097 131.643C986.623 129.748 979.571 126.464 974.939 121.79C970.35 117.116 968.055 111.159 968.055 103.916C968.055 97.685 969.739 92.3166 973.108 87.8114C976.518 83.3062 981.297 79.8325 987.445 77.3904C993.634 74.9484 1000.88 73.7273 1009.17 73.7273C1021.42 73.7273 1031.07 76.3168 1038.1 81.4957C1045.17 86.6746 1049.3 93.7271 1050.48 102.653Z" fill="white"/>
<path d="M504.762 387H458.91V257.654H505.141C518.151 257.654 529.351 260.243 538.741 265.422C548.13 270.559 555.351 277.948 560.404 287.59C565.498 297.233 568.046 308.769 568.046 322.201C568.046 335.674 565.498 347.253 560.404 356.937C555.351 366.621 548.088 374.053 538.614 379.232C529.183 384.411 517.899 387 504.762 387ZM486.257 363.569H503.625C511.709 363.569 518.509 362.137 524.025 359.274C529.583 356.369 533.751 351.885 536.53 345.821C539.351 339.716 540.762 331.843 540.762 322.201C540.762 312.643 539.351 304.832 536.53 298.769C533.751 292.706 529.604 288.243 524.088 285.38C518.573 282.517 511.773 281.085 503.688 281.085H486.257V363.569ZM642.679 388.895C632.7 388.895 624.111 386.874 616.911 382.832C609.753 378.747 604.238 372.979 600.364 365.527C596.49 358.032 594.553 349.169 594.553 338.937C594.553 328.958 596.49 320.201 600.364 312.664C604.238 305.127 609.69 299.254 616.722 295.043C623.795 290.833 632.09 288.727 641.606 288.727C648.005 288.727 653.963 289.759 659.479 291.822C665.037 293.843 669.879 296.896 674.005 300.98C678.174 305.064 681.416 310.201 683.731 316.39C686.047 322.538 687.205 329.737 687.205 337.99V345.379H605.29V328.706H661.879C661.879 324.832 661.037 321.401 659.353 318.411C657.669 315.422 655.332 313.085 652.342 311.401C649.395 309.674 645.963 308.811 642.048 308.811C637.963 308.811 634.342 309.759 631.185 311.653C628.069 313.506 625.627 316.011 623.858 319.169C622.09 322.285 621.185 325.759 621.143 329.59V345.443C621.143 350.242 622.027 354.39 623.795 357.885C625.606 361.379 628.153 364.074 631.437 365.969C634.721 367.863 638.616 368.811 643.121 368.811C646.111 368.811 648.848 368.39 651.332 367.548C653.816 366.705 655.942 365.442 657.711 363.758C659.479 362.074 660.826 360.011 661.753 357.569L686.637 359.211C685.374 365.19 682.784 370.411 678.868 374.874C674.995 379.295 669.984 382.747 663.837 385.232C657.732 387.674 650.679 388.895 642.679 388.895ZM796.149 317.653L771.517 319.169C771.096 317.064 770.191 315.169 768.802 313.485C767.412 311.759 765.581 310.39 763.307 309.38C761.075 308.327 758.402 307.801 755.286 307.801C751.118 307.801 747.602 308.685 744.739 310.453C741.876 312.18 740.444 314.495 740.444 317.401C740.444 319.716 741.37 321.674 743.223 323.274C745.076 324.874 748.255 326.159 752.76 327.127L770.317 330.664C779.749 332.601 786.78 335.716 791.412 340.011C796.044 344.306 798.359 349.948 798.359 356.937C798.359 363.295 796.486 368.874 792.738 373.674C789.033 378.474 783.938 382.221 777.454 384.916C771.012 387.568 763.581 388.895 755.16 388.895C742.318 388.895 732.086 386.221 724.465 380.874C716.886 375.484 712.444 368.158 711.139 358.895L737.602 357.506C738.402 361.421 740.339 364.411 743.413 366.474C746.486 368.495 750.423 369.505 755.223 369.505C759.939 369.505 763.728 368.6 766.591 366.79C769.496 364.937 770.97 362.558 771.012 359.653C770.97 357.211 769.939 355.211 767.918 353.653C765.896 352.053 762.781 350.832 758.57 349.99L741.77 346.643C732.297 344.748 725.244 341.464 720.613 336.79C716.023 332.116 713.729 326.159 713.729 318.916C713.729 312.685 715.413 307.317 718.781 302.811C722.192 298.306 726.971 294.833 733.118 292.39C739.307 289.948 746.549 288.727 754.844 288.727C767.096 288.727 776.738 291.317 783.77 296.496C790.844 301.675 794.97 308.727 796.149 317.653ZM850.351 359.084L850.414 326.811H854.33L885.403 289.99H916.287L874.54 338.748H868.161L850.351 359.084ZM825.972 387V257.654H852.877V387H825.972ZM886.603 387L858.056 344.748L875.993 325.737L918.119 387H886.603Z" fill="white"/>
</svg>
