<svg width="226" height="52" viewBox="0 0 226 52" fill="none" xmlns="http://www.w3.org/2000/svg">
<rect x="0.842773" y="0.810303" width="225.157" height="50.4502" rx="4.67131" fill="#446076"/>
<path d="M53.1523 33.0354V18.8732H58.8227C59.8646 18.8732 60.7336 19.0277 61.4297 19.3365C62.1258 19.6454 62.6491 20.0741 62.9994 20.6227C63.3498 21.1667 63.525 21.7937 63.525 22.5037C63.525 23.0569 63.4143 23.5432 63.193 23.9628C62.9718 24.3777 62.6675 24.7188 62.2803 24.9862C61.8976 25.249 61.4597 25.4357 60.9664 25.5463V25.6846C61.5058 25.7077 62.0106 25.8598 62.4808 26.141C62.9556 26.4222 63.3406 26.8164 63.6356 27.3235C63.9307 27.826 64.0782 28.4253 64.0782 29.1214C64.0782 29.8729 63.8915 30.5436 63.5181 31.1337C63.1493 31.7192 62.603 32.1825 61.8792 32.5237C61.1554 32.8648 60.2633 33.0354 59.203 33.0354H53.1523ZM56.1465 30.5874H58.5876C59.422 30.5874 60.0305 30.4284 60.4132 30.1103C60.7958 29.7876 60.9871 29.3589 60.9871 28.8241C60.9871 28.4322 60.8926 28.0865 60.7036 27.7868C60.5146 27.4872 60.2449 27.252 59.8945 27.0815C59.5488 26.9109 59.1362 26.8256 58.6567 26.8256H56.1465V30.5874ZM56.1465 24.7995H58.3663C58.7766 24.7995 59.1408 24.728 59.4589 24.5851C59.7816 24.4376 60.0351 24.2301 60.2195 23.9628C60.4086 23.6954 60.5031 23.375 60.5031 23.0015C60.5031 22.4898 60.321 22.0772 59.9568 21.7637C59.5972 21.4503 59.0855 21.2935 58.4216 21.2935H56.1465V24.7995ZM70.7703 33.2429C69.6962 33.2429 68.7672 33.0147 67.9835 32.5583C67.2044 32.0972 66.6028 31.4564 66.1787 30.6359C65.7545 29.8106 65.5425 28.8541 65.5425 27.7661C65.5425 26.6689 65.7545 25.71 66.1787 24.8894C66.6028 24.0642 67.2044 23.4234 67.9835 22.967C68.7672 22.506 69.6962 22.2755 70.7703 22.2755C71.8445 22.2755 72.7711 22.506 73.5502 22.967C74.3339 23.4234 74.9378 24.0642 75.3619 24.8894C75.7861 25.71 75.9981 26.6689 75.9981 27.7661C75.9981 28.8541 75.7861 29.8106 75.3619 30.6359C74.9378 31.4564 74.3339 32.0972 73.5502 32.5583C72.7711 33.0147 71.8445 33.2429 70.7703 33.2429ZM70.7841 30.9609C71.2728 30.9609 71.6808 30.8226 72.0081 30.546C72.3354 30.2647 72.5821 29.8821 72.748 29.398C72.9186 28.914 73.0039 28.3631 73.0039 27.7453C73.0039 27.1276 72.9186 26.5767 72.748 26.0926C72.5821 25.6086 72.3354 25.2259 72.0081 24.9447C71.6808 24.6635 71.2728 24.5229 70.7841 24.5229C70.2909 24.5229 69.8759 24.6635 69.5394 24.9447C69.2075 25.2259 68.9562 25.6086 68.7857 26.0926C68.6197 26.5767 68.5367 27.1276 68.5367 27.7453C68.5367 28.3631 68.6197 28.914 68.7857 29.398C68.9562 29.8821 69.2075 30.2647 69.5394 30.546C69.8759 30.8226 70.2909 30.9609 70.7841 30.9609ZM82.7127 33.2429C81.6386 33.2429 80.7096 33.0147 79.9259 32.5583C79.1468 32.0972 78.5452 31.4564 78.1211 30.6359C77.697 29.8106 77.4849 28.8541 77.4849 27.7661C77.4849 26.6689 77.697 25.71 78.1211 24.8894C78.5452 24.0642 79.1468 23.4234 79.9259 22.967C80.7096 22.506 81.6386 22.2755 82.7127 22.2755C83.7869 22.2755 84.7135 22.506 85.4926 22.967C86.2763 23.4234 86.8802 24.0642 87.3044 24.8894C87.7285 25.71 87.9406 26.6689 87.9406 27.7661C87.9406 28.8541 87.7285 29.8106 87.3044 30.6359C86.8802 31.4564 86.2763 32.0972 85.4926 32.5583C84.7135 33.0147 83.7869 33.2429 82.7127 33.2429ZM82.7266 30.9609C83.2152 30.9609 83.6232 30.8226 83.9505 30.546C84.2779 30.2647 84.5245 29.8821 84.6905 29.398C84.861 28.914 84.9463 28.3631 84.9463 27.7453C84.9463 27.1276 84.861 26.5767 84.6905 26.0926C84.5245 25.6086 84.2779 25.2259 83.9505 24.9447C83.6232 24.6635 83.2152 24.5229 82.7266 24.5229C82.2333 24.5229 81.8184 24.6635 81.4818 24.9447C81.1499 25.2259 80.8987 25.6086 80.7281 26.0926C80.5621 26.5767 80.4791 27.1276 80.4791 27.7453C80.4791 28.3631 80.5621 28.914 80.7281 29.398C80.8987 29.8821 81.1499 30.2647 81.4818 30.546C81.8184 30.8226 82.2333 30.9609 82.7266 30.9609ZM92.5253 29.9789L92.5322 26.4453H92.961L96.3632 22.4138H99.7447L95.1738 27.7522H94.4754L92.5253 29.9789ZM89.8561 33.0354V18.8732H92.8019V33.0354H89.8561ZM96.4946 33.0354L93.3689 28.4092L95.3328 26.3277L99.9452 33.0354H96.4946ZM108.726 33.2359C108.048 33.2359 107.444 33.1184 106.914 32.8833C106.384 32.6435 105.964 32.2909 105.655 31.8253C105.351 31.355 105.199 30.7695 105.199 30.0688C105.199 29.4787 105.307 28.9831 105.524 28.5821C105.741 28.181 106.036 27.8583 106.409 27.6139C106.783 27.3696 107.207 27.1852 107.682 27.0607C108.161 26.9363 108.663 26.8487 109.189 26.798C109.807 26.7334 110.305 26.6735 110.683 26.6182C111.061 26.5582 111.335 26.4706 111.506 26.3554C111.676 26.2401 111.761 26.0696 111.761 25.8437V25.8022C111.761 25.3642 111.623 25.0254 111.347 24.7857C111.075 24.5459 110.687 24.4261 110.185 24.4261C109.655 24.4261 109.233 24.5436 108.919 24.7787C108.606 25.0092 108.398 25.2997 108.297 25.65L105.572 25.4288C105.711 24.7833 105.983 24.2255 106.388 23.7553C106.794 23.2805 107.317 22.9163 107.958 22.6627C108.604 22.4045 109.35 22.2755 110.199 22.2755C110.789 22.2755 111.353 22.3446 111.893 22.4829C112.437 22.6212 112.919 22.8356 113.338 23.126C113.762 23.4165 114.096 23.7899 114.341 24.2463C114.585 24.6981 114.707 25.2397 114.707 25.8713V33.0354H111.914V31.5625H111.831C111.66 31.8944 111.432 32.1871 111.146 32.4407C110.86 32.6896 110.517 32.8856 110.116 33.0285C109.715 33.1668 109.251 33.2359 108.726 33.2359ZM109.569 31.2029C110.003 31.2029 110.385 31.1176 110.717 30.947C111.049 30.7718 111.31 30.5367 111.499 30.2417C111.688 29.9466 111.782 29.6124 111.782 29.239V28.1118C111.69 28.1718 111.563 28.2271 111.402 28.2778C111.245 28.3239 111.068 28.3677 110.869 28.4092C110.671 28.4461 110.473 28.4806 110.275 28.5129C110.076 28.5406 109.897 28.5659 109.735 28.589C109.39 28.6397 109.088 28.7204 108.829 28.831C108.571 28.9416 108.371 29.0915 108.228 29.2805C108.085 29.4649 108.013 29.6954 108.013 29.972C108.013 30.3731 108.159 30.6796 108.449 30.8917C108.744 31.0992 109.118 31.2029 109.569 31.2029ZM125.414 33.2083C124.607 33.2083 123.876 33.0008 123.222 32.5859C122.572 32.1664 122.055 31.551 121.673 30.7396C121.295 29.9236 121.106 28.9232 121.106 27.7384C121.106 26.5213 121.301 25.5094 121.693 24.7027C122.085 23.8913 122.606 23.2851 123.256 22.884C123.911 22.4783 124.628 22.2755 125.407 22.2755C126.001 22.2755 126.497 22.3769 126.893 22.5797C127.295 22.778 127.617 23.0269 127.862 23.3266C128.111 23.6216 128.3 23.912 128.429 24.1979H128.519V18.8732H131.457V33.0354H128.553V31.3343H128.429C128.29 31.6293 128.094 31.9221 127.841 32.2125C127.592 32.4983 127.267 32.7357 126.866 32.9248C126.469 33.1138 125.985 33.2083 125.414 33.2083ZM126.347 30.864C126.822 30.864 127.223 30.735 127.55 30.4768C127.882 30.214 128.136 29.8475 128.311 29.3773C128.491 28.9071 128.581 28.3562 128.581 27.7246C128.581 27.093 128.493 26.5444 128.318 26.0788C128.143 25.6132 127.889 25.2536 127.557 25C127.225 24.7465 126.822 24.6197 126.347 24.6197C125.863 24.6197 125.455 24.7511 125.123 25.0138C124.791 25.2766 124.54 25.6408 124.369 26.1064C124.199 26.5721 124.114 27.1114 124.114 27.7246C124.114 28.3423 124.199 28.8886 124.369 29.3635C124.545 29.8337 124.796 30.2025 125.123 30.4699C125.455 30.7327 125.863 30.864 126.347 30.864ZM138.72 33.2429C137.628 33.2429 136.687 33.0216 135.899 32.579C135.115 32.1318 134.511 31.5002 134.087 30.6843C133.663 29.8637 133.451 28.8932 133.451 27.773C133.451 26.6804 133.663 25.7215 134.087 24.8963C134.511 24.0711 135.108 23.428 135.878 22.967C136.652 22.506 137.561 22.2755 138.603 22.2755C139.303 22.2755 139.956 22.3884 140.56 22.6143C141.168 22.8356 141.698 23.1698 142.15 23.617C142.606 24.0642 142.961 24.6266 143.215 25.3043C143.468 25.9774 143.595 26.7657 143.595 27.6693V28.4783H134.626V26.6527H140.822C140.822 26.2286 140.73 25.8529 140.546 25.5256C140.361 25.1983 140.105 24.9424 139.778 24.758C139.455 24.569 139.08 24.4745 138.651 24.4745C138.204 24.4745 137.807 24.5782 137.462 24.7857C137.12 24.9885 136.853 25.2628 136.659 25.6086C136.466 25.9497 136.367 26.33 136.362 26.7495V28.4852C136.362 29.0108 136.459 29.4649 136.652 29.8475C136.851 30.2302 137.13 30.5252 137.489 30.7327C137.849 30.9401 138.275 31.0438 138.769 31.0438C139.096 31.0438 139.395 30.9977 139.667 30.9055C139.939 30.8133 140.172 30.675 140.366 30.4906C140.56 30.3062 140.707 30.0803 140.808 29.8129L143.533 29.9927C143.395 30.6474 143.111 31.219 142.682 31.7077C142.258 32.1918 141.71 32.5698 141.037 32.8418C140.368 33.1092 139.596 33.2429 138.72 33.2429ZM145.518 33.0354V22.4138H148.325V24.2878H148.45C148.671 23.6654 149.04 23.1744 149.556 22.8148C150.072 22.4553 150.69 22.2755 151.409 22.2755C152.138 22.2755 152.758 22.4576 153.27 22.8218C153.781 23.1813 154.122 23.67 154.293 24.2878H154.404C154.62 23.6792 155.012 23.1929 155.579 22.8287C156.151 22.4599 156.826 22.2755 157.605 22.2755C158.596 22.2755 159.401 22.5912 160.019 23.2228C160.641 23.8498 160.952 24.7395 160.952 25.8921V33.0354H158.013V26.4729C158.013 25.8829 157.857 25.4403 157.543 25.1452C157.23 24.8502 156.838 24.7027 156.368 24.7027C155.833 24.7027 155.416 24.8732 155.116 25.2144C154.816 25.5509 154.666 25.9958 154.666 26.549V33.0354H151.81V26.4107C151.81 25.8898 151.661 25.4749 151.361 25.166C151.066 24.8571 150.676 24.7027 150.192 24.7027C149.865 24.7027 149.57 24.7857 149.307 24.9516C149.049 25.113 148.844 25.3412 148.692 25.6362C148.54 25.9266 148.464 26.2678 148.464 26.6597V33.0354H145.518ZM168.078 33.2429C167.004 33.2429 166.075 33.0147 165.291 32.5583C164.512 32.0972 163.911 31.4564 163.487 30.6359C163.063 29.8106 162.85 28.8541 162.85 27.7661C162.85 26.6689 163.063 25.71 163.487 24.8894C163.911 24.0642 164.512 23.4234 165.291 22.967C166.075 22.506 167.004 22.2755 168.078 22.2755C169.152 22.2755 170.079 22.506 170.858 22.967C171.642 23.4234 172.246 24.0642 172.67 24.8894C173.094 25.71 173.306 26.6689 173.306 27.7661C173.306 28.8541 173.094 29.8106 172.67 30.6359C172.246 31.4564 171.642 32.0972 170.858 32.5583C170.079 33.0147 169.152 33.2429 168.078 33.2429ZM168.092 30.9609C168.581 30.9609 168.989 30.8226 169.316 30.546C169.643 30.2647 169.89 29.8821 170.056 29.398C170.227 28.914 170.312 28.3631 170.312 27.7453C170.312 27.1276 170.227 26.5767 170.056 26.0926C169.89 25.6086 169.643 25.2259 169.316 24.9447C168.989 24.6635 168.581 24.5229 168.092 24.5229C167.599 24.5229 167.184 24.6635 166.847 24.9447C166.515 25.2259 166.264 25.6086 166.094 26.0926C165.928 26.5767 165.845 27.1276 165.845 27.7453C165.845 28.3631 165.928 28.914 166.094 29.398C166.264 29.8821 166.515 30.2647 166.847 30.546C167.184 30.8226 167.599 30.9609 168.092 30.9609Z" fill="white"/>
</svg>
