<svg width="1750" height="1100" viewBox="0 0 1750 1100" fill="none" xmlns="http://www.w3.org/2000/svg">
<path d="M496.667 95.846C545.333 143.579 600.267 196.779 601.333 197.179C602 197.313 644.533 163.979 650 158.913C650.533 158.379 638.267 138.113 622.667 113.979L594.267 70.1126L532 69.7126L469.733 69.4459L496.667 95.846Z" fill="#0076BA"/>
<path d="M669.333 191.316C654.4 194.516 639.866 207.716 635.6 221.716C633.066 230.382 633.066 243.449 635.466 250.516C637.866 257.182 768.8 482.782 776.933 494.116C795.066 519.582 819.733 535.316 861.6 547.849C939.2 571.316 1016.27 593.182 1062.27 604.782L1095.6 613.182L1148.67 668.916C1229.6 753.982 1225.6 750.116 1232.93 752.649C1249.73 758.249 1267.33 751.182 1274.8 735.716C1278.4 728.249 1278.53 715.049 1275.07 707.449C1273.6 703.982 1241.07 668.782 1183.07 607.449C1133.73 555.316 1089.2 508.649 1083.87 503.716C1072.8 493.316 1059.07 483.582 1046 477.182C1040.13 474.382 1002.4 462.916 937.066 444.116L837.066 415.449L777.733 313.316C744.933 257.182 716.933 209.316 715.2 207.049C706 194.516 686.133 187.582 669.333 191.316Z" fill="#0076BA"/>
<path d="M864.4 340.38C859.2 361.847 854.533 381.18 854.133 383.447L853.467 387.447L941.067 408.513C994.933 421.58 1028.93 429.18 1029.47 428.38C1030.67 426.247 1050.13 344.247 1049.47 343.58C1048.8 343.047 876.933 301.447 875.067 301.447C874.4 301.447 869.6 319.047 864.4 340.38Z" fill="#0076BA"/>
<path d="M1067.6 351.051C1067.33 351.984 1062.53 370.917 1057.2 393.184L1047.33 433.451L1050.53 434.251C1052.27 434.784 1058.67 434.917 1064.67 434.517C1089.6 433.184 1107.2 416.784 1107.33 394.651C1107.6 375.584 1092.27 356.651 1071.2 350.251C1069.33 349.584 1068 349.851 1067.6 351.051Z" fill="#0076BA"/>
<path d="M1175.73 424.245C1158.27 428.378 1141.07 442.378 1133.07 459.045C1115.73 495.178 1133.2 536.778 1171.07 549.445C1181.6 553.045 1198 553.312 1209.6 549.978L1217.73 547.712L1227.6 557.445C1233.07 562.912 1237.73 567.045 1238 566.645C1238.27 566.378 1246.27 556.245 1255.6 544.112C1265.07 531.978 1274.4 519.978 1276.4 517.312L1280.27 512.378L1268.27 505.445L1256.27 498.645V488.245C1256.27 458.378 1237.33 433.445 1208.4 424.912C1200.53 422.645 1184.13 422.245 1175.73 424.245Z" fill="#0076BA"/>
<path d="M379.535 999.555H349.271V906.069H380.493C389.653 906.069 397.52 907.941 404.093 911.684C410.666 915.397 415.702 920.737 419.202 927.706C422.732 934.644 424.497 942.967 424.497 952.675C424.497 962.413 422.717 970.782 419.156 977.781C415.626 984.78 410.514 990.167 403.819 993.94C397.124 997.683 389.029 999.555 379.535 999.555ZM363.376 987.23H378.759C385.88 987.23 391.799 985.891 396.515 983.213C401.232 980.505 404.762 976.594 407.106 971.482C409.449 966.339 410.62 960.07 410.62 952.675C410.62 945.341 409.449 939.118 407.106 934.005C404.793 928.893 401.339 925.013 396.744 922.365C392.148 919.718 386.443 918.394 379.626 918.394H363.376V987.23ZM440.941 999.555V929.441H454.59V999.555H440.941ZM447.834 918.622C445.461 918.622 443.422 917.831 441.717 916.249C440.044 914.636 439.207 912.719 439.207 910.497C439.207 908.245 440.044 906.328 441.717 904.746C443.422 903.133 445.461 902.326 447.834 902.326C450.208 902.326 452.232 903.133 453.905 904.746C455.609 906.328 456.462 908.245 456.462 910.497C456.462 912.719 455.609 914.636 453.905 916.249C452.232 917.831 450.208 918.622 447.834 918.622ZM532.932 929.441L507.506 999.555H492.899L467.428 929.441H482.081L499.838 983.396H500.568L518.279 929.441H532.932ZM573.592 1000.97C566.684 1000.97 560.735 999.494 555.744 996.542C550.784 993.56 546.949 989.375 544.241 983.989C541.563 978.572 540.224 972.227 540.224 964.954C540.224 957.772 541.563 951.443 544.241 945.965C546.949 940.487 550.723 936.212 555.561 933.138C560.431 930.065 566.121 928.528 572.634 928.528C576.59 928.528 580.424 929.182 584.137 930.491C587.849 931.799 591.181 933.853 594.133 936.653C597.085 939.453 599.413 943.089 601.117 947.563C602.822 952.006 603.674 957.407 603.674 963.767V968.606H547.938V958.381H590.299C590.299 954.79 589.569 951.61 588.108 948.841C586.647 946.041 584.593 943.835 581.946 942.222C579.328 940.609 576.255 939.803 572.725 939.803C568.89 939.803 565.543 940.746 562.682 942.633C559.852 944.489 557.661 946.924 556.109 949.936C554.588 952.919 553.827 956.159 553.827 959.659V967.647C553.827 972.334 554.649 976.32 556.292 979.607C557.966 982.893 560.294 985.404 563.276 987.139C566.258 988.843 569.743 989.695 573.729 989.695C576.316 989.695 578.674 989.33 580.804 988.599C582.935 987.839 584.776 986.713 586.328 985.221C587.88 983.73 589.067 981.889 589.888 979.698L602.806 982.026C601.772 985.83 599.915 989.162 597.237 992.023C594.59 994.853 591.258 997.059 587.241 998.642C583.254 1000.19 578.705 1000.97 573.592 1000.97ZM704.919 930.627C704.432 926.306 702.424 922.959 698.894 920.585C695.363 918.181 690.921 916.979 685.565 916.979C681.73 916.979 678.413 917.588 675.613 918.805C672.814 919.992 670.638 921.635 669.086 923.735C667.564 925.804 666.804 928.163 666.804 930.81C666.804 933.032 667.321 934.949 668.356 936.562C669.421 938.174 670.805 939.529 672.509 940.624C674.244 941.689 676.1 942.587 678.078 943.317C680.056 944.017 681.958 944.596 683.784 945.052L692.914 947.426C695.896 948.156 698.954 949.145 702.089 950.393C705.223 951.64 708.129 953.284 710.807 955.323C713.485 957.362 715.646 959.887 717.289 962.9C718.963 965.913 719.8 969.519 719.8 973.718C719.8 979.013 718.431 983.715 715.692 987.823C712.983 991.932 709.042 995.173 703.869 997.546C698.726 999.92 692.503 1001.11 685.199 1001.11C678.2 1001.11 672.144 999.996 667.032 997.774C661.919 995.553 657.918 992.403 655.027 988.325C652.136 984.217 650.538 979.348 650.234 973.718H664.384C664.658 977.096 665.754 979.911 667.671 982.163C669.619 984.385 672.099 986.043 675.111 987.139C678.155 988.204 681.487 988.736 685.108 988.736C689.095 988.736 692.64 988.112 695.744 986.865C698.878 985.587 701.343 983.822 703.139 981.57C704.934 979.287 705.832 976.625 705.832 973.581C705.832 970.812 705.041 968.545 703.458 966.78C701.906 965.015 699.791 963.554 697.113 962.398C694.466 961.242 691.468 960.222 688.121 959.34L677.074 956.327C669.588 954.288 663.654 951.29 659.272 947.334C654.92 943.378 652.744 938.144 652.744 931.632C652.744 926.245 654.205 921.544 657.126 917.527C660.048 913.51 664.004 910.391 668.995 908.169C673.985 905.917 679.615 904.791 685.884 904.791C692.214 904.791 697.798 905.902 702.637 908.123C707.506 910.345 711.34 913.403 714.14 917.299C716.939 921.163 718.4 925.606 718.522 930.627H704.919ZM755.964 1001.11C751.521 1001.11 747.504 1000.29 743.913 998.642C740.322 996.968 737.477 994.549 735.377 991.384C733.308 988.219 732.273 984.339 732.273 979.744C732.273 975.788 733.034 972.532 734.555 969.975C736.077 967.419 738.131 965.395 740.718 963.904C743.304 962.413 746.195 961.287 749.391 960.526C752.586 959.766 755.842 959.187 759.159 958.792C763.359 958.305 766.767 957.909 769.384 957.605C772.001 957.27 773.903 956.738 775.09 956.007C776.277 955.277 776.87 954.09 776.87 952.447V952.127C776.87 948.141 775.744 945.052 773.492 942.861C771.271 940.67 767.954 939.574 763.541 939.574C758.946 939.574 755.325 940.594 752.677 942.633C750.06 944.641 748.25 946.878 747.245 949.343L734.418 946.421C735.94 942.161 738.161 938.722 741.083 936.105C744.035 933.458 747.428 931.54 751.262 930.354C755.097 929.136 759.129 928.528 763.359 928.528C766.158 928.528 769.125 928.862 772.26 929.532C775.425 930.171 778.377 931.358 781.115 933.092C783.885 934.827 786.152 937.307 787.917 940.533C789.682 943.728 790.564 947.882 790.564 952.995V999.555H777.235V989.969H776.688C775.805 991.734 774.481 993.468 772.716 995.173C770.951 996.877 768.684 998.292 765.915 999.418C763.146 1000.54 759.829 1001.11 755.964 1001.11ZM758.931 990.151C762.704 990.151 765.93 989.406 768.608 987.915C771.317 986.424 773.371 984.476 774.771 982.072C776.201 979.637 776.916 977.035 776.916 974.266V965.228C776.429 965.715 775.486 966.171 774.086 966.597C772.716 966.993 771.149 967.343 769.384 967.647C767.619 967.921 765.9 968.18 764.226 968.423C762.552 968.636 761.152 968.819 760.026 968.971C757.379 969.306 754.96 969.869 752.769 970.66C750.608 971.451 748.873 972.592 747.565 974.084C746.287 975.544 745.648 977.492 745.648 979.926C745.648 983.304 746.895 985.861 749.391 987.595C751.886 989.299 755.066 990.151 758.931 990.151ZM842.111 929.441V940.396H802.49V929.441H842.111ZM813.354 999.555V921.315C813.354 916.933 814.312 913.297 816.23 910.406C818.147 907.484 820.688 905.309 823.853 903.878C827.017 902.418 830.456 901.687 834.169 901.687C836.908 901.687 839.251 901.915 841.199 902.372C843.146 902.798 844.592 903.194 845.535 903.559L842.34 914.605C841.701 914.423 840.879 914.21 839.875 913.966C838.871 913.692 837.653 913.555 836.223 913.555C832.906 913.555 830.532 914.377 829.102 916.02C827.702 917.664 827.002 920.037 827.002 923.141V999.555H813.354ZM883.65 1000.97C876.742 1000.97 870.793 999.494 865.802 996.542C860.842 993.56 857.008 989.375 854.299 983.989C851.621 978.572 850.282 972.227 850.282 964.954C850.282 957.772 851.621 951.443 854.299 945.965C857.008 940.487 860.781 936.212 865.62 933.138C870.489 930.065 876.179 928.528 882.692 928.528C886.648 928.528 890.482 929.182 894.195 930.491C897.908 931.799 901.24 933.853 904.192 936.653C907.143 939.453 909.471 943.089 911.176 947.563C912.88 952.006 913.732 957.407 913.732 963.767V968.606H857.997V958.381H900.357C900.357 954.79 899.627 951.61 898.166 948.841C896.705 946.041 894.651 943.835 892.004 942.222C889.387 940.609 886.313 939.803 882.783 939.803C878.949 939.803 875.601 940.746 872.741 942.633C869.911 944.489 867.72 946.924 866.168 949.936C864.646 952.919 863.885 956.159 863.885 959.659V967.647C863.885 972.334 864.707 976.32 866.35 979.607C868.024 982.893 870.352 985.404 873.334 987.139C876.316 988.843 879.801 989.695 883.787 989.695C886.374 989.695 888.732 989.33 890.863 988.599C892.993 987.839 894.834 986.713 896.386 985.221C897.938 983.73 899.125 981.889 899.946 979.698L912.865 982.026C911.83 985.83 909.974 989.162 907.296 992.023C904.648 994.853 901.316 997.059 897.299 998.642C893.312 1000.19 888.763 1000.97 883.65 1000.97ZM961.604 929.441V940.396H923.306V929.441H961.604ZM933.577 912.643H947.225V978.968C947.225 981.615 947.621 983.609 948.412 984.948C949.203 986.256 950.223 987.154 951.471 987.641C952.749 988.097 954.133 988.325 955.625 988.325C956.72 988.325 957.679 988.249 958.5 988.097C959.322 987.945 959.961 987.823 960.417 987.732L962.882 999.007C962.091 999.311 960.965 999.616 959.505 999.92C958.044 1000.25 956.218 1000.44 954.027 1000.47C950.436 1000.53 947.088 999.889 943.984 998.55C940.88 997.211 938.37 995.142 936.453 992.342C934.536 989.543 933.577 986.028 933.577 981.798V912.643ZM985.329 1025.85C983.291 1025.85 981.434 1025.68 979.76 1025.35C978.087 1025.04 976.839 1024.71 976.017 1024.34L979.304 1013.16C981.799 1013.83 984.021 1014.12 985.968 1014.02C987.916 1013.93 989.635 1013.2 991.127 1011.83C992.648 1010.46 993.987 1008.23 995.144 1005.12L996.833 1000.47L971.179 929.441H985.786L1003.54 983.852H1004.27L1022.03 929.441H1036.68L1007.79 1008.91C1006.45 1012.56 1004.74 1015.65 1002.68 1018.18C1000.61 1020.73 998.141 1022.65 995.281 1023.93C992.42 1025.21 989.103 1025.85 985.329 1025.85ZM1084.62 999.555V906.069H1117.95C1125.19 906.069 1131.2 907.317 1135.98 909.812C1140.78 912.308 1144.38 915.762 1146.75 920.174C1149.12 924.556 1150.31 929.623 1150.31 935.375C1150.31 941.096 1149.11 946.132 1146.7 950.484C1144.33 954.805 1140.74 958.168 1135.93 960.572C1131.15 962.976 1125.14 964.178 1117.9 964.178H1092.66V952.036H1116.62C1121.19 952.036 1124.9 951.382 1127.76 950.073C1130.65 948.765 1132.77 946.863 1134.1 944.367C1135.44 941.872 1136.11 938.874 1136.11 935.375C1136.11 931.845 1135.43 928.786 1134.06 926.2C1132.72 923.613 1130.61 921.635 1127.71 920.266C1124.85 918.866 1121.1 918.166 1116.44 918.166H1098.73V999.555H1084.62ZM1130.77 957.377L1153.87 999.555H1137.8L1115.16 957.377H1130.77ZM1210.79 970.477V929.441H1224.49V999.555H1211.07V987.413H1210.34C1208.72 991.156 1206.14 994.275 1202.58 996.77C1199.05 999.235 1194.65 1000.47 1189.38 1000.47C1184.88 1000.47 1180.89 999.479 1177.42 997.501C1173.99 995.492 1171.28 992.525 1169.3 988.599C1167.35 984.674 1166.38 979.82 1166.38 974.038V929.441H1180.03V972.395C1180.03 977.172 1181.35 980.976 1184 983.806C1186.64 986.637 1190.08 988.052 1194.31 988.052C1196.87 988.052 1199.41 987.413 1201.94 986.134C1204.49 984.856 1206.61 982.924 1208.28 980.337C1209.99 977.751 1210.82 974.464 1210.79 970.477ZM1256.47 906.069V999.555H1242.82V906.069H1256.47ZM1305.05 1000.97C1298.15 1000.97 1292.2 999.494 1287.21 996.542C1282.25 993.56 1278.41 989.375 1275.7 983.989C1273.02 978.572 1271.69 972.227 1271.69 964.954C1271.69 957.772 1273.02 951.443 1275.7 945.965C1278.41 940.487 1282.18 936.212 1287.02 933.138C1291.89 930.065 1297.58 928.528 1304.09 928.528C1308.05 928.528 1311.89 929.182 1315.6 930.491C1319.31 931.799 1322.64 933.853 1325.59 936.653C1328.55 939.453 1330.87 943.089 1332.58 947.563C1334.28 952.006 1335.13 957.407 1335.13 963.767V968.606H1279.4V958.381H1321.76C1321.76 954.79 1321.03 951.61 1319.57 948.841C1318.11 946.041 1316.05 943.835 1313.41 942.222C1310.79 940.609 1307.72 939.803 1304.19 939.803C1300.35 939.803 1297 940.746 1294.14 942.633C1291.31 944.489 1289.12 946.924 1287.57 949.936C1286.05 952.919 1285.29 956.159 1285.29 959.659V967.647C1285.29 972.334 1286.11 976.32 1287.75 979.607C1289.43 982.893 1291.75 985.404 1294.74 987.139C1297.72 988.843 1301.2 989.695 1305.19 989.695C1307.78 989.695 1310.14 989.33 1312.27 988.599C1314.4 987.839 1316.24 986.713 1317.79 985.221C1319.34 983.73 1320.53 981.889 1321.35 979.698L1334.27 982.026C1333.23 985.83 1331.38 989.162 1328.7 992.023C1326.05 994.853 1322.72 997.059 1318.7 998.642C1314.72 1000.19 1310.17 1000.97 1305.05 1000.97ZM1402.82 946.558L1390.45 948.749C1389.93 947.167 1389.11 945.661 1387.98 944.23C1386.89 942.8 1385.4 941.628 1383.51 940.716C1381.62 939.803 1379.26 939.346 1376.43 939.346C1372.57 939.346 1369.34 940.213 1366.76 941.948C1364.17 943.652 1362.88 945.858 1362.88 948.567C1362.88 950.91 1363.74 952.797 1365.48 954.227C1367.21 955.657 1370.01 956.829 1373.88 957.742L1385.02 960.298C1391.47 961.789 1396.28 964.087 1399.44 967.191C1402.61 970.295 1404.19 974.327 1404.19 979.287C1404.19 983.487 1402.97 987.23 1400.54 990.517C1398.13 993.773 1394.77 996.329 1390.45 998.185C1386.16 1000.04 1381.18 1000.97 1375.52 1000.97C1367.67 1000.97 1361.26 999.296 1356.3 995.949C1351.34 992.571 1348.3 987.778 1347.17 981.57L1360.37 979.561C1361.19 983 1362.88 985.602 1365.43 987.367C1367.99 989.101 1371.32 989.969 1375.43 989.969C1379.9 989.969 1383.48 989.041 1386.16 987.184C1388.83 985.298 1390.17 983 1390.17 980.292C1390.17 978.101 1389.35 976.259 1387.71 974.768C1386.1 973.277 1383.62 972.151 1380.27 971.39L1368.4 968.789C1361.86 967.297 1357.02 964.924 1353.88 961.668C1350.78 958.411 1349.23 954.288 1349.23 949.297C1349.23 945.158 1350.38 941.537 1352.7 938.433C1355.01 935.329 1358.21 932.91 1362.28 931.175C1366.36 929.41 1371.03 928.528 1376.3 928.528C1383.87 928.528 1389.84 930.171 1394.19 933.458C1398.54 936.714 1401.42 941.081 1402.82 946.558Z" fill="black"/>
</svg>
