<svg width="1750" height="1100" viewBox="0 0 1750 1100" fill="none" xmlns="http://www.w3.org/2000/svg">
<path d="M830.342 138.761C825.117 141.557 821.659 147.37 821.659 153.551C821.659 157.157 825.191 163.78 828.208 165.767C832.182 168.416 835.272 168.931 847.635 168.931H859.188V190.639C859.188 207.49 858.967 212.346 858.305 212.346C857.789 212.346 853.08 212.861 847.782 213.45C784.204 220.956 725.924 254.069 686.85 305.138C649.248 354.146 632.47 415.369 639.608 476.886C648.88 556.432 697.888 626.118 769.781 661.807C799.215 676.451 828.208 684.103 862.646 686.311C902.088 688.813 947.196 679.394 980.972 661.586C1020.49 640.762 1049.26 615.301 1072.22 580.642C1103.86 532.885 1116.81 478.8 1110.41 421.697C1104.6 369.746 1080.9 320.591 1043.37 282.326C1035.35 274.232 1034.47 273.054 1035.35 272.024C1035.94 271.362 1038.59 267.388 1041.24 263.194C1045.43 256.571 1046.09 255.026 1046.09 252.156C1046.09 248.624 1044.55 245.46 1041.83 243.547C1041.02 242.958 1031.6 236.85 1020.93 229.933L1001.58 217.35L997.381 217.645C992.157 218.012 991.274 218.748 985.166 228.167C982.591 232.214 980.309 235.673 980.162 235.82C980.015 235.967 976.63 234.643 972.656 232.803C952.347 223.311 926.886 216.32 902.971 213.45C897.746 212.861 892.963 212.346 892.522 212.346C891.786 212.346 891.565 207.49 891.565 190.712V169.078L904.663 168.784C916.437 168.563 917.982 168.416 920.779 166.944C931.743 161.057 931.596 145.236 920.632 138.982L917.688 137.289L875.376 137.363C834.978 137.363 832.918 137.436 830.342 138.761ZM901.131 245.386C925.93 248.624 951.905 256.866 972.141 267.977C978.396 271.362 996.13 283.356 1002.68 288.581C1019.82 302.342 1036.53 321.032 1048.38 339.649C1069.2 372.469 1079.94 409.776 1079.94 449.292C1079.94 492.192 1067.51 531.634 1042.93 567.029C1029.91 585.72 1010.48 605.146 992.598 617.361C978.028 627.295 974.864 629.209 964.93 634.065C920.19 655.92 868.091 660.63 820.187 647.163C787.442 637.965 756.977 620.378 732.4 596.537C699.948 565.042 679.565 525.674 672.207 480.198C670.22 468.351 669.484 442.08 670.808 429.718C676.769 370.776 706.645 318.457 754.549 283.136C776.404 267.02 804.513 254.364 831.593 248.403C852.344 243.915 880.159 242.664 901.131 245.386Z" fill="#0076BA"/>
<path d="M867.944 297.558C865.074 299.03 863.382 300.575 861.763 303.225L859.555 306.757V380.048C859.555 450.175 859.629 453.486 860.954 455.915C864.118 461.949 869.048 465.039 875.376 465.039C881.705 465.039 886.635 461.949 889.799 455.915C891.124 453.486 891.197 450.175 891.197 380.048V306.757L888.99 303.225C886.193 298.662 880.601 295.498 875.376 295.498C872.948 295.498 870.667 296.16 867.944 297.558Z" fill="#0076BA"/>
<path d="M476.535 931.711H446.271V838.226H477.493C486.653 838.226 494.52 840.097 501.093 843.84C507.666 847.553 512.702 852.894 516.202 859.862C519.732 866.801 521.497 875.124 521.497 884.831C521.497 894.569 519.717 902.938 516.156 909.937C512.626 916.936 507.514 922.323 500.819 926.096C494.124 929.839 486.029 931.711 476.535 931.711ZM460.376 919.386H475.759C482.88 919.386 488.799 918.047 493.515 915.369C498.232 912.661 501.762 908.75 504.106 903.638C506.449 898.495 507.62 892.226 507.62 884.831C507.62 877.497 506.449 871.274 504.106 866.162C501.793 861.049 498.339 857.169 493.744 854.522C489.148 851.874 483.443 850.55 476.626 850.55H460.376V919.386ZM537.941 931.711V861.597H551.59V931.711H537.941ZM544.834 850.779C542.461 850.779 540.422 849.987 538.717 848.405C537.044 846.792 536.207 844.875 536.207 842.653C536.207 840.401 537.044 838.484 538.717 836.902C540.422 835.289 542.461 834.483 544.834 834.483C547.208 834.483 549.232 835.289 550.905 836.902C552.609 838.484 553.462 840.401 553.462 842.653C553.462 844.875 552.609 846.792 550.905 848.405C549.232 849.987 547.208 850.779 544.834 850.779ZM629.932 861.597L604.506 931.711H589.899L564.428 861.597H579.081L596.838 915.552H597.568L615.279 861.597H629.932ZM670.592 933.126C663.684 933.126 657.735 931.65 652.744 928.698C647.784 925.716 643.949 921.532 641.241 916.145C638.563 910.728 637.224 904.384 637.224 897.11C637.224 889.929 638.563 883.599 641.241 878.121C643.949 872.644 647.723 868.368 652.561 865.294C657.431 862.221 663.121 860.684 669.634 860.684C673.59 860.684 677.424 861.338 681.137 862.647C684.849 863.955 688.181 866.009 691.133 868.809C694.085 871.609 696.413 875.245 698.117 879.719C699.822 884.162 700.674 889.563 700.674 895.924V900.762H644.938V890.537H687.299C687.299 886.946 686.569 883.766 685.108 880.997C683.647 878.197 681.593 875.991 678.946 874.378C676.328 872.765 673.255 871.959 669.725 871.959C665.89 871.959 662.543 872.902 659.682 874.789C656.852 876.645 654.661 879.08 653.109 882.092C651.588 885.075 650.827 888.316 650.827 891.815V899.804C650.827 904.49 651.649 908.477 653.292 911.763C654.966 915.05 657.294 917.56 660.276 919.295C663.258 920.999 666.743 921.851 670.729 921.851C673.316 921.851 675.674 921.486 677.804 920.756C679.935 919.995 681.776 918.869 683.328 917.378C684.88 915.887 686.067 914.045 686.888 911.854L699.806 914.182C698.772 917.986 696.915 921.319 694.237 924.179C691.59 927.009 688.258 929.216 684.241 930.798C680.254 932.35 675.705 933.126 670.592 933.126ZM801.919 862.784C801.432 858.462 799.424 855.115 795.894 852.741C792.363 850.337 787.921 849.135 782.565 849.135C778.73 849.135 775.413 849.744 772.613 850.961C769.814 852.148 767.638 853.791 766.086 855.891C764.564 857.96 763.804 860.319 763.804 862.966C763.804 865.188 764.321 867.105 765.356 868.718C766.421 870.331 767.805 871.685 769.509 872.78C771.244 873.846 773.1 874.743 775.078 875.474C777.056 876.174 778.958 876.752 780.784 877.208L789.914 879.582C792.896 880.312 795.954 881.301 799.089 882.549C802.223 883.797 805.129 885.44 807.807 887.479C810.485 889.518 812.646 892.044 814.289 895.056C815.963 898.069 816.8 901.675 816.8 905.875C816.8 911.17 815.431 915.871 812.692 919.98C809.983 924.088 806.042 927.329 800.869 929.702C795.726 932.076 789.503 933.263 782.199 933.263C775.2 933.263 769.144 932.152 764.032 929.931C758.919 927.709 754.918 924.56 752.027 920.482C749.136 916.373 747.538 911.504 747.234 905.875H761.384C761.658 909.253 762.754 912.067 764.671 914.319C766.619 916.541 769.099 918.199 772.111 919.295C775.155 920.36 778.487 920.893 782.108 920.893C786.095 920.893 789.64 920.269 792.744 919.021C795.878 917.743 798.343 915.978 800.139 913.726C801.934 911.444 802.832 908.781 802.832 905.738C802.832 902.968 802.041 900.701 800.458 898.936C798.906 897.171 796.791 895.711 794.113 894.554C791.466 893.398 788.468 892.378 785.121 891.496L774.074 888.483C766.588 886.444 760.654 883.447 756.272 879.491C751.92 875.535 749.744 870.3 749.744 863.788C749.744 858.402 751.205 853.7 754.126 849.683C757.048 845.666 761.004 842.547 765.995 840.325C770.985 838.073 776.615 836.947 782.884 836.947C789.214 836.947 794.798 838.058 799.637 840.28C804.506 842.501 808.34 845.56 811.14 849.455C813.939 853.32 815.4 857.763 815.522 862.784H801.919ZM862.093 933.126C855.307 933.126 849.464 931.589 844.565 928.516C839.696 925.412 835.953 921.136 833.336 915.689C830.718 910.242 829.41 904.003 829.41 896.973C829.41 889.852 830.749 883.568 833.427 878.121C836.105 872.644 839.878 868.368 844.747 865.294C849.616 862.221 855.353 860.684 861.956 860.684C867.282 860.684 872.029 861.673 876.198 863.651C880.367 865.599 883.73 868.337 886.286 871.868C888.873 875.398 890.41 879.521 890.897 884.238H877.613C876.883 880.951 875.209 878.121 872.592 875.748C870.005 873.374 866.536 872.187 862.185 872.187C858.381 872.187 855.048 873.191 852.188 875.2C849.358 877.178 847.151 880.008 845.569 883.69C843.987 887.342 843.195 891.663 843.195 896.654C843.195 901.766 843.971 906.179 845.523 909.892C847.075 913.604 849.266 916.48 852.097 918.519C854.957 920.558 858.32 921.577 862.185 921.577C864.771 921.577 867.114 921.106 869.214 920.162C871.344 919.188 873.125 917.804 874.555 916.008C876.016 914.213 877.035 912.052 877.613 909.526H890.897C890.41 914.061 888.934 918.108 886.469 921.669C884.004 925.229 880.702 928.029 876.563 930.068C872.455 932.107 867.632 933.126 862.093 933.126ZM919.141 890.081V931.711H905.492V838.226H918.958V873.009H919.826C921.469 869.235 923.979 866.238 927.357 864.016C930.735 861.795 935.148 860.684 940.595 860.684C945.403 860.684 949.603 861.673 953.194 863.651C956.815 865.629 959.615 868.581 961.593 872.507C963.601 876.402 964.605 881.271 964.605 887.114V931.711H950.957V888.757C950.957 883.614 949.633 879.628 946.986 876.797C944.338 873.937 940.656 872.507 935.939 872.507C932.713 872.507 929.822 873.191 927.266 874.561C924.74 875.93 922.747 877.939 921.286 880.586C919.856 883.203 919.141 886.368 919.141 890.081ZM1013.04 933.126C1006.13 933.126 1000.18 931.65 995.189 928.698C990.229 925.716 986.394 921.532 983.686 916.145C981.008 910.728 979.669 904.384 979.669 897.11C979.669 889.929 981.008 883.599 983.686 878.121C986.394 872.644 990.168 868.368 995.006 865.294C999.875 862.221 1005.57 860.684 1012.08 860.684C1016.03 860.684 1019.87 861.338 1023.58 862.647C1027.29 863.955 1030.63 866.009 1033.58 868.809C1036.53 871.609 1038.86 875.245 1040.56 879.719C1042.27 884.162 1043.12 889.563 1043.12 895.924V900.762H987.383V890.537H1029.74C1029.74 886.946 1029.01 883.766 1027.55 880.997C1026.09 878.197 1024.04 875.991 1021.39 874.378C1018.77 872.765 1015.7 871.959 1012.17 871.959C1008.34 871.959 1004.99 872.902 1002.13 874.789C999.297 876.645 997.106 879.08 995.554 882.092C994.033 885.075 993.272 888.316 993.272 891.815V899.804C993.272 904.49 994.093 908.477 995.737 911.763C997.411 915.05 999.739 917.56 1002.72 919.295C1005.7 920.999 1009.19 921.851 1013.17 921.851C1015.76 921.851 1018.12 921.486 1020.25 920.756C1022.38 919.995 1024.22 918.869 1025.77 917.378C1027.32 915.887 1028.51 914.045 1029.33 911.854L1042.25 914.182C1041.22 917.986 1039.36 921.319 1036.68 924.179C1034.03 927.009 1030.7 929.216 1026.69 930.798C1022.7 932.35 1018.15 933.126 1013.04 933.126ZM1084.51 933.08C1078.85 933.08 1073.8 931.635 1069.35 928.744C1064.94 925.822 1061.47 921.669 1058.95 916.282C1056.45 910.865 1055.2 904.368 1055.2 896.791C1055.2 889.213 1056.47 882.732 1058.99 877.345C1061.55 871.959 1065.05 867.835 1069.49 864.975C1073.93 862.114 1078.97 860.684 1084.6 860.684C1088.95 860.684 1092.45 861.414 1095.1 862.875C1097.78 864.305 1099.85 865.979 1101.31 867.896C1102.8 869.813 1103.95 871.502 1104.78 872.963H1105.6V838.226H1119.25V931.711H1105.92V920.801H1104.78C1103.95 922.292 1102.77 923.997 1101.22 925.914C1099.69 927.831 1097.59 929.505 1094.92 930.935C1092.24 932.365 1088.77 933.08 1084.51 933.08ZM1087.52 921.44C1091.45 921.44 1094.76 920.406 1097.47 918.336C1100.21 916.237 1102.28 913.33 1103.68 909.618C1105.11 905.905 1105.83 901.584 1105.83 896.654C1105.83 891.785 1105.13 887.524 1103.73 883.873C1102.33 880.221 1100.27 877.376 1097.56 875.337C1094.86 873.298 1091.51 872.278 1087.52 872.278C1083.41 872.278 1079.99 873.343 1077.25 875.474C1074.51 877.604 1072.44 880.51 1071.04 884.192C1069.67 887.874 1068.99 892.028 1068.99 896.654C1068.99 901.34 1069.69 905.555 1071.09 909.298C1072.49 913.041 1074.56 916.008 1077.3 918.199C1080.07 920.36 1083.47 921.44 1087.52 921.44ZM1183.14 902.634V861.597H1196.84V931.711H1183.42V919.569H1182.68C1181.07 923.312 1178.49 926.431 1174.92 928.926C1171.39 931.391 1167 932.624 1161.73 932.624C1157.23 932.624 1153.24 931.635 1149.77 929.657C1146.33 927.648 1143.63 924.681 1141.65 920.756C1139.7 916.83 1138.73 911.976 1138.73 906.194V861.597H1152.37V904.551C1152.37 909.329 1153.7 913.133 1156.35 915.963C1158.99 918.793 1162.43 920.208 1166.66 920.208C1169.22 920.208 1171.76 919.569 1174.29 918.291C1176.84 917.013 1178.96 915.08 1180.63 912.493C1182.33 909.907 1183.17 906.62 1183.14 902.634ZM1228.82 838.226V931.711H1215.17V838.226H1228.82ZM1277.4 933.126C1270.49 933.126 1264.55 931.65 1259.55 928.698C1254.59 925.716 1250.76 921.532 1248.05 916.145C1245.37 910.728 1244.03 904.384 1244.03 897.11C1244.03 889.929 1245.37 883.599 1248.05 878.121C1250.76 872.644 1254.53 868.368 1259.37 865.294C1264.24 862.221 1269.93 860.684 1276.44 860.684C1280.4 860.684 1284.23 861.338 1287.95 862.647C1291.66 863.955 1294.99 866.009 1297.94 868.809C1300.9 871.609 1303.22 875.245 1304.93 879.719C1306.63 884.162 1307.48 889.563 1307.48 895.924V900.762H1251.75V890.537H1294.11C1294.11 886.946 1293.38 883.766 1291.92 880.997C1290.46 878.197 1288.4 875.991 1285.76 874.378C1283.14 872.765 1280.07 871.959 1276.54 871.959C1272.7 871.959 1269.35 872.902 1266.49 874.789C1263.66 876.645 1261.47 879.08 1259.92 882.092C1258.4 885.075 1257.64 888.316 1257.64 891.815V899.804C1257.64 904.49 1258.46 908.477 1260.1 911.763C1261.78 915.05 1264.1 917.56 1267.09 919.295C1270.07 920.999 1273.55 921.851 1277.54 921.851C1280.13 921.851 1282.48 921.486 1284.61 920.756C1286.74 919.995 1288.59 918.869 1290.14 917.378C1291.69 915.887 1292.88 914.045 1293.7 911.854L1306.62 914.182C1305.58 917.986 1303.73 921.319 1301.05 924.179C1298.4 927.009 1295.07 929.216 1291.05 930.798C1287.06 932.35 1282.52 933.126 1277.4 933.126Z" fill="black"/>
</svg>
