<svg width="1750" height="1100" viewBox="0 0 1750 1100" fill="none" xmlns="http://www.w3.org/2000/svg">
<path d="M842.351 209.833C837.968 211.711 837.551 216.511 840.542 228.893C843.533 241.137 844.298 248.928 843.881 262.284C843.394 278.91 840.612 290.666 833.933 304.857C823.916 326.074 807.986 341.517 790.526 347.152C773.83 352.508 687.571 374.351 596.094 396.403C539.748 409.968 528.2 412.055 518.252 410.525C511.226 409.412 508.722 407.742 503.087 400.647C482.636 374.56 456.48 348.404 430.184 327.744C383.646 291.153 323.404 260.475 317.282 270.214C316.239 271.745 317.491 273.484 331.473 290.04C381.42 349.309 411.193 395.916 419.472 427.777C421.072 433.829 421.211 435.498 420.863 442.594C419.958 461.515 412.098 484.541 391.924 527.81C387.472 537.479 382.811 546.661 380.724 550.279C379.542 552.296 378.777 554.383 378.985 555.009C379.194 555.566 380.516 556.539 381.907 557.096C386.15 558.835 397.768 556.539 408.341 551.809C417.454 547.705 436.932 535.183 437.836 532.818C438.045 532.262 441.454 529.131 445.488 525.792C461.836 512.227 482.566 491.08 498.009 472.158C505.661 462.837 507.261 461.376 512.687 458.663C519.852 455.046 527.157 453.654 540.095 453.237C553.452 452.82 563.956 453.933 576.338 457.133C580.721 458.246 591.642 461.098 600.616 463.463C685.693 485.584 814.038 505.897 914.697 513.201C935.566 514.732 935.914 514.732 935.914 516.262C935.914 516.958 934.662 522.036 933.132 527.531C928.332 544.435 919.358 560.992 901.271 586.243C888.611 603.843 885.828 610.243 889.376 613.443C891.671 615.46 900.019 615.599 909.271 613.721C942.244 607.043 974.244 590.974 1010.35 562.939C1025.37 551.253 1043.25 535.462 1044.29 532.957C1044.57 532.401 1048.12 528.714 1052.16 524.818L1059.53 517.723H1065.72C1072.75 517.723 1095.98 516.679 1113.65 515.566C1186.55 511.114 1252.29 499.497 1307.39 481.41C1332.5 473.202 1337.99 470.558 1337.99 467.08C1337.99 462.489 1331.59 459.219 1305.99 450.663C1289.58 445.237 1288.26 444.681 1288.26 443.15C1288.26 441.898 1288.67 441.481 1290.34 441.342C1293.33 441.063 1305.3 443.359 1324.22 447.741C1333.33 449.898 1342.86 451.915 1345.44 452.333C1352.6 453.376 1367.63 453.167 1374.58 451.985C1386.62 449.898 1390.58 448.298 1402.97 440.785C1424.74 427.707 1434.2 418.594 1432.88 411.986C1431.07 403.081 1401.92 386.734 1361.99 372.334C1302.03 350.7 1223.98 334.491 1143.21 326.839C1107.25 323.431 1086.38 322.318 1043.04 321.552C1005.34 320.857 998.035 320.37 987.809 317.726C975.635 314.666 970.348 311.048 961.931 300.127C939.323 270.91 913.028 245.45 887.567 228.198C872.333 217.902 861.481 212.198 852.716 209.902C847.846 208.65 845.133 208.65 842.351 209.833Z" fill="#0076BA"/>
<path d="M178.771 860.047V766.562H237.382V778.704H192.876V807.187H234.323V819.284H192.876V847.905H237.929V860.047H178.771ZM268.775 818.417V860.047H255.127V789.933H268.228V801.345H269.095C270.708 797.632 273.234 794.65 276.672 792.398C280.142 790.146 284.508 789.02 289.773 789.02C294.551 789.02 298.735 790.024 302.326 792.033C305.917 794.011 308.701 796.963 310.679 800.888C312.658 804.814 313.647 809.668 313.647 815.45V860.047H299.998V817.093C299.998 812.011 298.674 808.04 296.027 805.179C293.379 802.288 289.743 800.843 285.117 800.843C281.952 800.843 279.137 801.527 276.672 802.897C274.238 804.266 272.305 806.275 270.875 808.922C269.475 811.539 268.775 814.704 268.775 818.417ZM389.421 789.933L363.995 860.047H349.388L323.917 789.933H338.57L356.327 843.888H357.057L374.768 789.933H389.421ZM402.248 860.047V789.933H415.896V860.047H402.248ZM409.14 779.114C406.767 779.114 404.728 778.323 403.024 776.741C401.35 775.128 400.513 773.211 400.513 770.989C400.513 768.737 401.35 766.82 403.024 765.238C404.728 763.625 406.767 762.818 409.14 762.818C411.514 762.818 413.538 763.625 415.211 765.238C416.916 766.82 417.768 768.737 417.768 770.989C417.768 773.211 416.916 775.128 415.211 776.741C413.538 778.323 411.514 779.114 409.14 779.114ZM434.258 860.047V789.933H447.45V801.071H448.18C449.458 797.297 451.71 794.33 454.936 792.17C458.192 789.978 461.874 788.883 465.982 788.883C466.835 788.883 467.839 788.913 468.995 788.974C470.182 789.035 471.11 789.111 471.78 789.202V802.258C471.232 802.105 470.258 801.938 468.858 801.755C467.458 801.542 466.059 801.436 464.659 801.436C461.433 801.436 458.557 802.121 456.031 803.49C453.536 804.829 451.558 806.701 450.097 809.105C448.637 811.478 447.906 814.187 447.906 817.23V860.047H434.258ZM510.614 861.462C504.041 861.462 498.304 859.956 493.405 856.943C488.506 853.93 484.702 849.715 481.993 844.299C479.285 838.882 477.931 832.552 477.931 825.309C477.931 818.036 479.285 811.676 481.993 806.229C484.702 800.782 488.506 796.552 493.405 793.539C498.304 790.526 504.041 789.02 510.614 789.02C517.187 789.02 522.924 790.526 527.823 793.539C532.722 796.552 536.526 800.782 539.235 806.229C541.943 811.676 543.297 818.036 543.297 825.309C543.297 832.552 541.943 838.882 539.235 844.299C536.526 849.715 532.722 853.93 527.823 856.943C522.924 859.956 517.187 861.462 510.614 861.462ZM510.66 850.005C514.92 850.005 518.45 848.879 521.25 846.627C524.049 844.375 526.119 841.377 527.458 837.634C528.827 833.891 529.512 829.768 529.512 825.264C529.512 820.79 528.827 816.682 527.458 812.939C526.119 809.166 524.049 806.138 521.25 803.855C518.45 801.573 514.92 800.432 510.66 800.432C506.369 800.432 502.808 801.573 499.978 803.855C497.179 806.138 495.094 809.166 493.725 812.939C492.386 816.682 491.716 820.79 491.716 825.264C491.716 829.768 492.386 833.891 493.725 837.634C495.094 841.377 497.179 844.375 499.978 846.627C502.808 848.879 506.369 850.005 510.66 850.005ZM572.181 818.417V860.047H558.532V789.933H571.633V801.345H572.5C574.113 797.632 576.639 794.65 580.078 792.398C583.547 790.146 587.914 789.02 593.178 789.02C597.956 789.02 602.14 790.024 605.731 792.033C609.322 794.011 612.107 796.963 614.085 800.888C616.063 804.814 617.052 809.668 617.052 815.45V860.047H603.403V817.093C603.403 812.011 602.079 808.04 599.432 805.179C596.784 802.288 593.148 800.843 588.522 800.843C585.357 800.843 582.542 801.527 580.078 802.897C577.643 804.266 575.711 806.275 574.28 808.922C572.88 811.539 572.181 814.704 572.181 818.417ZM635.356 860.047V789.933H648.457V801.345H649.324C650.785 797.48 653.174 794.467 656.491 792.307C659.808 790.115 663.779 789.02 668.405 789.02C673.091 789.02 677.017 790.115 680.182 792.307C683.377 794.498 685.735 797.51 687.257 801.345H687.987C689.661 797.602 692.324 794.619 695.976 792.398C699.627 790.146 703.979 789.02 709.031 789.02C715.391 789.02 720.579 791.013 724.596 795C728.644 798.986 730.667 804.996 730.667 813.03V860.047H717.019V814.308C717.019 809.561 715.726 806.122 713.139 803.992C710.552 801.862 707.464 800.797 703.873 800.797C699.43 800.797 695.976 802.166 693.511 804.905C691.046 807.614 689.813 811.098 689.813 815.358V860.047H676.21V813.441C676.21 809.637 675.024 806.579 672.65 804.266C670.276 801.953 667.188 800.797 663.384 800.797C660.797 800.797 658.408 801.482 656.217 802.851C654.056 804.19 652.307 806.062 650.968 808.466C649.659 810.87 649.005 813.654 649.005 816.819V860.047H635.356ZM779.179 861.462C772.271 861.462 766.322 859.986 761.331 857.034C756.371 854.052 752.536 849.868 749.828 844.481C747.15 839.064 745.811 832.719 745.811 825.446C745.811 818.265 747.15 811.935 749.828 806.457C752.536 800.979 756.31 796.704 761.148 793.63C766.017 790.557 771.708 789.02 778.22 789.02C782.177 789.02 786.011 789.674 789.724 790.983C793.436 792.291 796.768 794.345 799.72 797.145C802.672 799.945 805 803.581 806.704 808.055C808.408 812.498 809.26 817.899 809.26 824.26V829.098H753.525V818.873H795.886C795.886 815.282 795.156 812.102 793.695 809.333C792.234 806.533 790.18 804.327 787.532 802.714C784.915 801.101 781.842 800.295 778.312 800.295C774.477 800.295 771.13 801.238 768.269 803.125C765.439 804.981 763.248 807.416 761.696 810.428C760.175 813.411 759.414 816.652 759.414 820.151V828.14C759.414 832.826 760.235 836.812 761.879 840.099C763.552 843.386 765.88 845.896 768.863 847.631C771.845 849.335 775.329 850.187 779.316 850.187C781.903 850.187 784.261 849.822 786.391 849.092C788.521 848.331 790.363 847.205 791.915 845.714C793.467 844.223 794.653 842.381 795.475 840.19L808.393 842.518C807.359 846.322 805.502 849.655 802.824 852.515C800.177 855.345 796.844 857.551 792.828 859.134C788.841 860.686 784.291 861.462 779.179 861.462ZM838.052 818.417V860.047H824.404V789.933H837.505V801.345H838.372C839.985 797.632 842.511 794.65 845.949 792.398C849.419 790.146 853.785 789.02 859.05 789.02C863.828 789.02 868.012 790.024 871.603 792.033C875.194 794.011 877.978 796.963 879.956 800.888C881.935 804.814 882.924 809.668 882.924 815.45V860.047H869.275V817.093C869.275 812.011 867.951 808.04 865.304 805.179C862.656 802.288 859.02 800.843 854.394 800.843C851.229 800.843 848.414 801.527 845.949 802.897C843.515 804.266 841.582 806.275 840.152 808.922C838.752 811.539 838.052 814.704 838.052 818.417ZM933.957 789.933V800.888H895.659V789.933H933.957ZM905.93 773.135H919.578V839.46C919.578 842.108 919.974 844.101 920.765 845.44C921.556 846.748 922.576 847.646 923.823 848.133C925.102 848.589 926.486 848.818 927.977 848.818C929.073 848.818 930.031 848.742 930.853 848.589C931.675 848.437 932.314 848.316 932.77 848.224L935.235 859.499C934.444 859.803 933.318 860.108 931.857 860.412C930.397 860.747 928.571 860.929 926.38 860.96C922.789 861.021 919.441 860.382 916.337 859.043C913.233 857.704 910.723 855.634 908.805 852.835C906.888 850.035 905.93 846.52 905.93 842.29V773.135ZM969.459 861.599C965.016 861.599 960.999 860.777 957.408 859.134C953.817 857.46 950.972 855.041 948.872 851.876C946.803 848.711 945.768 844.831 945.768 840.236C945.768 836.28 946.529 833.024 948.051 830.468C949.572 827.911 951.626 825.888 954.213 824.396C956.8 822.905 959.691 821.779 962.886 821.019C966.081 820.258 969.337 819.68 972.654 819.284C976.854 818.797 980.262 818.401 982.879 818.097C985.496 817.762 987.398 817.23 988.585 816.499C989.772 815.769 990.366 814.582 990.366 812.939V812.619C990.366 808.633 989.24 805.544 986.988 803.353C984.766 801.162 981.449 800.067 977.037 800.067C972.441 800.067 968.82 801.086 966.173 803.125C963.555 805.133 961.745 807.37 960.741 809.835L947.914 806.914C949.435 802.653 951.657 799.214 954.578 796.597C957.53 793.95 960.923 792.033 964.757 790.846C968.592 789.629 972.624 789.02 976.854 789.02C979.654 789.02 982.621 789.355 985.755 790.024C988.92 790.663 991.872 791.85 994.611 793.585C997.38 795.319 999.647 797.799 1001.41 801.025C1003.18 804.22 1004.06 808.374 1004.06 813.487V860.047H990.731V850.461H990.183C989.3 852.226 987.977 853.961 986.212 855.665C984.447 857.369 982.179 858.784 979.41 859.91C976.641 861.036 973.324 861.599 969.459 861.599ZM972.426 850.644C976.2 850.644 979.425 849.898 982.103 848.407C984.812 846.916 986.866 844.968 988.266 842.564C989.696 840.13 990.411 837.528 990.411 834.758V825.72C989.924 826.207 988.981 826.664 987.581 827.09C986.212 827.485 984.644 827.835 982.879 828.14C981.114 828.413 979.395 828.672 977.721 828.916C976.048 829.129 974.648 829.311 973.522 829.463C970.874 829.798 968.455 830.361 966.264 831.152C964.103 831.943 962.369 833.085 961.06 834.576C959.782 836.036 959.143 837.984 959.143 840.419C959.143 843.796 960.391 846.353 962.886 848.087C965.381 849.791 968.561 850.644 972.426 850.644ZM1035.89 766.562V860.047H1022.24V766.562H1035.89ZM1089.36 860.047V766.562H1122.69C1129.93 766.562 1135.94 767.809 1140.72 770.305C1145.52 772.8 1149.11 776.254 1151.49 780.666C1153.86 785.049 1155.05 790.115 1155.05 795.867C1155.05 801.588 1153.85 806.624 1151.44 810.976C1149.07 815.297 1145.48 818.66 1140.67 821.064C1135.89 823.468 1129.88 824.67 1122.64 824.67H1097.4V812.528H1121.36C1125.93 812.528 1129.64 811.874 1132.5 810.565C1135.39 809.257 1137.51 807.355 1138.84 804.859C1140.18 802.364 1140.85 799.367 1140.85 795.867C1140.85 792.337 1140.17 789.279 1138.8 786.692C1137.46 784.105 1135.34 782.127 1132.45 780.758C1129.59 779.358 1125.83 778.658 1121.18 778.658H1103.47V860.047H1089.36ZM1135.51 817.869L1158.61 860.047H1142.54L1119.9 817.869H1135.51ZM1200.46 861.462C1193.55 861.462 1187.6 859.986 1182.61 857.034C1177.65 854.052 1173.81 849.868 1171.11 844.481C1168.43 839.064 1167.09 832.719 1167.09 825.446C1167.09 818.265 1168.43 811.935 1171.11 806.457C1173.81 800.979 1177.59 796.704 1182.43 793.63C1187.29 790.557 1192.99 789.02 1199.5 789.02C1203.45 789.02 1207.29 789.674 1211 790.983C1214.71 792.291 1218.05 794.345 1221 797.145C1223.95 799.945 1226.28 803.581 1227.98 808.055C1229.69 812.498 1230.54 817.899 1230.54 824.26V829.098H1174.8V818.873H1217.16C1217.16 815.282 1216.43 812.102 1214.97 809.333C1213.51 806.533 1211.46 804.327 1208.81 802.714C1206.19 801.101 1203.12 800.295 1199.59 800.295C1195.75 800.295 1192.41 801.238 1189.55 803.125C1186.72 804.981 1184.53 807.416 1182.97 810.428C1181.45 813.411 1180.69 816.652 1180.69 820.151V828.14C1180.69 832.826 1181.51 836.812 1183.16 840.099C1184.83 843.386 1187.16 845.896 1190.14 847.631C1193.12 849.335 1196.61 850.187 1200.59 850.187C1203.18 850.187 1205.54 849.822 1207.67 849.092C1209.8 848.331 1211.64 847.205 1213.19 845.714C1214.74 844.223 1215.93 842.381 1216.75 840.19L1229.67 842.518C1228.64 846.322 1226.78 849.655 1224.1 852.515C1221.45 855.345 1218.12 857.551 1214.11 859.134C1210.12 860.686 1205.57 861.462 1200.46 861.462ZM1298.22 807.051L1285.85 809.242C1285.33 807.659 1284.51 806.153 1283.39 804.723C1282.29 803.292 1280.8 802.121 1278.91 801.208C1277.03 800.295 1274.67 799.838 1271.84 799.838C1267.97 799.838 1264.75 800.706 1262.16 802.44C1259.57 804.144 1258.28 806.351 1258.28 809.059C1258.28 811.402 1259.15 813.289 1260.88 814.719C1262.62 816.15 1265.42 817.321 1269.28 818.234L1280.42 820.79C1286.87 822.281 1291.68 824.579 1294.84 827.683C1298.01 830.787 1299.59 834.819 1299.59 839.78C1299.59 843.979 1298.37 847.722 1295.94 851.009C1293.53 854.265 1290.17 856.821 1285.85 858.677C1281.56 860.534 1276.58 861.462 1270.92 861.462C1263.07 861.462 1256.67 859.788 1251.71 856.441C1246.75 853.063 1243.7 848.27 1242.58 842.062L1255.77 840.053C1256.59 843.492 1258.28 846.094 1260.84 847.859C1263.39 849.594 1266.72 850.461 1270.83 850.461C1275.31 850.461 1278.88 849.533 1281.56 847.676C1284.24 845.79 1285.58 843.492 1285.58 840.784C1285.58 838.593 1284.76 836.752 1283.11 835.26C1281.5 833.769 1279.02 832.643 1275.67 831.883L1263.8 829.281C1257.26 827.79 1252.42 825.416 1249.29 822.16C1246.18 818.904 1244.63 814.78 1244.63 809.789C1244.63 805.651 1245.79 802.029 1248.1 798.925C1250.41 795.821 1253.61 793.402 1257.69 791.667C1261.76 789.902 1266.44 789.02 1271.7 789.02C1279.28 789.02 1285.24 790.663 1289.59 793.95C1293.95 797.206 1296.82 801.573 1298.22 807.051ZM1314.6 886.34V789.933H1327.93V801.299H1329.07C1329.86 799.838 1331 798.149 1332.49 796.232C1333.98 794.315 1336.05 792.641 1338.7 791.211C1341.35 789.75 1344.85 789.02 1349.2 789.02C1354.86 789.02 1359.91 790.45 1364.35 793.311C1368.8 796.171 1372.28 800.295 1374.81 805.681C1377.36 811.067 1378.64 817.549 1378.64 825.127C1378.64 832.704 1377.38 839.201 1374.85 844.618C1372.33 850.005 1368.86 854.158 1364.44 857.08C1360.03 859.971 1354.99 861.416 1349.33 861.416C1345.07 861.416 1341.59 860.701 1338.88 859.271C1336.2 857.841 1334.1 856.167 1332.58 854.25C1331.06 852.333 1329.89 850.628 1329.07 849.137H1328.25V886.34H1314.6ZM1327.97 824.99C1327.97 829.92 1328.69 834.241 1330.12 837.954C1331.55 841.666 1333.62 844.572 1336.33 846.672C1339.03 848.742 1342.35 849.776 1346.28 849.776C1350.35 849.776 1353.76 848.696 1356.5 846.535C1359.24 844.344 1361.31 841.377 1362.71 837.634C1364.14 833.891 1364.85 829.676 1364.85 824.99C1364.85 820.364 1364.15 816.21 1362.75 812.528C1361.39 808.846 1359.32 805.94 1356.55 803.81C1353.81 801.679 1350.38 800.614 1346.28 800.614C1342.32 800.614 1338.97 801.634 1336.23 803.673C1333.53 805.712 1331.47 808.557 1330.07 812.209C1328.67 815.86 1327.97 820.121 1327.97 824.99ZM1424.15 861.462C1417.24 861.462 1411.29 859.986 1406.3 857.034C1401.34 854.052 1397.51 849.868 1394.8 844.481C1392.12 839.064 1390.78 832.719 1390.78 825.446C1390.78 818.265 1392.12 811.935 1394.8 806.457C1397.51 800.979 1401.28 796.704 1406.12 793.63C1410.99 790.557 1416.68 789.02 1423.19 789.02C1427.15 789.02 1430.98 789.674 1434.69 790.983C1438.41 792.291 1441.74 794.345 1444.69 797.145C1447.64 799.945 1449.97 803.581 1451.68 808.055C1453.38 812.498 1454.23 817.899 1454.23 824.26V829.098H1398.5V818.873H1440.86C1440.86 815.282 1440.13 812.102 1438.67 809.333C1437.21 806.533 1435.15 804.327 1432.5 802.714C1429.89 801.101 1426.81 800.295 1423.28 800.295C1419.45 800.295 1416.1 801.238 1413.24 803.125C1410.41 804.981 1408.22 807.416 1406.67 810.428C1405.15 813.411 1404.39 816.652 1404.39 820.151V828.14C1404.39 832.826 1405.21 836.812 1406.85 840.099C1408.52 843.386 1410.85 845.896 1413.83 847.631C1416.82 849.335 1420.3 850.187 1424.29 850.187C1426.87 850.187 1429.23 849.822 1431.36 849.092C1433.49 848.331 1435.33 847.205 1436.89 845.714C1438.44 844.223 1439.62 842.381 1440.45 840.19L1453.36 842.518C1452.33 846.322 1450.47 849.655 1447.8 852.515C1445.15 855.345 1441.82 857.551 1437.8 859.134C1433.81 860.686 1429.26 861.462 1424.15 861.462ZM1498.91 861.462C1492.12 861.462 1486.28 859.925 1481.38 856.852C1476.51 853.748 1472.77 849.472 1470.15 844.025C1467.53 838.577 1466.23 832.339 1466.23 825.309C1466.23 818.188 1467.56 811.904 1470.24 806.457C1472.92 800.979 1476.69 796.704 1481.56 793.63C1486.43 790.557 1492.17 789.02 1498.77 789.02C1504.1 789.02 1508.84 790.009 1513.01 791.987C1517.18 793.935 1520.55 796.673 1523.1 800.203C1525.69 803.734 1527.23 807.857 1527.71 812.574H1514.43C1513.7 809.287 1512.02 806.457 1509.41 804.083C1506.82 801.71 1503.35 800.523 1499 800.523C1495.2 800.523 1491.86 801.527 1489 803.536C1486.17 805.514 1483.97 808.344 1482.38 812.026C1480.8 815.678 1480.01 819.999 1480.01 824.99C1480.01 830.102 1480.79 834.515 1482.34 838.228C1483.89 841.94 1486.08 844.816 1488.91 846.855C1491.77 848.894 1495.14 849.913 1499 849.913C1501.59 849.913 1503.93 849.442 1506.03 848.498C1508.16 847.524 1509.94 846.14 1511.37 844.344C1512.83 842.549 1513.85 840.388 1514.43 837.862H1527.71C1527.23 842.397 1525.75 846.444 1523.28 850.005C1520.82 853.565 1517.52 856.365 1513.38 858.404C1509.27 860.442 1504.45 861.462 1498.91 861.462ZM1575.04 789.933V800.888H1536.74V789.933H1575.04ZM1547.01 773.135H1560.66V839.46C1560.66 842.108 1561.05 844.101 1561.84 845.44C1562.64 846.748 1563.66 847.646 1564.9 848.133C1566.18 848.589 1567.57 848.818 1569.06 848.818C1570.15 848.818 1571.11 848.742 1571.93 848.589C1572.75 848.437 1573.39 848.316 1573.85 848.224L1576.32 859.499C1575.52 859.803 1574.4 860.108 1572.94 860.412C1571.48 860.747 1569.65 860.929 1567.46 860.96C1563.87 861.021 1560.52 860.382 1557.42 859.043C1554.31 857.704 1551.8 855.634 1549.89 852.835C1547.97 850.035 1547.01 846.52 1547.01 842.29V773.135Z" fill="black"/>
</svg>
