<svg width="513" height="513" viewBox="0 0 513 513" fill="none" xmlns="http://www.w3.org/2000/svg">
<g clip-path="url(#clip0_2754_77)">
<path d="M0.302246 182.196C0.302246 118.474 0.302246 86.6133 12.7033 62.2749C23.6115 40.8662 41.0173 23.4604 62.426 12.5522C86.7644 0.151123 118.625 0.151123 182.347 0.151123H330.258C393.979 0.151123 425.84 0.151123 450.178 12.5522C471.587 23.4604 488.993 40.8662 499.901 62.2749C512.302 86.6133 512.302 118.474 512.302 182.196V330.107C512.302 393.828 512.302 425.689 499.901 450.027C488.993 471.436 471.587 488.842 450.178 499.75C425.84 512.151 393.979 512.151 330.258 512.151H182.347C118.625 512.151 86.7644 512.151 62.426 499.75C41.0173 488.842 23.6115 471.436 12.7033 450.027C0.302246 425.689 0.302246 393.828 0.302246 330.107V182.196Z" fill="url(#paint0_linear_2754_77)"/>
<path d="M114.311 287.37C114.311 238.776 147.759 209.746 188.148 209.746H264.51V108.771H313.736V209.746C313.736 227.416 308.056 258.34 267.666 258.34H195.09C168.585 258.34 164.167 271.593 164.167 284.215V332.178C164.167 346.693 190.673 360.577 198.246 351.111C198.246 351.111 217.916 321.224 240.529 315.138H276.501C295.434 320.187 316.892 351.111 316.892 351.111C323.203 361.208 348.446 346.062 348.446 332.178V265.282H398.302V331.547C398.302 381.403 346.553 403.491 320.678 403.491C288.493 403.491 269.56 370.675 263.249 364.364H252.52C247.472 369.412 226.014 403.491 192.566 403.491C159.75 403.491 114.311 368.15 114.311 331.547C114.311 298.099 114.311 287.37 114.311 287.37Z" fill="white"/>
<path d="M397.963 210.966C397.963 224.555 386.947 235.571 373.358 235.571C359.769 235.571 348.753 224.555 348.753 210.966C348.753 197.377 359.769 186.361 373.358 186.361C386.947 186.361 397.963 197.377 397.963 210.966Z" fill="white"/>
</g>
<defs>
<linearGradient id="paint0_linear_2754_77" x1="256.302" y1="0.151123" x2="256.302" y2="512.151" gradientUnits="userSpaceOnUse">
<stop stop-color="#FF7557"/>
<stop offset="1" stop-color="#F86545"/>
</linearGradient>
<clipPath id="clip0_2754_77">
<rect width="512" height="512" fill="white" transform="translate(0.302246 0.151123)"/>
</clipPath>
</defs>
</svg>
