<svg width="1144" height="646" viewBox="0 0 1144 646" fill="none" xmlns="http://www.w3.org/2000/svg">
<path d="M217.818 4.27143C211.716 6.10183 209.886 28.6768 209.886 85.4192V163.516L193.412 167.177C183.65 168.397 154.974 172.058 128.738 173.888L80.5376 178.159L81.7579 105.554C82.368 65.8949 82.9782 29.897 82.368 25.6261C81.7579 15.864 54.3019 15.864 46.3701 26.2362C42.7093 30.5072 37.2181 67.1152 34.1675 107.384C29.8965 169.618 26.8459 183.651 14.6432 200.124L0 219.648L12.8128 233.071C21.9648 243.444 26.8459 262.358 32.3371 307.508C35.9979 341.065 40.2688 369.741 41.4891 370.962C42.7093 372.182 55.5221 367.301 69.5552 359.979C86.639 351.437 93.9606 344.116 91.52 338.014C89.6896 333.133 86.0288 307.508 84.1984 280.662L79.9275 232.461L97.6214 225.14C107.383 220.869 136.06 217.818 161.075 217.208L206.835 216.598L211.106 262.358C217.208 326.422 228.19 356.318 247.714 358.759C255.646 359.979 269.679 358.149 278.221 354.488L294.084 348.387L282.492 310.558C273.34 280.662 270.289 245.884 266.628 136.67L262.968 0.000492529L244.053 0.610626C233.681 0.610626 221.478 2.44103 217.818 4.27143Z" fill="black"/>
<path d="M529.092 12.0218C453.436 33.9866 389.372 127.337 382.05 224.958C379.61 259.126 380.83 267.058 393.643 285.362C415.607 317.089 436.962 330.511 472.96 333.562C501.636 336.003 510.788 332.952 553.498 310.987C580.343 296.954 602.918 285.972 604.139 285.972C605.359 285.972 605.969 299.395 605.969 315.868C605.969 356.747 610.24 365.289 630.374 365.289C666.982 365.289 666.982 365.289 666.982 276.82C666.982 170.657 669.423 158.454 695.049 148.082C719.454 137.709 721.894 123.676 700.54 113.914C676.745 103.542 499.806 133.438 482.112 151.132C469.909 163.335 469.909 164.555 479.061 174.317C488.823 183.469 492.484 183.469 535.804 174.317C560.819 168.216 588.885 163.945 596.817 163.945C610.85 163.945 612.07 165.775 612.07 195.062C612.07 235.331 605.359 246.313 569.361 264.617C507.738 295.734 458.927 294.514 441.233 260.956C430.251 241.432 436.962 177.978 452.826 146.861C481.502 90.1189 546.786 41.9184 593.766 41.9184C614.511 41.9184 623.663 28.4954 612.07 14.4624C603.529 4.09008 560.209 2.86982 529.092 12.0218Z" fill="black"/>
<path d="M809.348 169.203C807.518 254.012 805.078 330.278 803.857 338.82L802.027 354.074L947.239 355.904C1072.93 357.124 1093.67 355.904 1107.09 347.362C1124.18 336.38 1127.23 317.466 1112.58 311.974C1107.09 310.144 1079.03 308.314 1050.35 308.314C1021.06 308.314 966.153 306.483 927.714 304.043L858.769 300.382L860.6 159.441L863.04 18.5001L838.025 16.6697L812.399 14.8393L809.348 169.203Z" fill="black"/>
<path d="M730.553 430.778C722.226 433.634 713.899 434.858 712.65 432.818C709.319 427.105 690.167 428.33 689.75 434.042C689.75 436.898 689.75 478.925 690.167 527.073C690.999 620.512 693.497 633.977 710.152 636.426C727.639 638.874 731.802 631.121 731.802 593.99V559.716L748.873 567.876C758.033 572.773 789.259 591.95 818.404 611.128C855.876 635.61 874.612 645.402 883.772 645.402C913.333 644.994 914.166 629.081 885.437 610.72C874.612 604.191 838.806 583.79 805.081 566.244C771.772 548.291 745.542 532.378 747.207 530.745C749.289 529.113 768.441 521.769 790.092 514.832C852.962 494.023 882.107 473.621 875.861 454.444C874.196 450.363 865.452 442.611 855.46 436.898C840.471 428.738 831.728 427.105 792.174 426.289C760.531 425.473 741.378 426.697 730.553 430.778ZM833.809 457.708C835.058 459.748 831.728 464.236 826.731 467.501C810.493 477.701 751.371 499.327 738.048 500.143C725.973 500.551 725.557 500.143 725.557 482.19C725.557 463.828 725.557 463.828 744.293 458.932C767.192 453.219 830.478 451.995 833.809 457.708Z" fill="black"/>
<path d="M623.966 438.927C621.468 441.783 617.721 465.041 615.223 490.747C611.059 542.159 607.312 557.664 594.822 577.25C583.58 594.795 572.755 600.916 546.524 603.364C526.539 605.404 524.457 604.588 516.13 594.387C504.472 580.106 504.472 560.112 515.298 515.637C528.621 461.777 526.539 449.536 504.472 449.536C492.398 449.536 490.316 451.168 490.316 458.513C490.316 463.817 486.569 486.667 481.989 509.925C469.082 575.21 471.164 602.956 491.565 624.173C511.967 645.391 560.264 644.167 595.238 620.909C605.23 614.381 613.974 608.668 615.223 608.668C616.472 608.668 617.305 615.605 617.305 623.765C617.305 638.454 618.137 639.271 632.294 640.495L647.282 641.719L649.78 595.611C651.446 570.313 652.695 525.022 652.695 495.235V441.375L641.87 437.295C628.546 432.399 629.795 431.991 623.966 438.927Z" fill="black"/>
<path d="M297.743 442.805C279.007 450.966 257.773 470.959 246.531 491.361C239.453 504.01 237.371 515.027 237.371 540.325C237.371 568.887 239.037 575.415 249.029 592.145C256.524 604.794 267.349 615.402 280.256 622.747C298.159 633.356 303.156 634.172 343.542 634.172C378.1 634.172 390.174 632.54 401.832 626.419C433.891 609.69 445.966 592.145 452.211 553.79C463.869 481.976 422.65 436.277 345.624 436.277C325.223 436.685 306.487 439.133 297.743 442.805ZM392.672 477.488C418.486 489.729 427.646 505.642 425.564 535.02C423.066 577.456 393.921 603.57 348.122 604.386C319.81 604.794 296.494 595.409 283.587 577.864C276.925 568.887 274.843 559.91 274.843 538.284C274.843 507.274 281.505 494.625 306.07 477.896C324.806 465.655 366.442 465.247 392.672 477.488Z" fill="black"/>
<path d="M1044.91 445.048C976.21 461.777 938.738 488.707 945.816 516.861C949.146 529.918 966.217 536.039 1039.08 551.952C1075.72 559.705 1101.95 567.457 1101.12 569.906C1099.03 576.842 1056.15 600.508 1034.08 606.628C992.864 618.869 960.804 611.525 960.804 589.899C960.804 576.842 956.641 577.658 942.068 592.347C931.659 602.956 930.827 605.812 934.99 614.381C942.901 631.926 962.886 639.271 1002.44 638.863C1074.47 638.863 1144 600.916 1144 562.561C1144 556.849 1141.5 550.728 1139 548.28C1134.42 545.016 1077.8 528.694 1007.85 510.741C973.295 502.172 991.615 489.523 1054.9 478.098C1106.53 468.714 1121.52 463.817 1125.26 454.433C1131.93 436.887 1096.54 432.807 1044.91 445.048Z" fill="black"/>
<path d="M3.17563 453.612C-4.31877 467.485 1.92656 478.094 16.9154 478.094C24.4098 478.094 40.2313 479.318 52.722 480.95L75.2052 483.399L72.2907 532.77C71.0416 560.109 68.5435 595.607 66.8781 611.929L64.3799 641.715L84.7814 640.491L105.183 639.267L106.015 614.785C108.097 558.476 116.424 488.295 121.004 485.439C123.919 483.807 143.071 482.175 163.473 482.175C212.603 482.175 219.681 480.134 219.681 466.261C219.681 445.86 216.35 445.044 171.383 448.716C148.9 450.756 113.51 450.756 92.6921 449.124C23.9934 443.412 8.1719 444.228 3.17563 453.612Z" fill="black"/>
</svg>
