<svg width="3782" height="3294" viewBox="0 0 3782 3294" fill="none" xmlns="http://www.w3.org/2000/svg">
<path d="M91.6331 923.168L52.5215 922.694V909.182C53.2326 908.471 56.0771 898.99 58.6845 888.086C75.0403 819.344 113.204 752.499 170.093 693.002C206.835 654.601 234.805 632.32 296.673 592.26C313.977 581.119 385.326 546.274 411.637 536.555C423.963 531.815 437.474 526.363 441.504 524.466C445.771 522.807 452.882 520.437 457.386 519.726L465.682 518.066L463.549 527.311C457.86 552.674 464.734 616.201 478.008 659.342C506.69 752.736 577.328 834.278 680.677 893.301C698.455 903.493 748.945 928.619 751.789 928.619C752.5 928.619 757.478 930.753 763.167 933.123C780.945 941.42 807.02 952.324 808.442 952.324C811.76 952.324 885.954 989.302 910.843 1003.29C956.355 1028.89 1007.32 1063.97 1035.05 1088.38C1079.62 1127.5 1121.1 1173.24 1146.7 1210.7C1152.39 1219.23 1157.84 1226.58 1158.55 1227.29C1159.5 1228 1162.34 1232.74 1165.19 1237.96C1168.03 1243.17 1173.48 1252.18 1177.28 1258.11C1180.83 1264.03 1186.05 1272.56 1188.42 1277.07C1204.54 1307.41 1209.04 1316.42 1219.47 1338.7C1225.87 1352.45 1232.03 1366.2 1232.98 1369.51C1233.93 1372.83 1237.01 1380.65 1240.09 1387.29C1246.02 1400.33 1250.28 1417.16 1246.73 1413.37C1245.54 1411.94 1238.91 1403.65 1231.8 1394.64C1215.44 1373.07 1206.2 1363.11 1167.79 1324.71C1090.52 1247.2 1007.79 1185.1 900.888 1124.65C878.843 1112.33 819.82 1082.22 798.96 1072.98C755.582 1053.54 738.752 1046.19 727.611 1042.16C720.737 1039.55 709.359 1035.52 702.722 1032.92C670.485 1021.07 648.677 1013.24 635.64 1009.21C627.818 1006.84 612.41 1002.1 601.269 998.546C455.964 953.509 267.991 925.775 91.6331 923.168Z" fill="black"/>
<path d="M1609.87 40.4308C1622.2 39.0085 1636.01 37.819 1648.39 37.1119C1658.44 37.4681 1675.77 39.0085 1685.73 40.4308C1699.24 42.327 1723.42 52.0458 1738.35 61.5273C1752.34 70.772 1772.25 90.9203 1781.97 106.091C1798.32 131.217 1801.64 138.565 1811.6 169.855L1814.91 180.284L1805.43 169.617C1799.74 162.98 1790.74 156.58 1781.25 152.077C1766.79 145.44 1765.14 145.202 1731.95 145.439C1700.19 145.439 1696.39 146.151 1680.99 152.077C1607.98 180.759 1570.76 231.722 1570.76 302.36C1570.76 340.049 1579.53 364.701 1601.34 388.642C1632.39 422.539 1684.54 444.11 1760.16 454.54C1790.02 458.569 1807.8 459.28 1899.06 459.28C1990.32 459.28 2008.1 458.569 2037.97 454.54C2175.93 435.576 2239.69 377.265 2226.18 282.212C2222.15 254.715 2220.49 248.552 2212.43 232.907C2193.7 195.692 2163.84 170.566 2117.14 152.077C2101.73 146.151 2097.94 145.439 2066.18 145.439C2032.99 145.202 2031.33 145.44 2016.87 152.077C2007.39 156.58 1998.38 162.98 1992.69 169.617L1983.21 180.284L1986.53 169.855C2006.44 106.802 2036.78 69.3495 2085.14 48.7271C2093.44 45.1715 2105.76 41.3789 2112.4 40.4308C2119.77 39.3773 2143.81 38.2334 2149.14 38.2334C2154.47 38.2334 2191.81 40.9049 2191.81 40.9049C2210.06 44.2235 2237.08 52.0458 2257.23 59.868C2272.4 66.0311 2317.91 88.787 2331.66 97.0834C2369.82 120.787 2428.37 174.358 2469.14 223.189L2473.74 228.678C2483 239.752 2494.48 253.477 2501.14 261.352C2576.52 351.664 2624.64 392.909 2692.67 424.672C2704.52 430.124 2717.8 436.051 2721.59 437.473C2748.85 447.428 2827.31 456.673 2927.82 461.651C2955.31 463.073 2989.92 465.206 3004.85 466.392C3019.79 467.814 3051.31 470.421 3074.78 472.318C3098.25 474.451 3122.9 477.058 3129.3 478.244C3135.94 479.429 3155.14 482.036 3171.97 484.169C3204.68 487.962 3225.3 491.992 3225.3 494.362C3225.3 495.31 3222.22 514.748 3218.43 537.503C3209.66 590.363 3197.8 633.742 3180.5 677.12C3173.63 693.95 3154.43 733.773 3149.45 741.358C3147.32 744.677 3139.26 756.766 3131.43 768.38C3117.21 789.951 3083.55 826.455 3064.11 841.152C3046.1 854.9 3018.6 871.73 3014.34 871.73C3013.15 871.73 3015.76 863.908 3020.02 854.426C3024.29 845.181 3030.69 831.433 3033.77 824.322C3056.29 775.255 3064.83 713.624 3055.82 666.69C3046.81 618.571 3016.71 582.067 2964.56 554.808C2894.87 518.54 2819.49 516.407 2755.49 549.356C2683.9 586.334 2644.79 658.394 2654.04 736.38C2662.09 803.936 2701.68 862.959 2780.14 924.59C2785.59 929.094 2784.88 929.094 2751.22 927.909C2674.42 925.301 2612.32 900.412 2564.43 853.241C2535.99 825.27 2516.08 791.373 2501.14 746.099C2483.6 693.002 2466.77 662.661 2439.75 635.638C2408.7 604.823 2369.82 584.912 2326.45 577.8C2290.89 572.112 2236.84 576.141 2202 587.045C2114.06 615.016 2046.98 715.521 2046.74 819.581C2046.5 878.13 2060.96 922.931 2094.62 968.679C2105.29 983.139 2138.24 1008.03 2161.7 1019.41C2202.47 1039.32 2239.22 1044.29 2275.25 1035.29C2349.44 1016.32 2402.06 938.575 2381.2 879.078C2377.41 868.174 2402.3 897.567 2412.25 915.819C2447.57 979.346 2448.05 1054.49 2414.15 1116.36C2398.03 1145.51 2368.64 1177.99 2344.7 1193.16C2340.91 1195.53 2337.11 1198.37 2336.4 1199.08C2335.69 1200.03 2325.73 1205.48 2313.88 1211.41C2290.18 1223.02 2262.45 1232.74 2239.22 1237.01C2218.83 1241.04 2159.57 1241.04 2137.53 1237.01C2097.7 1229.9 2042.23 1207.62 2007.15 1184.62C1953.82 1149.54 1915.42 1089.57 1904.04 1023.91C1902.62 1015.61 1900.49 1008.98 1899.06 1008.98C1897.88 1008.98 1895.51 1016.56 1893.85 1025.81C1888.87 1056.15 1875.83 1089.57 1858.29 1117.07C1845.49 1136.98 1811.83 1170.87 1792.4 1183.2C1784.57 1188.18 1775.57 1194.1 1772.25 1196.24C1762.29 1202.87 1727.92 1217.81 1705.16 1225.16C1628.6 1250.52 1551.56 1245.3 1482.58 1210.7C1471.92 1205.25 1462.44 1199.79 1461.72 1198.85C1461.01 1197.9 1455.8 1194.1 1449.87 1190.55C1436.12 1181.78 1405.78 1151.2 1395.12 1134.84C1347.23 1062.31 1346.76 973.657 1394.17 902.782C1399.86 894.249 1407.68 884.056 1411.47 880.5L1418.35 873.863L1414.79 888.56C1411.71 900.886 1411.47 906.575 1413.84 921.982C1423.09 985.035 1489.93 1039.79 1557.73 1040.03C1594.7 1040.03 1643.3 1021.07 1677.43 993.806C1704.93 971.287 1717.96 952.798 1737.64 907.049C1742.62 895.197 1747.83 870.071 1750.44 843.285C1757.08 779.758 1734.79 707.224 1693.79 656.972C1646.85 599.608 1593.99 575.667 1513.87 575.43C1482.11 575.43 1463.15 578.037 1439.68 586.097C1368.33 609.801 1326.37 656.735 1296.98 746.099C1277.31 806.07 1246.02 850.159 1200.74 880.5C1169.22 902.071 1140.3 913.686 1097.39 922.694C1067.05 928.857 1016.09 931.227 1016.09 926.249C1016.09 924.827 1017.04 923.879 1017.99 923.879C1023.91 923.879 1075.35 875.048 1092.89 852.767C1132.95 802.514 1150.73 747.047 1144.09 692.528C1138.88 648.201 1119.68 611.46 1084.83 578.749C1050.22 546.274 996.415 525.652 946.399 525.652C912.977 525.652 866.754 537.266 835.939 553.385C768.619 588.704 739.226 634.927 738.515 706.513C738.041 752.973 750.13 797.536 777.864 853.241C788.768 875.049 788.768 875.049 770.279 865.093C738.041 848.026 703.433 817.448 677.122 782.84C629.477 720.498 595.106 632.557 578.987 532.763C576.854 520.437 574.721 506.451 573.772 501.711L572.35 492.94L584.439 490.333C591.076 488.91 610.039 486.066 626.632 484.169C643.462 482.036 662.425 479.429 668.825 478.244C679.255 476.11 710.307 473.266 793.271 466.392C807.02 465.206 841.628 463.073 870.309 461.651C947.821 457.858 1020.83 450.51 1051.41 443.636C1072.27 439.132 1085.54 434.154 1109.48 422.539C1158.55 398.835 1186.52 378.687 1229.19 336.257C1258.23 307.672 1259.26 306.445 1303.76 253.405L1310.02 245.944C1366.43 178.625 1403.41 141.884 1445.13 111.78C1491.59 78.3571 1566.26 45.8827 1609.87 40.4308Z" fill="black"/>
<path d="M3739.92 889.034C3742.05 899.227 3744.66 908.234 3745.37 908.945L3745.6 922.694L3706.49 923.168C3611.68 924.59 3502.16 934.071 3412.56 949.005C3341.45 960.62 3250.43 981.716 3196.86 998.546C3185.72 1002.1 3171.97 1006.37 3166.04 1008.26C3154.43 1011.58 3124.8 1022.01 3098.49 1031.97C3089.48 1035.29 3076.68 1040.03 3070.04 1042.4C3059.61 1046.19 3032.83 1057.57 3003.67 1070.84C2939.43 1099.76 2847.7 1151.2 2799.81 1184.86C2790.81 1191.26 2780.61 1198.37 2777.3 1200.5C2751.7 1218.05 2713.53 1248.39 2675.37 1281.57C2641.95 1310.49 2583.16 1371.88 2561.59 1400.33C2557.32 1406.26 2552.58 1411.94 2551.4 1413.37C2547.84 1417.16 2552.11 1400.33 2558.03 1387.29C2561.12 1380.65 2564.2 1372.83 2565.15 1369.51C2566.09 1366.2 2572.26 1352.68 2578.42 1339.17C2584.82 1325.9 2590.03 1314.52 2590.03 1314.05C2590.03 1313.57 2597.62 1299.59 2607.1 1282.76C2650.48 1204.77 2697.89 1145.04 2757.15 1093.84C2761.18 1090.28 2766.39 1085.54 2769 1083.17C2774.93 1077.48 2814.27 1048.8 2833 1036.47C2840.82 1031.26 2847.7 1026.52 2848.41 1025.57C2853.62 1019.88 2983.76 952.324 2989.68 952.324C2990.87 952.324 3009.36 944.501 3032.11 934.546C3036.14 932.886 3047.28 928.145 3057 923.879C3172.44 874.1 3260.86 794.692 3303.52 702.72C3326.28 653.179 3335.53 610.986 3335.53 555.756V518.303L3341.45 519.726C3344.77 520.437 3354.01 523.755 3362.31 526.837C3370.37 530.155 3384.12 535.37 3393.13 538.926C3414.7 547.222 3486.76 582.778 3501.45 592.26C3508.09 596.527 3519.23 603.638 3526.34 608.379C3586.08 646.542 3654.58 713.624 3685.16 763.877C3688.48 769.329 3692.51 775.729 3694.17 778.336C3700.33 787.581 3723.09 836.174 3729.25 853.004C3732.8 862.722 3737.55 878.841 3739.92 889.034Z" fill="black"/>
<path d="M2324.07 1497.76C2295.62 1501.79 2267.42 1522.41 2256.51 1546.83C2240.39 1582.86 2250.35 1621.26 2282.59 1646.15C2294.44 1655.39 2331.18 1674.12 2351.33 1681.47C2375.98 1690.24 2394.94 1712.28 2392.57 1729.59C2388.54 1760.88 2347.54 1777.94 2311.5 1763.48C2290.65 1755.19 2280.93 1747.13 2266.47 1726.27C2263.39 1721.76 2262.44 1722.24 2247.27 1737.41L2231.15 1753.29L2238.02 1763.01C2272.39 1812.55 2350.62 1828.67 2403.24 1796.91C2426 1783.4 2438.56 1764.91 2443.06 1738.36C2445.43 1725.32 2445.2 1719.87 2442.11 1705.88C2434.77 1672.93 2423.39 1662.74 2359.62 1631.93C2331.42 1617.94 2316.01 1609.17 2310.32 1603.24C2302.5 1594.95 2302.02 1593.53 2302.02 1577.88C2302.02 1561.76 2302.26 1560.81 2310.56 1553.23C2322.41 1542.56 2340.9 1538.53 2361.05 1542.56C2377.4 1545.64 2388.07 1551.33 2400.63 1563.42C2410.59 1572.67 2407.03 1574.09 2428.84 1550.86L2439.27 1539.48L2425.28 1526.44C2407.74 1510.09 2387.83 1500.61 2364.6 1497.52C2344.69 1494.92 2342.56 1494.92 2324.07 1497.76Z" fill="black"/>
<path d="M3224.11 1497.76C3197.56 1500.84 3173.86 1511.74 3143.52 1534.5C3134.51 1541.37 3114.36 1566.26 3107.01 1580.01C3097.53 1598.02 3090.18 1630.5 3090.18 1655.86C3090.18 1732.19 3137.35 1792.4 3210.36 1808.99C3251.84 1818.24 3304.94 1809.46 3339.78 1787.42C3351.64 1779.83 3381.74 1751.15 3381.5 1747.6C3381.5 1746.41 3374.39 1739.06 3365.62 1731.72L3349.98 1717.97L3337.65 1730.53C3321.06 1747.12 3302.33 1758.03 3280.29 1763.24C3257.06 1768.93 3242.84 1768.93 3219.61 1763C3177.18 1752.34 3149.68 1721.76 3140.91 1675.77C3137.59 1658 3137.59 1654.44 3141.15 1635.71C3143.28 1624.34 3147.78 1609.17 3151.34 1602.05C3160.11 1583.8 3180.26 1564.37 3201.59 1553.22L3219.37 1543.74H3250.18C3281 1543.74 3281 1543.74 3299.49 1552.51C3312.29 1558.68 3322.48 1565.79 3332.2 1575.74C3340.26 1583.57 3347.37 1589.97 3348.56 1589.97C3349.5 1589.97 3357.56 1583.33 3366.33 1575.03L3382.45 1560.34L3367.28 1544.69C3341.21 1518.14 3307.78 1501.79 3270.57 1497.52C3248.05 1494.91 3247.81 1494.91 3224.11 1497.76Z" fill="black"/>
<path d="M361.146 1501.55C360.197 1502.27 359.486 1571.72 359.486 1655.63V1808.05H382.005H404.524V1712.05C404.524 1611.54 404.998 1607.04 414.243 1622.68C416.376 1626.24 426.806 1641.41 437.472 1656.34C448.139 1671.27 457.858 1685.73 459.043 1688.34C460.465 1690.95 464.732 1697.35 468.525 1702.56C472.317 1707.78 482.747 1722.48 491.281 1735.28C505.977 1757.08 507.636 1758.51 514.51 1757.79C520.436 1757.08 523.755 1754 534.422 1738.12C541.533 1727.69 552.911 1711.1 559.785 1701.38C572.585 1682.89 596.526 1647.81 611.46 1625.76L620.23 1613.2V1710.62V1808.05H645.12H670.009L669.535 1654.44L668.824 1501.08H655.786H642.986L625.208 1527.15C615.49 1541.38 597.949 1566.98 586.571 1584.04C574.956 1600.87 555.755 1629.32 544.14 1646.86C532.288 1664.4 520.674 1681.23 518.303 1684.31L513.799 1689.76L504.792 1676.02C499.814 1668.43 489.621 1653.73 482.51 1643.3C465.206 1618.18 434.865 1574.09 420.169 1552.04C413.531 1542.33 407.605 1533.79 406.894 1533.08C406.183 1532.37 401.442 1525.5 396.228 1517.67C391.013 1509.85 385.798 1502.74 384.376 1501.79C381.294 1499.42 363.279 1499.42 361.146 1501.55Z" fill="black"/>
<path d="M917.238 1502.74C914.63 1507.24 904.674 1530.71 902.067 1539.01C900.882 1542.8 898.274 1549.2 896.378 1553.23C894.482 1557.02 889.03 1570.53 884.526 1582.86C879.785 1595.19 875.044 1607.51 873.859 1610.12C872.674 1612.73 865.089 1631.45 857.029 1651.6C849.207 1671.75 841.148 1691.66 839.251 1695.93C837.355 1699.96 835.933 1703.99 835.933 1704.94C835.933 1705.88 833.325 1712.76 830.244 1720.11C823.37 1735.75 804.406 1783.4 799.429 1798.09L795.873 1808.29L820.762 1807.57L845.651 1806.86L850.155 1796.2C852.763 1790.27 858.452 1775.34 863.192 1763.01C867.696 1750.68 872.437 1738.83 873.622 1736.94C875.281 1733.85 884.289 1733.38 931.934 1733.38H988.35L995.935 1752.34C999.964 1762.77 1006.6 1779.6 1010.39 1789.56L1017.27 1808.05H1042.63H1067.99L1063.49 1795.48C1058.51 1781.74 1048.79 1756.85 1037.89 1729.82C1033.86 1720.11 1025.8 1699.72 1020.11 1684.79C1014.19 1669.85 1002.33 1639.99 994.038 1618.42C985.505 1596.85 973.653 1566.5 967.49 1550.86C961.564 1535.22 955.638 1520.28 954.453 1517.67C953.268 1515.07 951.134 1510.09 949.712 1506.3C947.579 1500.37 946.63 1499.9 933.356 1499.9C924.586 1499.9 918.423 1501.08 917.238 1502.74ZM935.49 1583.1C935.49 1585.94 950.423 1627.66 954.453 1636.19C957.06 1641.41 973.416 1686.68 973.416 1688.34C973.416 1689.05 954.69 1689.53 931.697 1689.53H890.215L891.874 1684.08C892.585 1681.23 895.43 1674.36 897.8 1668.91C900.408 1663.45 902.304 1658.48 902.304 1657.76C902.304 1656.58 917.475 1615.1 928.615 1585.7C930.749 1580.25 935.49 1578.36 935.49 1583.1Z" fill="black"/>
<path d="M1196.23 1653.97V1808.05H1218.75H1241.27V1704.93C1241.27 1648.28 1241.98 1601.82 1243.17 1601.82C1244.12 1602.06 1249.09 1607.27 1254.07 1613.91C1259.29 1620.31 1266.16 1628.84 1269.48 1632.64C1272.8 1636.19 1279.91 1644.49 1285.12 1650.65C1290.34 1657.05 1298.4 1666.3 1303.14 1671.75C1307.64 1676.96 1327.79 1700.9 1347.94 1725.08C1367.85 1749.26 1387.05 1771.54 1390.13 1774.86C1393.21 1778.18 1400.8 1786.95 1406.73 1794.3L1417.39 1808.05H1432.56H1447.5L1447.02 1654.44L1446.31 1501.08L1423.32 1500.37L1400.09 1499.66V1604.19C1400.09 1661.56 1399.14 1708.49 1398.19 1708.49C1397.01 1708.49 1392.03 1703.51 1386.81 1697.35C1381.84 1691.19 1371.17 1678.62 1363.35 1669.38C1355.29 1660.37 1339.41 1641.64 1327.79 1627.9C1315.94 1614.15 1303.61 1599.93 1300.29 1595.9C1290.58 1584.99 1241.27 1526.92 1229.42 1512.7C1219.23 1500.61 1218.28 1499.89 1207.61 1499.89H1196.23V1653.97Z" fill="black"/>
<path d="M1574.79 1501.55C1573.84 1502.27 1573.13 1512.93 1573.13 1525.26V1547.3H1618.16H1663.2V1677.67V1808.05H1686.91H1710.61L1711.08 1678.15L1711.8 1548.49L1756.36 1547.78L1800.69 1547.3V1523.6V1499.89H1688.57C1626.7 1499.89 1575.5 1500.61 1574.79 1501.55Z" fill="black"/>
<path d="M1987 1507.48C1975.39 1534.74 1971.36 1544.46 1971.36 1546.12C1971.36 1547.07 1969.7 1551.1 1967.8 1555.13C1964.48 1562.71 1958.56 1577.41 1948.84 1603.01C1945.76 1610.83 1941.25 1622.45 1938.65 1629.08C1936.04 1635.48 1929.4 1652.08 1924.19 1665.82C1918.74 1679.57 1912.81 1694.27 1910.68 1698.54C1908.78 1703.04 1903.56 1716.31 1898.82 1728.17C1894.32 1740.25 1887.21 1758.03 1883.18 1767.75C1879.15 1777.47 1873.93 1790.51 1871.56 1796.67L1867.06 1808.05H1892.66H1918.02L1923.95 1793.11C1928.93 1780.31 1943.62 1743.34 1946.94 1735.04C1947.89 1732.91 1961.4 1732.2 2003.36 1732.2C2044.6 1732.2 2059.06 1732.91 2060.72 1735.04C2061.91 1736.7 2066.41 1747.13 2070.68 1758.27C2074.71 1769.41 2079.21 1780.55 2080.4 1783.16C2081.82 1785.77 2084.19 1792.17 2085.85 1797.38L2089.17 1806.86L2115.48 1807.57L2141.55 1808.29L2137.05 1798.8C2134.68 1793.59 2132.55 1788.14 2132.55 1786.95C2132.55 1785.53 2130.41 1779.84 2127.8 1774.39C2125.2 1768.7 2119.27 1754 2114.77 1741.68C2110.03 1729.35 2105.29 1717.02 2104.1 1714.42C2102.92 1711.81 2098.17 1699.48 2093.43 1687.16C2088.69 1674.83 2083 1659.66 2080.4 1653.26C2069.49 1627.19 2065.94 1618.18 2055.74 1592.34C2050.06 1577.41 2041.28 1554.89 2036.78 1542.56C2032.04 1530.24 2026.11 1515.54 2023.51 1509.85L2018.77 1499.9H2004.54C1990.56 1499.9 1990.08 1500.13 1987 1507.48ZM2015.92 1606.56C2039.39 1669.62 2044.84 1685.02 2044.84 1687.63C2044.84 1688.58 2026.83 1689.53 2004.54 1689.53C1960.22 1689.53 1961.17 1690 1967.57 1674.83C1969.46 1670.56 1973.73 1659.42 1977.05 1650.42C1980.37 1641.17 1986.29 1624.82 1990.56 1613.68C2001.46 1583.81 2005.02 1576.46 2006.2 1580.49C2006.91 1582.39 2011.18 1594.24 2015.92 1606.56Z" fill="black"/>
<path d="M2548.32 1502.98C2547.61 1504.87 2547.37 1515.3 2547.84 1526.21L2548.55 1546.12L2593.12 1546.83L2637.44 1547.3V1677.67V1808.05H2661.15H2684.85L2685.33 1678.15L2686.04 1548.49L2730.6 1547.78L2774.93 1547.3V1523.6V1499.89H2662.33C2570.6 1499.89 2549.26 1500.37 2548.32 1502.98Z" fill="black"/>
<path d="M2902.93 1653.97V1808.05H2927.81H2952.7V1653.97V1499.89H2927.81H2902.93V1653.97Z" fill="black"/>
<path d="M1706.35 1901.69C1698.52 1908.33 1694.97 1920.42 1698.52 1929.42C1701.13 1936.53 1712.27 1942.22 1727.92 1944.36C1749.01 1947.44 1757.55 1961.19 1744.75 1971.38C1732.42 1981.1 1712.75 1976.59 1706.11 1962.85C1703.98 1958.34 1700.42 1955.02 1697.81 1955.02C1694.02 1955.02 1693.78 1956.21 1694.97 1962.61C1699 1982.52 1722.7 1991.53 1746.41 1982.05C1752.33 1979.68 1756.84 1975.88 1758.26 1972.33C1760.87 1965.45 1761.1 1950.28 1758.49 1946.49C1755.65 1941.99 1743.32 1936.77 1728.39 1933.69C1713.22 1930.37 1708.24 1926.58 1708.24 1918.05C1708.24 1902.4 1743.32 1900.74 1747.12 1916.15C1749.01 1923.5 1758.02 1923.97 1758.02 1916.86C1758.02 1903.82 1745.93 1895.76 1726.26 1895.76C1716.06 1895.76 1712.03 1896.95 1706.35 1901.69Z" fill="black"/>
<path d="M1797.85 1897.63C1789.79 1901.19 1779.83 1912.09 1776.99 1920.63C1772.72 1933.67 1774.85 1960.45 1780.78 1968.51C1793.1 1985.1 1812.3 1990.32 1829.13 1981.31C1843.83 1973.72 1854.26 1952.63 1843.36 1952.63C1840.28 1952.63 1837.43 1955.47 1835.3 1960.69C1831.74 1969.22 1821.31 1976.33 1812.54 1976.33C1791.44 1976.33 1777.93 1947.18 1788.36 1923.47C1794.29 1910.2 1804.25 1904.04 1817.76 1905.93C1827.48 1907.35 1836.25 1913.28 1836.25 1918.73C1836.25 1920.39 1838.85 1921.81 1842.17 1921.81C1850.47 1921.81 1849.76 1916.36 1840.04 1905.93C1832.69 1897.87 1831.03 1897.16 1817.05 1896.45C1808.75 1896.21 1800.22 1896.69 1797.85 1897.63Z" fill="black"/>
<path d="M1864.69 1928.94C1864.69 1964.5 1867.3 1973.75 1879.39 1981.09C1895.5 1991.05 1922.76 1983.7 1928.93 1967.82C1930.11 1964.5 1931.06 1947.43 1931.06 1929.89C1931.06 1899.79 1930.82 1898.13 1926.32 1898.13C1921.82 1898.13 1921.58 1899.79 1921.58 1924.68C1921.58 1939.37 1920.39 1955.49 1918.97 1960.47C1914.23 1978.01 1891.71 1981.33 1880.33 1966.16C1876.07 1960.23 1875.36 1955.49 1874.65 1928.71C1873.93 1900.5 1873.46 1898.13 1869.19 1898.13C1864.93 1898.13 1864.69 1900.03 1864.69 1928.94Z" fill="black"/>
<path d="M1950.03 1940.78V1983.45H1971.36C1995.06 1983.45 2006.44 1980.13 2012.61 1971.36C2018.53 1962.83 2017.58 1950.5 2010.24 1942.92C2004.31 1936.75 2004.31 1936.04 2007.87 1931.06C2013.55 1922.77 2012.61 1910.68 2005.73 1904.04C2000.28 1898.59 1998.38 1898.11 1974.92 1898.11H1950.03V1940.78ZM1997.91 1911.63C2003.6 1916.6 2003.36 1923 1997.44 1928.93C1993.64 1932.72 1989.61 1933.67 1977.29 1933.67H1961.88V1920.63V1907.6H1977.76C1989.14 1907.6 1994.83 1908.78 1997.91 1911.63ZM1998.86 1945.05C2004.31 1948.6 2006.92 1956.9 2004.55 1963.06C2001.47 1971.36 1995.3 1973.97 1977.52 1973.97H1961.88V1958.56V1943.15H1979.18C1988.43 1943.15 1997.44 1944.1 1998.86 1945.05Z" fill="black"/>
<path d="M2051.48 1909.26C2049.34 1915.66 2042.7 1933.67 2036.78 1949.79C2030.85 1965.67 2025.88 1979.89 2025.88 1981.32C2025.88 1982.74 2028.25 1983.45 2031.09 1982.98C2034.88 1982.5 2037.25 1979.18 2040.1 1970.41L2044.13 1958.56L2060.01 1957.85C2069.02 1957.37 2077.31 1958.32 2079.21 1959.75C2080.87 1961.17 2083.48 1967.09 2084.9 1972.78C2087.27 1981.79 2088.45 1983.45 2093.43 1983.45C2100.78 1983.45 2100.78 1982.5 2093.67 1964.01C2090.59 1955.72 2085.13 1941.02 2081.58 1931.3C2070.2 1899.54 2069.25 1898.11 2061.91 1898.11C2055.98 1898.11 2054.79 1899.54 2051.48 1909.26ZM2073.28 1943.63C2073.28 1947.18 2071.15 1947.89 2061.19 1947.89C2047.21 1947.89 2047.45 1948.37 2057.16 1922.53L2062.14 1909.02L2067.59 1924.43C2070.68 1932.72 2073.28 1941.49 2073.28 1943.63Z" fill="black"/>
<path d="M2258.41 1941.27C2247.98 1954.78 2230.44 1977.3 2219.3 1991.76C2208.39 2005.98 2197.49 2019.97 2195.59 2022.57C2159.8 2068.56 2084.19 2165.74 2079.92 2171.2C2074.7 2178.31 2050.76 2209.12 2028.24 2238.28C1989.61 2288.29 1970.64 2312.47 1967.09 2316.5C1964.95 2319.11 1962.11 2323.14 1960.69 2325.27C1954.53 2335.7 1901.19 2402.78 1899.06 2402.78C1897.87 2402.78 1886.02 2389.98 1872.98 2374.1C1859.95 2358.46 1847.15 2343.29 1844.54 2340.21C1836.24 2330.96 1804.95 2293.98 1772.24 2254.87C1754.94 2234.01 1740 2216.47 1739.06 2215.76C1738.11 2215.05 1723.41 2197.51 1705.87 2176.65C1688.57 2155.79 1673.16 2137.54 1671.74 2136.35C1670.31 2134.93 1655.38 2117.39 1638.31 2097.24C1597.31 2048.17 1541.84 1983.46 1540.89 1983.46C1538.99 1983.46 1539.94 1985.59 1543.02 1988.68C1547.76 1993.42 1580.24 2045.8 1594.94 2072.35C1605.84 2091.79 1640.92 2162.66 1648.98 2181.39C1650.17 2184 1653.25 2191.35 1656.09 2197.98C1679.32 2250.84 1713.46 2344.47 1731.23 2403.02C1734.55 2414.16 1740.48 2433.36 1744.27 2445.69C1748.06 2458.02 1753.75 2477.22 1756.6 2488.36C1759.68 2499.5 1764.89 2519.17 1768.45 2532.21C1782.91 2585.07 1807.32 2687.47 1816.09 2731.32C1818.23 2741.75 1822.73 2762.61 1825.81 2777.54C1829.13 2792.48 1833.87 2816.42 1836.24 2830.88C1838.61 2845.1 1842.41 2865.01 1844.3 2874.73C1850.46 2905.31 1867.29 3007.24 1870.38 3032.36C1871.32 3038.76 1873.93 3057.96 1876.54 3075.03C1885.31 3132.87 1890.76 3174.59 1893.13 3201.85C1894.55 3216.78 1896.21 3231.71 1896.92 3234.8C1899.06 3244.99 1901.9 3235.98 1903.56 3213.94C1904.51 3202.79 1907.35 3178.62 1909.72 3160.36C1912.33 3142.11 1916.12 3114.85 1918.02 3099.92C1923.95 3053.93 1933.19 2990.64 1934.38 2988.98C1934.85 2988.04 1936.51 2978.79 1937.93 2968.36C1940.78 2948.21 1947.18 2910.76 1955 2870.46C1957.61 2856.95 1961.16 2837.75 1963.06 2827.8C1964.72 2817.84 1968.98 2796.75 1972.3 2781.1C1987.71 2708.57 1992.93 2684.86 1997.19 2666.14C2000.04 2655 2004.3 2636.98 2006.67 2625.84C2009.28 2614.7 2014.26 2595.02 2017.58 2581.99C2021.13 2568.95 2026.35 2548.56 2029.43 2536.95C2032.51 2525.1 2037.25 2507.56 2039.62 2497.84C2042.23 2488.12 2047.68 2468.92 2051.95 2455.17C2055.98 2441.42 2062.14 2421.27 2065.22 2410.13C2070.91 2390.93 2111.68 2270.04 2120.69 2245.39C2161.22 2135.88 2212.9 2026.6 2263.39 1943.64C2272.16 1929.18 2279.03 1917.09 2278.32 1917.09C2277.85 1917.09 2268.84 1927.99 2258.41 1941.27Z" fill="black"/>
</svg>
