<svg width="1681" height="1142" viewBox="0 0 1681 1142" fill="none" xmlns="http://www.w3.org/2000/svg">
<g clip-path="url(#clip0_7813_1203)">
<path d="M341.667 2.13359C324.467 4.00059 268.334 7.33359 253.8 7.33359C246.2 7.33359 236.2 7.86759 231.8 8.66759C227.267 9.33359 211.4 10.5336 196.334 11.4676C149.8 13.8676 144.734 14.5336 110.334 21.3336C105.267 22.4006 91.134 25.0676 79 27.4676C66.867 29.8676 55.133 32.5336 52.733 33.4676C50.467 34.2676 45.133 35.8676 40.867 36.6676C36.6 37.6006 32.2 38.8006 31.134 39.3336C29.934 39.8676 24.2 42.2676 18.334 44.6676C12.467 47.0676 6.06701 50.8006 4.06701 52.8006C0.733008 56.4006 0.333008 57.6006 0.333008 66.6676C0.333008 76.5336 0.867007 78.2676 10.2 97.8676C12.467 102.801 18.867 106.268 24.334 105.468C26.867 105.068 37.134 102.801 47 100.268C72.734 93.6006 89.133 90.4006 109 88.0006C118.6 86.8006 129.4 85.0676 133 84.0006C144.334 80.9336 157 80.1336 158.867 82.4006C160.067 84.0006 159.934 84.8006 158.334 86.5336C154.6 90.2676 151.267 91.4676 138.6 93.4676C131.934 94.5336 125.8 96.0006 125.134 96.6676C123.534 98.2676 125.934 98.4006 142.334 98.0006C152.467 97.8676 154.867 98.1336 157.534 100.268L160.6 102.668L155.134 118.668C145.667 146.668 143.267 152.934 140.467 156.668C136.334 162.401 120.334 212.401 120.334 219.868C120.334 222.134 119.134 230.268 117.667 238.001C116.2 245.734 115 254.801 115 258.134C115 261.468 114.467 266.001 113.8 268.134C113.134 270.268 111.534 282.801 110.334 296.001C109 309.201 106.867 330.134 105.4 342.668C103.8 355.068 102.734 367.468 102.867 370.001C103 372.534 103.267 398.401 103.4 427.334C103.8 481.334 104.2 486.134 109.534 498.134C114.6 509.468 127.267 515.468 140.334 512.668C152.067 510.134 153.4 509.334 154.334 504.134C154.867 501.601 155 499.068 154.6 498.401C153.8 496.934 155.8 453.334 157.534 434.801C158.334 426.934 160.2 412.534 161.667 402.801C164.067 387.068 165.667 378.801 171.667 348.001C172.734 342.801 174.2 335.334 174.867 331.334C178.6 311.068 183.534 289.468 187.667 274.801C190.2 266.001 194.067 251.201 196.334 242.001C200.2 226.401 205.534 205.868 213 177.334C216.243 164.877 219.532 152.433 222.867 140.001C234.2 96.8006 233.4 99.0676 238.467 94.5336C244.467 89.0676 253.4 87.3336 275.267 87.3336C297.667 87.3336 328.334 82.6676 328.334 79.2006C328.334 78.2676 325.667 78.0006 320.734 78.5336C316.467 78.9336 299.8 79.6006 283.667 80.0006C267.534 80.4006 248.734 81.0676 242.067 81.4676C231.267 82.1336 229.534 82.0006 228.867 80.0006C227.267 76.0006 230.734 74.8006 248.6 73.8676C258.334 73.3336 274.2 72.2676 283.667 71.4676C293.267 70.6676 312.067 69.0676 325.667 68.0006C372.067 64.1336 380.334 62.8006 384.867 58.6676C387.934 55.8676 388.334 54.4006 388.334 46.2676C388.334 40.1336 387.4 34.8006 385.667 30.5336C384.334 26.9336 382.467 21.6006 381.8 18.6676C380.2 12.2676 372.467 4.40059 365.8 2.13359C360.867 0.533594 356.6 0.533594 341.667 2.13359ZM775 38.0006C761.4 40.8006 745 44.8006 734.334 48.0006C727.8 50.0006 719.667 52.2676 716.334 53.2006C713 54.1336 706.2 56.6676 701 58.6676C691.534 62.4006 687.667 64.0006 672.734 70.6676C662.334 75.2006 659.134 74.5336 653.667 66.6676C647.134 57.2006 641.667 55.6006 634.334 61.2006C630.334 64.2676 629 66.8006 623.667 80.6676C618.067 95.2006 617.267 96.6676 613.934 97.6006C606.334 99.4676 603.934 92.1336 607.534 77.8676C610.2 67.7336 610.2 65.4676 607.534 60.0006C605.4 55.3336 600.334 52.6676 593.534 52.6676C590.867 52.6676 588.867 54.0006 586.467 57.0676C584.467 59.6006 583 62.4006 583 63.3336C583 64.2676 581.8 67.2006 580.334 69.8676C579 72.5336 575.934 81.6006 573.667 90.0006C568.6 109.068 565.667 119.068 564.2 123.068C562.067 128.534 552.867 139.734 538.867 154.134C517.8 175.601 511.267 183.601 503.934 196.934C497.8 207.868 497 212.668 499.667 220.801C501.667 226.801 504.067 230.001 513.667 239.334C520.067 245.601 526.067 252.001 526.867 253.601C529.134 258.001 528.734 262.534 523.667 286.801C516.467 321.068 510.467 352.401 506.467 376.001C504.467 387.734 501.667 402.668 500.334 409.334C499 415.868 496.867 429.468 495.667 439.334C494.467 449.201 493 460.668 492.334 464.668C491.667 468.668 490.734 480.934 490.2 491.734C489.134 515.201 490.467 520.134 498.867 523.734C510.467 528.934 517.134 527.868 520.867 520.134C522.067 517.601 524.334 514.534 525.934 513.468C528.6 511.601 529.134 511.601 531.267 513.601C532.6 514.801 534.467 517.334 535.4 519.201C537.8 524.268 543.4 524.534 547.667 519.868C549.534 517.868 551.267 514.934 551.534 513.468C551.934 511.868 553.4 502.801 554.867 493.334C559.134 467.201 559.934 463.201 571.134 414.668C578.2 384.134 582.334 368.534 584.2 364.934C587.134 359.334 591.4 361.201 606.734 374.934C625.267 391.601 637.934 402.134 666.734 425.068C679.4 435.201 690.867 444.401 692.067 445.468C697.8 450.401 716.067 464.534 722.867 469.068C731.667 475.068 736.067 475.068 743.934 468.934C746.734 466.801 750.734 464.534 752.734 464.134C757.134 463.068 767 457.201 767 455.601C767 455.068 769.4 452.001 772.334 448.801C779.534 441.068 779.267 438.534 770.467 431.601C766.467 428.534 762.867 426.001 762.467 426.001C761.667 426.001 729.934 399.734 727.667 397.201C727 396.401 721.534 391.601 715.667 386.668C709.8 381.601 704.467 376.801 703.667 376.001C703 375.201 699 371.868 695 368.668C691 365.468 685 360.401 681.667 357.334C671 348.001 666.6 344.134 657.8 336.934C638.734 321.068 636.467 316.001 645.4 309.068C648.067 306.801 653.4 303.734 657 302.134C674.6 294.134 688.067 286.668 718.734 267.734C721.934 265.734 725.667 263.468 727 262.668C735 258.268 757.8 243.601 762.334 240.134C765.267 237.868 768.734 235.334 769.934 234.668C782.6 227.068 806.734 208.534 824.6 192.401C832.334 185.601 837 182.401 838.334 182.801C840.6 183.734 844.334 190.134 844.334 193.201C844.334 196.134 855.667 204.801 861.267 206.134C872.734 208.801 880.734 207.734 891.134 202.001C925.8 183.468 971.267 163.601 987.667 159.868C989.934 159.468 999.667 156.401 1009.27 153.201C1019 150.001 1029.27 147.068 1031.93 146.534C1034.73 146.001 1038.6 144.801 1040.6 143.868C1045.27 141.468 1049 141.468 1051 144.001C1053.8 147.334 1051.4 151.601 1040.73 162.801C1035 168.668 1026.73 177.601 1022.33 182.668C1017.93 187.734 1009.53 197.201 1003.67 203.868C981.667 228.801 974.334 237.601 956.867 260.134C945.534 274.801 936.334 285.201 931.934 288.534C925.4 293.334 924.2 293.734 913 294.534C902.6 295.334 878.867 298.401 870.067 300.134C866.067 300.934 862.467 307.868 863.534 312.801C863.934 314.934 865.534 318.534 867.267 320.668C870.2 324.668 870.334 324.668 883 324.668C905.667 324.668 905.8 323.868 874.067 374.001C870.067 380.268 866.2 386.534 865.267 388.001C864.334 389.468 862.067 392.801 860.2 395.334C854.734 402.668 847 413.868 847 414.534C847 414.801 840.867 424.268 833.267 435.468C818.867 457.201 811 473.334 811 481.468C811 485.601 812.067 487.468 817 492.134C825.134 500.001 830.067 500.801 843 496.268C855.267 492.001 873.534 488.801 893 487.334C901.134 486.668 915.534 485.601 925 484.801C949 482.934 999.934 480.801 1040.2 480.001C1062.6 479.601 1074.6 478.801 1075.8 477.868C1078.47 475.734 1078.07 469.468 1075.4 467.068C1069.4 462.001 1061.67 461.334 1003 461.334C946.067 461.468 923.4 462.668 905.667 466.668C895.4 469.068 871.534 471.468 868.867 470.401C866.2 469.334 864.467 465.734 865.534 463.068C866.6 460.001 871.934 456.268 879 453.334C887.534 450.001 928.6 448.534 1004.73 448.934C1062.87 449.334 1065.93 449.201 1067.67 446.934C1068.73 445.468 1069.13 443.334 1068.6 442.134C1067 437.868 1060.6 431.334 1056.73 429.868C1054.33 428.934 1031.4 428.134 994.334 427.734C944.067 427.068 933.934 427.334 923.667 429.201C909.4 431.734 892.2 432.001 889.934 429.734C887.267 427.068 888.067 425.334 896.467 415.201C908.6 400.668 910.6 398.001 929.8 373.468C939.4 361.068 947.934 350.134 948.734 349.334C949.667 348.534 951.534 346.134 953 344.001C961.267 332.668 968.6 324.934 974.334 322.134L980.6 319.068L1025.93 321.068C1072.6 323.068 1074.87 323.068 1080.73 318.268C1081.93 317.068 1083 315.334 1083 314.134C1083 310.668 1075.93 301.868 1070.33 298.268C1065.27 295.068 1063.53 294.801 1041.67 293.868C1028.73 293.334 1015.53 292.534 1012.07 292.001C1005 290.934 1001 287.468 1002.2 283.601C1003.13 280.934 1017.8 263.201 1030.07 250.001C1033.93 246.001 1039.93 239.068 1043.67 234.534C1047.27 230.134 1055.8 220.534 1062.47 213.201C1069.27 206.001 1076.2 198.268 1077.8 196.134C1079.53 194.001 1083.4 189.734 1086.47 186.668C1089.4 183.468 1094.73 177.334 1098.33 173.068C1101.93 168.801 1107.93 162.001 1111.53 158.001C1115.27 153.868 1121 147.468 1124.33 143.601C1143 121.468 1143.4 120.934 1140.07 114.934C1132.6 100.801 1111.4 86.8006 1095.27 85.2006C1087.13 84.5336 1076.6 85.6006 1049.67 90.0006C1016.33 95.3336 997.667 100.001 976.334 108.268C966.2 112.134 942.334 120.934 929 125.601C923.934 127.334 918.334 129.601 916.867 130.668C915.267 131.734 910.2 133.868 905.534 135.334C900.867 136.934 896.467 138.801 895.667 139.468C895 140.134 893.8 140.668 892.867 140.668C891.934 140.668 886.2 143.601 880.067 147.201C873.8 151.068 868.467 153.334 867.8 152.668C867.134 152.001 870.6 146.001 875.934 138.401C886.734 122.934 887.934 120.668 889.534 112.268C892.334 97.0676 885.134 85.4676 868.6 78.1336C858.6 73.7336 857.934 73.0676 852.334 62.6676C846.867 52.2676 838.467 44.6676 827.534 40.1336C819.134 36.8006 817.667 36.5336 799.134 36.8006C788.467 36.9336 777.534 37.4676 775 38.0006ZM816.867 58.0006C821.134 59.6006 823.534 63.8676 821.8 67.0676C819.534 71.4676 810.067 76.8006 800.734 79.2006C795.8 80.5336 789.934 82.5336 787.667 83.6006C785.534 84.6676 781.267 86.1336 778.467 86.5336C775.534 87.0676 770.467 88.9336 767.134 90.5336C763.667 92.2676 758.334 94.0006 755 94.5336C748.867 95.4676 744.334 98.4006 744.334 101.601C744.334 103.868 744.2 103.868 759.667 99.8676C767 98.0006 776.334 95.6006 780.334 94.5336C784.334 93.6006 791 91.4676 795 90.0006C799 88.5336 803.534 87.3336 805 87.3336C809 87.3336 811.134 89.8676 809.667 92.8006C807.134 97.4676 781.8 121.601 769.534 130.934C756.467 140.934 725.267 164.934 711.8 175.334C707.534 178.668 701.534 183.068 698.6 185.201C695.534 187.201 692.067 190.001 690.867 191.201C688.734 193.334 687 194.801 663.667 212.001C656.334 217.468 649.4 222.801 648.334 223.734C647.267 224.801 645 226.401 643.267 227.201C641.534 228.134 636.2 232.268 631.4 236.268L622.6 243.734L620.067 240.668C617.4 237.334 617.534 234.668 621 223.334C622.067 220.001 623.8 212.801 625 207.334C626.2 201.868 628.6 192.534 630.334 186.668C631.934 180.801 634.734 171.201 636.334 165.334C642.6 142.668 643.134 141.334 648.6 135.734C651.8 132.534 657.8 128.534 663.534 126.001C679.534 118.668 691.267 112.934 700.334 107.734C705.134 104.934 713.267 100.268 718.334 97.4676C723.534 94.5336 728.2 91.3336 728.734 90.4006C729.267 89.4676 730.467 88.6676 731.4 88.6676C733.934 88.6676 742.2 86.1336 744.334 84.6676C746.067 83.4676 746.067 83.2006 744.334 82.0006C741.267 80.0006 737.4 80.4006 731.934 83.3336C729.267 84.8006 725.267 86.0006 723.134 86.0006C721.134 86.0006 715.134 87.7336 710.067 89.8676C705 92.0006 696.6 94.6676 691.534 95.8676C686.467 97.2006 679.8 99.0676 676.734 100.268C672.2 101.868 670.6 102.001 669 100.668C665.534 97.8676 669 94.5336 679.267 90.6676C684.6 88.6676 691.667 86.0006 695 84.6676C698.334 83.3336 706.467 80.2676 713 78.0006C719.667 75.6006 728.067 72.6676 731.667 71.3336C735.4 70.0006 739.8 68.4006 741.667 68.0006C743.534 67.4676 746.867 66.2676 749.134 65.2006C762.467 59.3336 807.534 54.4006 816.867 58.0006ZM866.2 87.8676C871.134 89.8676 877.667 98.4006 877.667 102.668C877.667 106.268 868.067 123.468 861.934 131.068C856.067 138.401 843.134 151.334 834.867 158.268C831.667 160.934 821.8 169.334 813 176.934C804.2 184.401 795.934 191.468 794.467 192.668C793.134 193.734 791 195.601 789.8 196.801C781 205.601 769.667 211.334 769.667 206.934C769.667 204.268 770.2 203.868 807 166.134C826.467 146.268 842.867 128.668 843.667 127.201C844.734 124.801 843.934 123.601 839 119.201C833.934 114.934 833.267 113.734 834.467 111.734C835.667 109.868 837.534 109.468 842.334 109.601L848.467 110.001L847.667 104.001C846.867 99.0676 847.267 97.4676 849.667 94.4006C851.934 91.4676 859 86.4006 861.4 86.0006C861.534 86.0006 863.8 86.8006 866.2 87.8676ZM596.067 182.668C596.6 187.068 590.867 213.334 587 224.001C585.667 227.601 584.2 233.468 583.8 236.934C583.4 240.401 581.8 246.801 580.334 251.201C578.867 255.601 577.667 261.068 577.667 263.201C577.667 269.468 575 274.001 571.4 274.001C569.4 274.001 568.334 273.201 568.334 271.601C568.334 267.868 570.734 252.801 573 242.668C574.067 237.468 575.934 229.068 577 224.001C581.267 203.334 585.667 186.401 587.934 182.268C591 176.668 595.4 176.801 596.067 182.668ZM551 391.601C551 399.468 544.734 405.601 542.467 399.868C541 396.134 541.667 393.068 544.467 389.468C548.6 384.268 551 384.934 551 391.601ZM544.334 413.868C544.334 417.068 542.334 418.534 539.534 417.468C537.934 416.934 537.8 416.134 539 414.001C540.867 410.534 544.334 410.534 544.334 413.868Z" fill="black"/>
<path d="M755.933 75.3318C751.667 76.6658 748.333 79.0658 748.333 80.7988C748.333 82.6658 760.6 82.1318 764.333 80.2657C771.933 76.3987 765.133 72.3988 755.933 75.3318ZM410.867 105.199C405.933 106.932 396.733 111.066 390.2 114.666C368.867 125.999 354.067 138.666 335 162.132C329.267 169.199 322.333 177.332 319.533 180.132C316.867 183.066 310.733 190.132 305.933 195.999C301.133 201.866 291 213.332 283.667 221.332C276.2 229.466 269.133 237.599 267.8 239.599C262.467 247.866 270.2 255.599 284.467 256.399C292.067 256.932 294.333 256.399 300.867 253.199C308.467 249.466 310.333 247.732 324.333 231.332C339.533 213.199 362.333 192.399 392.333 168.799C403.667 159.866 415.8 150.132 419.267 147.199C426.867 140.932 430.2 140.532 433 146.132C435 149.732 435 151.066 433.133 159.066C432.067 163.999 430.2 175.732 429 185.332C427.8 194.799 426.333 205.332 425.533 208.666C424.867 211.999 423.667 219.999 423 226.666C422.2 233.199 420.467 247.199 419.133 257.732C416.067 281.199 415.133 282.666 404.333 281.466C400.333 280.932 395.667 279.599 393.933 278.532C392.2 277.332 386.467 275.199 381.133 273.599C372.867 271.066 368.333 270.666 345 270.666C309.4 270.666 303.267 272.132 275.267 286.666C272.733 287.999 265.267 294.532 258.6 301.199C247.133 312.666 245.8 314.532 236.867 332.666C223.267 360.266 219 374.266 215.133 403.466C212.467 424.399 214.6 459.066 219.533 472.666C222.2 479.599 229.133 489.066 235.267 493.466C246.333 501.732 269 503.999 293.267 499.332C307.133 496.799 310.067 495.732 317.667 490.666C328.067 483.599 337.8 474.132 347.933 460.666C358.733 446.266 374.467 426.666 382.6 417.199C386.467 412.666 389.667 408.399 389.667 407.599C389.667 405.999 397.267 399.332 399.133 399.332C399.667 399.332 401.133 400.666 402.333 402.399C403.8 404.799 404.6 412.666 405.667 435.466C407.133 468.132 408.6 483.466 410.733 488.799C412.867 494.266 420.467 502.132 425.267 504.132C427.667 505.199 432.867 505.999 437 505.999C446.067 505.999 449.8 502.932 452.867 493.199C453.933 489.599 456.333 482.399 458.2 477.199C461.4 468.266 461.533 467.199 460.2 455.199C458.067 436.532 460.733 398.132 468.333 338.666C469 332.799 470.6 319.866 471.8 309.999C472.867 300.132 474.733 287.332 475.8 281.466C476.867 275.732 477.667 268.799 477.667 265.999C477.667 263.199 478.467 257.332 479.533 253.066C480.467 248.799 482.333 239.599 483.667 232.666C485.667 221.066 491.4 194.399 497.667 167.999C501 153.732 502.067 145.466 501.133 142.399C500.067 139.066 493.533 135.332 488.467 135.332C481.267 135.332 473.133 130.666 453.267 114.932C446.733 109.866 439.267 104.799 436.6 103.866C429.267 101.199 420.733 101.732 410.867 105.199ZM379.667 307.732C386.067 311.066 391 315.866 393.667 321.599C398.467 331.732 398.733 331.332 369.133 362.666C358.867 373.732 346.733 386.799 342.333 391.866C337.933 396.932 331.4 404.132 327.667 407.999C324.067 411.732 316.333 419.732 310.733 425.866C302.733 434.532 299.933 436.799 297.4 436.399C295.133 436.132 294.2 435.066 293.933 432.132C293.4 428.266 296.467 412.399 299.667 401.999C300.733 398.666 303.133 390.266 305 383.332C309.8 366.132 314.333 354.266 319 346.799C321.267 343.332 323 340.266 323 339.866C323 337.999 335.667 322.932 340.733 318.932C346.733 314.132 358.067 307.199 362.333 305.732C365.667 304.666 376.067 305.732 379.667 307.732ZM281.267 429.466C282.333 432.266 279.533 435.066 277.533 433.066C275.8 431.332 276.867 427.332 279 427.332C279.8 427.332 280.733 428.266 281.267 429.466ZM1308.33 103.332C1305.8 103.999 1301.8 105.466 1299.67 106.532C1297.4 107.732 1294.73 108.666 1293.67 108.666C1292.47 108.666 1291 109.199 1290.33 109.866C1289.53 110.666 1285.4 113.066 1281 115.332C1276.6 117.599 1270.6 120.799 1267.8 122.399C1262.33 125.466 1235 151.599 1226.47 161.999C1219.4 170.532 1210.73 180.799 1208.2 183.199C1207 184.399 1202.33 190.132 1197.67 195.999C1193.13 201.866 1188.07 207.866 1186.47 209.466C1179.13 216.666 1160.87 237.332 1159.4 239.999C1156.6 245.066 1159.4 250.399 1166.6 253.999C1171.67 256.532 1174.07 256.932 1180.87 256.266C1192.87 255.199 1199 251.199 1211.13 237.066C1226.6 219.066 1248.33 197.999 1265.67 183.999C1274.07 177.332 1281.93 170.932 1283 169.866C1289.8 163.466 1317.67 141.999 1319.4 141.999C1323.13 141.999 1327.27 148.799 1326.33 153.332C1325.93 155.466 1325 161.466 1324.2 166.666C1323.53 171.732 1322.33 178.132 1321.67 180.799C1320.87 183.332 1320.07 188.799 1319.67 192.799C1319.27 196.799 1317.93 206.532 1316.87 214.666C1315.67 222.666 1313.53 239.599 1311.93 252.132C1308.47 278.799 1307.13 281.999 1299 281.999C1295.93 281.999 1290.2 280.399 1285.4 278.132C1271.93 271.866 1263.8 270.666 1235 270.799C1211.27 270.932 1207.93 271.199 1196.6 274.399C1180.87 278.799 1171.13 283.466 1160.73 291.732C1146.33 302.932 1139 312.266 1128.6 332.666C1123.27 343.066 1119 352.132 1119 352.799C1119 353.599 1117.4 358.132 1115.53 362.799C1113.67 367.599 1111.53 374.932 1110.87 379.066C1105.13 415.466 1104.6 427.732 1107.67 451.332C1110.07 469.999 1111.53 475.332 1116.33 482.532C1128.2 499.999 1147 504.932 1182.33 499.866C1206.2 496.399 1219.8 487.199 1239.4 461.332C1243.93 455.466 1254.47 441.999 1262.87 431.466C1271.4 420.932 1280.33 409.866 1282.73 406.799C1288.87 399.199 1291 398.266 1293.67 401.732C1296.2 404.799 1296.73 410.666 1299 453.999C1299.8 469.066 1301 483.466 1301.67 486.132C1303.27 492.132 1312.2 502.399 1317.67 504.666C1322.73 506.799 1337.27 505.732 1339.93 502.932C1341.53 501.332 1346.47 488.799 1352.73 470.266C1353.8 466.799 1353.67 463.332 1351.8 453.999C1349.27 441.732 1349.4 428.399 1352.33 406.666C1353.13 401.466 1355.13 383.466 1357 366.666C1360.07 339.466 1361.27 329.199 1365.67 295.332C1366.33 290.532 1367.53 281.199 1368.33 274.666C1370.6 255.199 1378.2 217.066 1388.87 171.332C1390.6 163.599 1392.47 153.999 1393 149.866C1393.8 143.199 1393.67 141.999 1391 139.599C1389.4 138.132 1384.47 136.266 1379.53 135.332C1374.33 134.266 1368.47 132.132 1364.73 129.599C1356.47 124.132 1357.13 124.666 1346.6 115.999C1330.47 102.666 1322.47 99.9988 1308.33 103.332ZM1275.93 310.799C1283.8 316.132 1289.13 325.199 1287.8 330.532C1286.87 334.532 1279.4 343.866 1267.53 356.132C1262.47 361.332 1254.73 369.599 1250.33 374.532C1245.93 379.466 1239.67 386.399 1236.33 389.866C1233 393.332 1223.13 403.866 1214.33 413.332C1205.53 422.799 1197 431.866 1195.27 433.599C1193.4 435.599 1191.13 436.666 1189.27 436.399C1186.73 435.999 1186.33 435.199 1186.47 430.666C1186.73 422.132 1189.53 407.332 1192.33 398.932C1193.8 394.799 1195 390.399 1195 389.332C1195 386.799 1200.73 369.199 1205.13 357.999C1209.13 348.399 1217.67 334.666 1225.67 325.599C1230.47 320.132 1243.67 310.666 1252.33 306.399C1258.07 303.599 1268.07 305.466 1275.93 310.799ZM1173.93 428.932C1174.87 431.466 1173.67 433.999 1171.53 433.999C1170.47 433.999 1169.67 432.932 1169.67 431.599C1169.67 427.599 1172.73 425.732 1173.93 428.932ZM1449 104.399C1446.87 105.866 1444.33 107.732 1443.53 108.799C1441.4 111.466 1433 134.399 1429.8 145.999C1426.87 157.199 1418.2 200.399 1417 210.666C1416.47 214.266 1415.4 221.466 1414.33 226.666C1413.4 231.732 1411.8 241.332 1411 247.999C1410.2 254.532 1408.6 265.999 1407.4 273.332C1406.33 280.666 1404.87 291.466 1404.33 297.332C1403.67 303.199 1402.47 312.532 1401.67 317.999C1400.87 323.466 1399.4 334.266 1398.47 341.999C1397.4 350.132 1394.87 360.932 1392.33 367.999C1389.93 374.532 1387.27 384.399 1386.2 389.732C1385.27 395.066 1384.07 399.999 1383.8 400.532C1383.13 401.466 1382.33 406.666 1376.2 443.999C1374.73 453.466 1372.33 467.466 1370.87 474.932C1365.93 501.199 1368.47 515.866 1379 522.932C1387 528.399 1407.53 525.732 1425 516.799C1432.6 512.799 1433.8 509.732 1430.47 502.666C1429.27 500.266 1428.33 495.999 1428.33 493.199C1428.33 487.866 1448.73 425.599 1455 412.132C1457 407.732 1460.87 399.199 1463.53 393.332C1469.67 379.732 1480.2 359.332 1482.2 356.666C1483.13 355.599 1485.8 350.799 1488.2 345.999C1490.6 341.199 1494.07 335.466 1495.8 333.066C1497.53 330.799 1499 328.532 1499 327.999C1499 327.599 1502.47 321.999 1506.73 315.599C1510.87 309.199 1514.73 303.066 1515.27 301.999C1515.8 300.932 1519 296.399 1522.33 291.999C1525.67 287.599 1529.8 281.866 1531.53 279.332C1535.13 273.866 1557.53 245.599 1559 244.666C1559.53 244.266 1563 240.266 1566.73 235.732C1574.47 226.532 1575.93 224.932 1590.2 211.466C1595.67 206.266 1601.13 201.999 1602.33 201.999C1606.47 201.999 1607.4 208.666 1604.47 218.666C1601.4 229.199 1597 259.866 1595 283.999C1594.33 292.799 1593.13 303.599 1592.33 307.999C1591.67 312.399 1590.2 322.932 1589 331.332C1582.6 378.932 1577.53 405.732 1573.67 411.999C1569 419.599 1567.53 443.466 1570.47 462.932C1570.87 465.599 1573.13 469.332 1576.33 472.532C1581.13 477.466 1582.2 477.866 1591.53 478.666C1603.67 479.866 1617.53 478.399 1620.6 475.732C1622.73 473.866 1622.87 471.599 1622.2 455.466C1621.67 445.332 1622.07 427.599 1623 415.332C1623.93 403.199 1625.13 386.666 1625.67 378.666C1627 359.732 1630.07 338.666 1634.87 314.932C1642.73 277.199 1655.8 228.132 1660.33 220.399C1662.07 217.332 1667.8 197.599 1672.2 179.332C1674.33 170.932 1677.27 160.266 1678.73 155.599C1681.8 146.399 1681.27 142.799 1675.8 136.666C1674.2 134.799 1672.07 130.932 1671.13 127.999C1670.07 125.066 1668.6 121.866 1667.8 120.799C1665 117.332 1657.8 115.332 1647.13 115.066L1636.47 114.932L1629 120.799C1621.93 126.266 1604.47 139.466 1598.33 143.999C1584.6 154.132 1573.4 163.866 1561.4 176.132C1546.87 191.066 1541 198.132 1531.67 212.799C1522.33 227.466 1520.6 230.399 1506.33 257.332C1497.27 274.532 1484.2 297.332 1482.33 299.332C1481.27 300.532 1480.33 301.999 1480.33 302.532C1480.33 303.199 1477.67 307.732 1474.33 312.666C1471 317.599 1468.33 322.132 1468.33 322.666C1468.33 323.332 1466.87 325.599 1465.13 327.866C1463.4 330.132 1460.73 334.399 1459.13 337.332C1444.73 363.466 1444.07 364.532 1439.67 362.799C1437.93 362.132 1437.53 361.066 1438.2 357.599C1438.73 355.332 1439.67 348.266 1440.33 341.999C1441 335.732 1442.2 325.599 1442.87 319.332C1445.4 297.199 1449.27 277.466 1454.33 261.999C1459.13 247.466 1463.53 230.132 1470.33 200.399C1476.73 171.732 1477.4 169.066 1481.53 157.732C1485.67 146.266 1485.4 134.266 1480.73 126.266C1478.6 122.799 1476.47 118.266 1475.67 116.132C1474.07 111.332 1464.07 103.999 1457.67 102.799C1454.33 102.266 1451.8 102.666 1449 104.399Z" fill="black"/>
<path d="M409.667 506.668C407.267 509.601 409.534 513.334 413.8 513.334C416.467 513.334 417 512.668 417 509.334C417 506.268 416.334 505.201 414.2 504.934C412.734 504.668 410.6 505.468 409.667 506.668ZM389.667 511.468C380.333 515.201 376.733 524.268 381.667 531.334C387.667 539.734 395.4 540.668 402.333 534.001C407.8 528.668 408.467 522.934 404.2 517.468C401.933 514.534 394.867 509.734 393.4 510.134C393.133 510.134 391.533 510.801 389.667 511.468ZM351 522.668C348.733 525.334 350.333 530.934 353.8 532.001C356.733 532.934 361.667 529.601 361.667 526.668C361.667 524.534 357.267 520.668 354.733 520.668C353.533 520.668 351.933 521.601 351 522.668ZM445.4 525.334C444.334 527.868 444.334 530.001 445.534 534.134C447.134 539.334 447.4 539.468 451.4 538.668C456.6 537.468 461.667 533.068 461.667 529.734C461.667 522.534 448.334 518.801 445.4 525.334ZM310.467 543.201C307.267 546.801 308.2 552.534 312.734 555.734L316.334 558.534L320.067 555.734C324.6 552.401 325.4 547.068 321.8 543.468C318.334 540.001 313.4 539.868 310.467 543.201ZM439.8 542.668C437 545.601 437.133 547.734 440.2 550.534C444.467 554.401 447.667 552.801 447.667 546.668C447.667 542.268 447.133 541.201 444.867 540.934C443.267 540.668 441 541.468 439.8 542.668ZM351.4 548.668C347.267 551.201 343 557.334 343 560.934C343 561.868 344.867 565.068 347.267 567.868C351.267 572.668 351.8 572.934 357.533 572.268C368.6 571.068 372.733 561.201 366.067 552.134C364.333 549.601 358.067 545.868 355.8 546.001C355.667 546.001 353.8 547.201 351.4 548.668ZM381.267 548.268C379.267 550.134 380.334 557.868 382.734 559.068C388.6 562.268 394.6 554.801 390.2 549.868C387.934 547.334 383 546.401 381.267 548.268ZM424.867 550.668C423.667 553.734 425.267 556.668 428.2 556.668C431.267 556.668 432.467 554.268 430.734 550.934C429.267 548.134 425.8 548.001 424.867 550.668ZM408.6 558.268C406.067 560.801 406.734 565.734 409.667 567.334C415.8 570.668 421.4 564.268 416.867 559.201C414.2 556.268 411 555.868 408.6 558.268ZM380.867 570.668C380.333 571.868 380.6 573.468 381.4 574.268C383.4 576.268 387.267 574.401 386.733 571.734C386.2 568.668 381.933 567.868 380.867 570.668ZM407.4 601.468C407 602.534 407.267 604.134 408.067 604.934C410.2 607.068 413.667 605.201 413.667 602.001C413.667 598.801 408.6 598.268 407.4 601.468ZM457.133 608.134C452.733 612.401 455.4 618.001 461.933 618.001C467.267 618.001 469.8 612.534 466.333 608.668C463.4 605.468 459.933 605.201 457.133 608.134ZM393.267 614.934C391.4 616.668 392.467 622.001 394.867 623.334C399.8 625.868 403.534 622.401 401.534 616.934C400.467 614.134 395.267 612.801 393.267 614.934ZM489.134 616.001C487.934 617.201 487 618.934 487 619.868C487 620.801 485.8 622.668 484.334 624.001C479.8 628.001 482.734 628.668 489.8 625.201C495.534 622.268 496.467 621.334 496.067 618.268C495.534 614.001 492.2 612.934 489.134 616.001ZM438.467 635.201C435.534 638.534 436.734 642.934 441.134 644.934C443.667 646.134 444.867 646.001 447 644.001C449.934 641.334 450.467 636.668 448.067 634.268C445.667 631.868 441 632.401 438.467 635.201ZM507.8 658.668C503.667 662.801 505.667 668.668 511.133 668.668C514.2 668.668 515.133 667.868 515.8 665.068C517.4 658.668 512.067 654.401 507.8 658.668ZM469.267 660.134C468.2 661.201 469.4 663.334 471.134 663.334C471.8 663.334 472.334 662.401 472.334 661.334C472.334 659.334 470.734 658.668 469.267 660.134ZM525.8 664.534C523.667 668.534 525.4 671.601 529.533 671.068C532.467 670.801 533 670.001 533 666.668C533 663.601 532.333 662.534 530.067 662.268C528.2 662.001 526.6 662.801 525.8 664.534ZM1381.67 670.134C1379.8 670.934 1375.67 672.134 1372.33 672.668C1351.13 676.801 1350.87 676.934 1348.73 680.268C1346.6 683.468 1346.6 684.001 1350.07 690.001C1354.07 697.068 1354.73 704.668 1351.8 710.001C1337.8 736.001 1334.73 741.868 1334.07 744.668C1333.67 746.534 1331.93 750.668 1330.2 754.001C1324.87 764.134 1316.73 782.401 1315.8 786.534C1315.27 788.534 1313.8 792.801 1312.33 795.868C1308.73 803.734 1300.33 831.334 1300.33 835.068C1300.33 836.801 1299.67 839.468 1298.73 841.068C1297.93 842.668 1296.07 847.868 1294.87 852.668C1292.33 861.734 1293.27 865.601 1297.53 864.001C1298.73 863.468 1303.8 862.268 1308.87 861.201C1313.93 860.134 1318.87 858.668 1319.67 858.001C1320.47 857.334 1323.67 856.401 1326.73 855.868C1334.2 854.668 1336.87 851.068 1339 839.734C1340.73 830.401 1345.27 815.334 1348.73 807.201C1354.33 794.134 1357.67 785.734 1360.47 777.601C1364.07 766.934 1367.53 764.001 1371 768.401C1373.4 771.334 1374.07 775.734 1376.33 802.668C1377.13 811.468 1378.33 821.334 1379 824.668C1379.67 828.001 1380.2 836.134 1380.33 842.934C1380.33 849.601 1380.73 856.001 1381.13 857.201C1382.2 859.868 1389.13 860.001 1393.67 857.334C1395.53 856.268 1399.13 855.468 1401.67 855.334C1404.33 855.334 1409.8 854.134 1414.07 852.668C1418.2 851.201 1422.47 850.001 1423.53 850.001C1426.33 850.001 1426.87 848.801 1431.93 831.468C1436.87 814.801 1439.93 804.401 1444.33 790.268C1445.93 785.334 1448.33 777.068 1449.67 771.734C1454.33 753.201 1471.27 715.468 1479.93 703.868C1481.67 701.601 1483 699.068 1483 698.134C1483 697.201 1485 693.334 1487.53 689.601C1492.87 681.468 1494.07 678.001 1492.47 675.601C1491.27 673.468 1489.8 673.468 1473.27 674.934C1459.8 676.134 1459.8 676.134 1450.87 692.534C1448.33 697.334 1443.53 706.134 1440.33 712.001C1429.4 732.268 1420.33 751.201 1420.33 754.401C1420.2 757.868 1415 767.334 1413.13 767.334C1410.07 767.334 1408.6 763.601 1407.13 751.868C1406.33 746.134 1405.13 738.268 1404.47 734.668C1403.8 730.934 1402.6 724.134 1401.67 719.334C1400.87 714.534 1399 705.334 1397.53 698.934C1396.07 692.534 1394.33 683.868 1393.67 679.868C1391.8 668.934 1389.53 667.068 1381.67 670.134ZM539.4 674.801C538.333 677.468 540.467 681.201 543.4 681.734C546.333 682.401 549 677.068 546.867 674.534C544.733 672.001 540.467 672.134 539.4 674.801ZM1061 674.134C1058.87 674.801 1038.73 676.001 1016.33 676.801C981 678.001 975.267 678.401 972.333 680.534C970.067 682.268 967.667 687.068 963.933 698.001C959.533 711.334 959.133 713.334 960.867 715.068C962.467 716.668 963.8 716.801 968.867 715.468C972.2 714.668 976.867 714.001 979.4 714.001C981.933 714.001 985.933 713.334 988.2 712.534C991.4 711.468 993.4 711.334 995.8 712.534C999.8 714.268 999.933 718.001 995.933 722.934C992.733 726.801 984.067 744.001 982.333 750.001C981.8 751.868 980.6 754.534 979.667 756.001C978.867 757.468 977.267 761.068 976.333 764.001C975.4 766.934 973.533 771.068 972.2 773.334C970.733 775.468 969.667 778.268 969.667 779.334C969.667 780.401 968.867 782.934 967.8 784.934C965.533 789.334 956.867 814.534 955.667 820.001C954.067 828.401 951 830.401 939 831.201C926.2 832.134 925.8 832.668 919.8 848.134C916.333 857.068 916.2 858.401 917.933 860.134C919.667 861.868 926.867 862.134 967.267 862.134C993.267 862.134 1015.4 861.734 1016.47 861.334C1018.2 860.668 1024.2 849.468 1026.33 842.668C1029.53 833.334 1029.53 832.534 1026.87 829.868C1024.73 827.734 1022.47 827.334 1011.67 827.334C996.733 827.334 995.267 826.134 998.2 816.534C999.133 813.334 1001.67 805.201 1003.53 798.668C1005.53 792.001 1008.87 781.868 1011 776.001C1022.2 744.401 1026.07 734.134 1028.6 729.201C1030.73 725.068 1031.13 722.401 1030.6 718.668C1029.27 710.934 1030.87 710.001 1045.13 710.001C1056.07 710.001 1057.93 709.601 1061 706.934C1063.13 705.068 1064.73 702.134 1065.27 698.668C1065.67 695.734 1067.53 690.268 1069.4 686.401C1072.6 679.868 1072.73 679.468 1070.47 676.134C1068.07 672.401 1067.13 672.268 1061 674.134ZM1325.67 674.268C1323.13 674.801 1308.47 675.868 1293 676.668C1235.4 679.334 1233.13 679.734 1231.53 688.268C1231.13 691.068 1229 697.468 1226.87 702.534C1224.73 707.601 1223.27 712.801 1223.67 714.268C1224.6 716.934 1229 717.468 1235.53 715.468C1245.8 712.401 1255.4 711.334 1258.73 713.068C1260.6 713.868 1262.33 715.334 1262.6 716.001C1262.87 716.801 1260.87 720.668 1258.33 724.668C1255.8 728.668 1253.67 732.801 1253.67 734.001C1253.67 735.068 1252.2 738.268 1250.33 740.934C1248.47 743.601 1247 746.801 1247 748.001C1247 750.001 1245.4 753.734 1237.67 770.668C1233.27 780.134 1229.8 790.534 1228.87 796.668C1228.33 800.001 1226.6 805.068 1224.87 808.001C1223.13 810.934 1220.87 816.934 1219.8 821.334C1216.87 832.268 1215.53 833.334 1203.93 833.334C1190.47 833.468 1187.13 836.001 1184.87 848.268C1184.33 851.068 1182.87 855.601 1181.4 858.401C1179.93 861.201 1179 864.801 1179.27 866.401C1179.67 869.734 1178.87 869.734 1204.33 867.468C1212.73 866.801 1221.8 865.468 1224.33 864.668C1226.87 863.734 1240.33 862.668 1254.07 862.401C1282.2 861.601 1281.53 861.868 1284.47 850.668C1285.27 847.734 1287 842.801 1288.47 839.734C1290.07 836.401 1290.87 832.934 1290.33 831.334C1289.4 828.401 1289.13 828.401 1272.47 828.134C1259.13 828.001 1257.27 826.401 1260.87 819.201C1262.07 816.668 1263.93 811.068 1265 806.668C1266.73 799.068 1272.6 780.401 1275 774.668C1276.07 772.134 1276.87 769.734 1282.33 753.334C1283.53 749.601 1286.87 741.201 1289.8 734.668C1292.73 728.001 1295 721.201 1295 719.334C1295 712.801 1297.93 711.334 1312.33 710.401C1317.8 710.134 1323.4 709.068 1324.87 708.268C1327.8 706.268 1335.4 681.468 1334.33 677.201C1333.53 673.468 1331.53 672.801 1325.67 674.268ZM825.934 675.868C811 677.068 807.934 677.734 806.734 679.734C805.8 681.468 806.2 686.268 808.2 696.401C811 710.534 811 710.668 817.267 716.268L823.534 721.734L818.467 732.268C812.334 744.401 807.8 756.001 799.534 780.001C796.2 789.468 792.734 799.068 791.8 801.334C790.867 803.468 788.467 810.401 786.467 816.668C784.467 822.934 782.334 829.201 781.8 830.668C781.134 832.134 779.4 836.668 777.667 840.668C769.8 859.868 769.534 863.334 776.067 863.201C789.267 863.068 808.734 860.668 812.2 858.934C814.467 857.868 818.2 856.534 820.6 856.001C834.2 853.468 874.067 834.934 885.934 825.601C896.2 817.601 912.2 802.134 914.334 797.868C915.4 795.868 917.134 794.001 918.334 793.601C919.4 793.068 920.334 792.001 920.334 791.201C920.334 790.268 921.134 788.534 922.2 787.468C923.267 786.268 926.2 780.801 929 775.334C931.667 769.868 934.6 763.868 935.667 762.001C936.6 760.134 937.8 755.601 938.334 752.001C938.734 748.268 940.467 740.268 941.934 734.134C945.267 720.401 944.6 711.734 939.534 702.668C935.134 694.934 931.934 691.468 925 687.201C913.4 680.134 905.534 677.868 886.334 676.001C865.134 673.868 851.534 673.734 825.934 675.868ZM890.067 708.001C895.934 710.401 902.6 718.401 904.467 725.334C907.8 737.201 901.534 761.734 892.2 774.001C889.4 777.734 877 790.268 870.6 796.001C861.934 803.734 832.467 819.334 826.6 819.334C821.667 819.334 821.534 816.801 825.667 807.068C827.667 802.268 832.2 790.668 835.667 781.201C839.134 771.734 843.8 759.201 845.934 753.334C848.2 747.468 850.6 740.534 851.4 738.001C852.2 735.468 854.2 731.601 855.934 729.601C860.067 724.534 859.8 720.534 855 716.001C851.134 712.401 849.934 708.801 851.934 706.934C853.667 705.068 885.134 706.001 890.067 708.001ZM1545 676.001C1521.13 679.601 1500.07 693.068 1485.93 713.868C1475 729.734 1472.47 734.534 1468.47 747.068C1458.6 778.401 1461.13 816.001 1474.73 835.601C1483.53 848.401 1500.33 862.001 1507.27 862.001C1509.13 862.001 1512.87 862.934 1515.4 864.001C1521.93 866.668 1539.8 866.668 1546.47 863.868C1550.87 862.001 1552.6 862.001 1558.73 863.468C1564.33 864.801 1567.53 864.801 1573.53 863.601C1577.67 862.668 1584.87 862.001 1589.4 862.001C1599.13 862.001 1602.33 859.734 1603.67 851.734C1604.6 846.268 1607 837.334 1611 823.334C1612.33 818.534 1614.87 808.934 1616.47 802.001C1618.07 795.068 1620.2 787.601 1621.27 785.601C1622.33 783.468 1623 780.268 1622.73 778.401C1622.33 774.934 1622.2 774.934 1612.33 775.201C1600.87 775.468 1589.27 777.468 1584.2 780.134C1581.67 781.334 1580.33 783.334 1579.8 786.934C1579.27 789.734 1577.27 796.668 1575.27 802.534C1569.13 820.934 1555.93 830.001 1535.53 830.001C1525.27 830.001 1518.87 827.868 1511.8 822.001C1508.2 819.068 1500.73 807.334 1498.2 800.534C1495 792.268 1495.13 770.401 1498.33 760.668C1501.13 752.401 1506.6 740.934 1509.13 738.001C1518.47 727.468 1521.93 724.668 1531.67 720.134C1544.2 714.268 1560.6 712.534 1567.93 716.534C1569.27 717.201 1572.2 718.401 1574.33 719.334C1576.6 720.134 1580.33 723.468 1582.87 726.801C1588.47 734.134 1592.47 735.334 1597.8 731.468C1599.93 729.868 1604.2 727.334 1607.4 726.001C1610.47 724.534 1615.13 722.134 1617.67 720.668C1620.2 719.201 1623.53 718.001 1625.13 718.001C1628.33 718.001 1633.67 712.801 1633.67 709.734C1633.67 707.201 1618.07 691.068 1612.73 688.134C1591.8 676.534 1568.6 672.401 1545 676.001ZM135 677.468C117.534 679.601 105.8 685.201 107.8 690.534C110.2 696.801 132.067 701.734 165 703.334C178.2 704.001 194.467 705.468 201.267 706.401C210.734 707.868 216.467 708.001 226.6 706.934C248.334 704.668 249.8 704.801 256.2 709.868C259.267 712.401 262.467 715.734 263.134 717.468C263.667 719.201 264.2 727.334 264.2 735.601C264.067 749.734 263.667 751.734 258.067 768.668C249 796.001 244.334 813.868 244.334 821.601C244.334 832.934 242.734 834.934 232.467 836.534C227.667 837.201 214.867 838.134 204.067 838.534L184.6 839.201L176.334 832.668C171.667 828.934 166.867 826.001 165.4 826.001C160.334 826.001 155 830.534 151.4 837.868C147.4 845.734 143.934 848.801 120.334 866.134C108.734 874.668 88.5998 884.268 53.2668 898.134C28.7338 907.601 18.1998 914.534 21.7998 918.801C22.8668 920.001 27.6668 920.268 40.7338 919.734C58.0668 919.068 58.5998 918.934 77.6668 911.734C88.3338 907.734 99.5338 903.201 102.6 901.868C105.8 900.534 108.6 899.334 109 899.334C109.8 899.334 130.334 886.668 142.6 878.534C147.667 875.334 156.467 870.801 162.334 868.534C173 864.401 173.134 864.401 192.334 865.068C208.467 865.601 214.2 866.401 227 870.001C235.4 872.268 246.067 876.001 250.734 878.134C261.8 883.468 269.934 884.534 286.867 883.201C310.6 881.334 343.267 879.068 351.667 878.934C358.067 878.668 359.667 879.068 360.067 880.801C360.467 883.334 345.934 894.001 341.934 894.001C337.934 894.001 336.334 896.801 336.334 904.001C336.334 912.001 339.267 918.001 345.534 922.668C353.667 928.534 358.867 926.534 373.134 911.468C378.467 905.868 383.8 900.401 384.867 899.334C386.067 898.268 392.334 892.001 398.867 885.601L410.734 873.868L425.8 873.201C434.2 872.801 441.667 872.268 442.6 872.001C443.534 871.734 451.267 872.001 459.8 872.801C478.2 874.268 482.067 876.001 481.4 882.268C481 886.268 480.334 886.668 469 890.668C454.2 895.734 451.4 897.334 450.334 900.668C449.667 902.801 448.334 903.334 443.4 903.334C433.267 903.334 424.2 909.468 426.2 914.801C427 917.068 434.6 917.201 450.734 915.334C460.467 914.268 463.267 913.201 474.067 907.068C480.867 903.201 492.067 895.601 499.134 890.268C511.4 880.668 519.4 876.801 530.334 874.801C533.267 874.268 540.467 871.468 546.334 868.668C552.2 865.868 559.934 862.934 563.534 862.134C567.134 861.201 572.867 859.068 576.467 857.334C580.067 855.468 583.667 854.001 584.6 854.001C587.8 854.001 607.8 837.201 615.134 828.268C619.134 823.468 623 819.734 623.667 819.868C626.2 820.534 625.667 826.668 622.734 831.601C621 834.401 616.734 840.801 613.134 846.001C607 854.801 606.6 856.001 605.8 866.268C605.134 875.601 604.467 877.868 601.667 880.801C596.867 885.734 586.467 897.868 585.267 900.001C583.8 902.668 587 908.668 591.134 910.801C596.2 913.334 600.734 913.201 604.334 910.268C607.4 907.734 607.934 904.401 606.334 896.401C605.4 892.134 605.934 890.534 610.067 884.401C612.6 880.534 615.4 874.668 616.334 871.334C617.134 868.134 621.4 858.534 625.667 850.134C636.467 828.668 639 822.668 639 818.001C639 814.001 644.867 800.934 647.534 799.068C650.6 796.934 655 798.134 657.267 801.601C658.467 803.734 659.667 805.601 659.934 805.868C660.067 806.134 662.2 806.534 664.467 806.801C669.667 807.468 671.534 808.934 673.667 813.868C674.467 816.001 676.334 818.001 677.667 818.401C680.334 819.068 690.2 816.668 694.6 814.268C698.2 812.268 704.334 803.601 704.334 800.401C704.334 799.201 701.667 796.268 698.334 794.001C691.667 789.468 690.2 784.268 695 782.668C699 781.334 699.934 778.668 701.667 762.668C703.8 741.201 701.534 732.001 691.267 720.668C684.734 713.334 677.267 709.201 665 706.134C657.134 704.001 649.667 704.401 643.667 707.201C638.2 709.601 627 720.934 627 724.001C627 724.934 626.067 726.401 625 727.334C623.8 728.268 622.334 731.601 621.534 734.801C619 744.534 617 744.934 609.8 737.334C606.334 733.601 601.934 729.468 600.067 728.134C597.667 726.268 596.2 723.734 595.667 720.134C595.134 717.068 593.667 712.668 592.2 710.268C590.867 707.868 589.667 705.068 589.667 704.001C589.667 698.801 581.134 690.001 576.2 690.001C575.4 690.001 572.334 692.134 569.534 694.668C563.934 699.601 559 700.668 556.2 697.201C552.6 692.801 546.867 691.201 531.267 690.401L515.667 689.601L485.667 700.001C455.534 710.268 450.334 712.134 415 724.801C401.055 729.676 387.1 734.52 373.134 739.334C347 748.401 343.934 750.134 343.934 756.668C343.934 760.534 349.134 776.668 354.6 790.001C357.134 796.134 362.867 798.668 369.667 796.668C374.6 795.201 375.8 796.934 373 801.201C371.4 803.601 369 804.801 364.6 805.468C361.134 806.134 357.667 806.401 357 806.268C355.534 806.001 332.467 811.201 320.467 814.668C316.467 815.734 311.934 817.468 310.2 818.668C308.467 819.734 306.467 820.668 305.667 820.668C304.734 820.668 300.867 822.801 296.867 825.468C291.934 828.668 288.867 830.001 287 829.334C283.4 828.268 283.667 824.934 287.667 817.068C292.6 807.468 294.334 792.401 292.334 775.601C291.4 767.334 291.134 758.134 291.8 752.268C292.334 747.068 292.867 735.201 292.867 726.001C293 711.734 293.4 708.668 295.8 704.668C297.4 702.134 299.4 696.801 300.334 693.068C302.067 686.401 302.067 685.868 299.134 682.801C296.334 679.868 294.734 679.468 281.267 678.801C263 677.868 141.534 676.801 135 677.468ZM1107.4 678.001C1104.33 678.668 1100.6 679.868 1099.13 680.534C1097.67 681.334 1094.73 682.001 1092.6 682.001C1086.2 682.001 1080.33 684.668 1079.67 687.734C1079.4 689.334 1078.87 719.468 1078.47 754.668C1078.2 789.868 1077.13 826.668 1076.33 836.534C1074.33 858.534 1074.47 858.668 1088.6 858.268C1098.87 858.001 1117.27 855.601 1119.93 854.134C1122.07 853.068 1136.33 835.068 1136.33 833.601C1136.33 832.934 1138.33 830.001 1140.87 826.934C1143.4 823.868 1147 818.268 1149.13 814.668C1151.13 810.934 1153.93 806.134 1155.27 804.001C1156.6 801.734 1158.07 799.068 1158.6 798.001C1159 796.934 1160.73 793.868 1162.33 791.334C1166.33 784.934 1171.8 775.201 1177.93 763.601C1180.73 758.134 1184.47 751.601 1186.07 748.934C1187.67 746.268 1190.47 741.334 1192.07 738.001C1193.8 734.668 1196.2 730.134 1197.53 728.001C1198.87 725.734 1201.93 720.401 1204.33 716.001C1206.73 711.601 1209.93 706.534 1211.27 704.668C1216.47 697.868 1223 687.068 1223 685.334C1223 681.334 1219.13 680.134 1212.33 681.868C1208.73 682.801 1204.07 683.468 1202.07 683.334C1192.33 682.668 1190.33 684.134 1178.33 700.668C1174.33 706.134 1170.2 711.601 1169 712.801C1167.93 714.001 1167 715.201 1167 715.734C1167 716.134 1163.67 721.201 1159.67 726.934C1155.67 732.668 1150.07 741.601 1147.13 746.934C1144.07 752.134 1141 756.934 1140.2 757.468C1139.4 757.868 1137.53 760.801 1136.07 763.868C1129 778.401 1122.07 790.534 1120.07 791.868C1118.33 792.934 1117.27 792.801 1116.07 791.601C1114.87 790.401 1114.87 787.734 1116.07 778.934C1117 772.934 1118.6 757.201 1119.67 744.001C1120.73 730.801 1122.2 714.534 1123 708.001C1124.47 694.401 1124.73 681.868 1123.53 678.801C1122.6 676.401 1116.87 676.134 1107.4 678.001ZM229.933 990.801C225.4 993.868 226.333 999.868 231.4 1000.4C235.933 1000.93 239 998.668 239 994.801C239 991.734 236.733 988.668 234.333 988.668C233.533 988.668 231.533 989.601 229.933 990.801ZM1357.53 990.801C1356.33 992.134 1355.8 996.001 1356.07 1001.47C1356.2 1008.53 1355.8 1010.13 1353.8 1011.33C1351.93 1012.27 1350.47 1012 1348.07 1010C1345.13 1007.87 1344.2 1007.73 1340.07 1009.07C1337.4 1010 1334.2 1011.6 1333 1012.67C1329.27 1015.73 1324.33 1027.47 1324.33 1032.93C1324.33 1039.07 1329.93 1051.87 1333.93 1054.53C1337.53 1057.07 1343.4 1057.33 1347.4 1055.07C1349 1054.13 1353.67 1053.47 1357.67 1053.33C1364.87 1053.33 1364.87 1053.33 1365.8 1048.67C1367.4 1041.47 1367 992.268 1365.4 990.268C1363.53 988.001 1359.67 988.268 1357.53 990.801ZM1351.4 1019.6C1356.73 1024.53 1357.8 1029.87 1355 1037.87C1351.8 1047.47 1349.93 1049.2 1344.2 1047.73C1338.07 1046.13 1336.07 1042 1336.73 1031.47C1337.13 1023.87 1337.53 1022.67 1341.13 1019.87C1345.93 1015.87 1347.4 1015.87 1351.4 1019.6ZM1589.13 991.201C1585.93 994.668 1586.87 998.401 1591.4 999.868C1598.6 1002.4 1603.53 995.068 1597.4 990.801C1593.53 988.001 1591.93 988.134 1589.13 991.201ZM131.533 992.801C129.267 993.468 126.6 994.801 125.8 995.868C123.533 998.534 122.467 1051.07 124.467 1053.6C125.267 1054.53 127.4 1055.33 129 1055.33C133.933 1055.33 135.4 1052.13 134.6 1043.2C134.067 1036.27 134.333 1034.67 136.6 1032.4C138.467 1030.53 140.2 1030 142.733 1030.67C147.267 1031.73 151 1035.07 151 1038C151 1039.33 152.2 1041.87 153.667 1043.73C155.133 1045.6 156.333 1047.87 156.333 1048.93C156.333 1052.4 160.467 1056.8 163.267 1056.4C169 1055.6 169.267 1052 164.6 1043.07C162.2 1038.4 159 1033.07 157.4 1031.07L154.6 1027.47L160.067 1021.47C164.6 1016.53 165.667 1014.4 165.667 1010.4C165.667 1002.93 162.067 998.268 153.667 994.534C146.067 991.334 138.6 990.668 131.533 992.801ZM150.333 1004C154.6 1008.13 154.6 1013.87 150.333 1018.53C146.6 1022.53 139.133 1023.33 136.333 1020C133.4 1016.53 133 1005.47 135.667 1002.93C139 999.468 146.467 1000 150.333 1004ZM341.133 994.134C339.267 995.601 337.667 998.001 337.667 999.468C337.667 1000.93 336.467 1004.4 335 1007.33C333.533 1010.27 331.533 1016 330.467 1020.27C329.533 1024.53 327 1031.87 325 1036.67C320.333 1047.87 319.533 1052.93 322.2 1055.2C326.333 1058.67 330.067 1056 331.533 1048.4C333 1041.87 335.133 1040.93 347.933 1041.2L359.667 1041.47L361.667 1046.93C364.333 1054.13 366.867 1056.93 370.2 1056.4C374.733 1055.73 373.533 1045.33 367.133 1028.93C364.067 1021.33 361.667 1014.13 361.667 1012.93C361.667 1011.73 360.467 1008.67 359 1006.27C357.533 1003.87 356.333 1001.2 356.333 1000.27C356.333 997.734 349.8 991.334 347.133 991.334C345.8 991.334 343.133 992.534 341.133 994.134ZM353 1019.07C356.2 1030 355.133 1032 346.2 1032C339.8 1032 339.667 1031.87 339.267 1027.87C339 1025.47 339.8 1021.33 340.867 1018.67C342.067 1015.87 343 1012.67 343 1011.47C343 1010.27 343.667 1008.53 344.6 1007.6C347.133 1005.07 350.2 1009.33 353 1019.07ZM701.8 992.534C699.134 994.268 699.667 999.734 703.534 1011.73C705.4 1017.47 707 1023.87 707 1026C707 1028.13 707.534 1031.2 708.2 1032.93C708.867 1034.67 710.467 1039.6 711.8 1044C714.867 1054.13 717 1056.67 722.467 1056.67C727 1056.67 731 1052.93 731 1048.67C731 1047.6 731.934 1044.93 733 1042.93C734.867 1039.33 737.267 1028.13 737.934 1020C738.2 1017.07 739 1016 741 1016C742.867 1016 743.8 1017.33 744.734 1021.33C748.2 1037.73 752.867 1052.27 755.267 1054.27C761 1059.33 766.467 1056.4 769.8 1046.67C770.734 1043.73 771.934 1040.67 772.467 1040C772.867 1039.2 774.334 1034 775.667 1028.27C776.867 1022.53 778.734 1015.87 779.667 1013.6C782.734 1006 783.534 996.001 781 993.601C778.334 990.801 775.534 991.868 773.934 996.401C771.934 1001.73 768.6 1015.2 767.667 1021.33C766.6 1027.6 761.8 1039.33 760.2 1039.33C758.2 1039.33 756.334 1034.27 756.334 1028.4C756.334 1025.2 754.867 1018.4 753.134 1013.33C751.4 1008.13 749.534 1002 749 999.734C747.4 991.868 739.4 989.468 736.067 995.734C734.2 999.334 730.334 1014 727.534 1028.4C726.2 1035.47 724.6 1039.87 723.4 1040.27C720.734 1041.33 719 1038.4 719 1033.07C719 1030.67 717.8 1025.2 716.467 1021.07C715 1016.8 713.4 1009.6 713 1005.07C711.8 994.134 707.267 989.068 701.8 992.534ZM944.733 992.801C940.867 993.734 938.867 995.068 938.2 997.068C937.667 998.668 937.267 1011.6 937.133 1025.87C937 1053.73 937.667 1056.67 943.667 1056.67C948.067 1056.67 950.2 1052.27 949.133 1045.6C947.933 1038 950.733 1034 957.4 1034C964.2 1034 973.8 1027.87 976.733 1021.6C979.8 1015.33 979.533 1008 976.333 1002.8C971.133 994.268 957.267 989.868 944.733 992.801ZM962.067 1003.33C966.733 1007.07 968.467 1012.53 966.333 1017.47C964.2 1022.53 962.067 1024.13 956.067 1025.2C951.933 1026 950.867 1025.6 949.8 1023.47C947.8 1019.87 947.933 1004.27 949.933 1002.27C952.333 999.868 958.2 1000.4 962.067 1003.33ZM1247.93 993.734C1245.93 995.868 1245.67 1000 1245.67 1024.4C1245.67 1050.93 1245.8 1052.8 1248.33 1055.33C1251.53 1058.53 1252.87 1058.67 1255 1056C1257.27 1053.33 1257.13 995.868 1254.87 993.201C1252.73 990.668 1250.47 990.801 1247.93 993.734ZM573.4 1001.6C572.333 1002.93 570.867 1005.47 569.933 1007.33C569 1009.2 567.667 1011.73 566.733 1012.93C565.4 1014.8 565.667 1015.87 568.467 1018.93C571.667 1022.4 571.933 1023.33 571.267 1031.73C570.2 1048.13 574.733 1056.67 584.867 1056.67C592.867 1056.67 595.133 1051.6 588.6 1048.13C583.533 1045.47 581.667 1040.8 581.667 1030.53V1021.73L587 1019.73C593.8 1017.07 594.067 1013.47 587.667 1010.8C585.133 1009.73 583 1008 583 1006.93C583 1004.93 578.2 999.334 576.467 999.334C575.933 999.334 574.6 1000.4 573.4 1001.6ZM890.6 1001.07C889.4 1001.87 887 1005.47 885.133 1008.93C881.933 1015.07 881.933 1015.2 884.333 1018.27C886.2 1020.67 886.867 1024.13 887.133 1032.67C887.667 1050.93 890.867 1056.53 900.467 1056.67C908.6 1056.67 910.6 1050.8 903.533 1047.47C899.133 1045.47 897.667 1041.07 897.667 1030C897.667 1020.93 897.8 1020.67 901.4 1019.87C907.8 1018.53 908.333 1018.13 908.333 1015.33C908.333 1013.47 907 1012.13 904.333 1011.07C902.067 1010.4 899.4 1008.13 898.333 1006.13C895.533 1000.53 893.267 999.068 890.6 1001.07ZM804.867 1009.6C796.467 1014 794.733 1015.87 791.267 1024.53C787.8 1032.93 787.8 1033.07 790.2 1038.4C791.133 1040.8 792.733 1044.53 793.667 1046.93C794.6 1049.47 797.267 1052.4 800.2 1054.13C804.333 1056.53 806.467 1056.93 815.4 1056.4C826.067 1055.73 828.733 1054.4 827.933 1050C827.667 1048.4 825.8 1048.13 819.133 1048.4C814.6 1048.67 809 1048.13 807 1047.33C802.6 1045.47 799.533 1039.33 801.4 1036C802.067 1034.8 802.333 1030.8 801.933 1027.33C801.4 1021.07 801.533 1020.67 805.8 1018.13C808.333 1016.53 811 1015.33 811.933 1015.33C814.733 1015.33 819 1021.07 819 1024.93C819 1029.2 815.8 1031.33 810.6 1030.4C807.933 1029.87 807 1030.27 807 1031.73C807 1034.53 812.733 1035.6 821.267 1034.53C827.533 1033.87 828.733 1033.2 829.8 1030.13C832.867 1022.13 828.2 1014.67 816.333 1008.67L811.4 1006.13L804.867 1009.6ZM1559.53 1007.33C1557.93 1008 1556.2 1009.07 1555.67 1009.87C1555.27 1010.67 1553.8 1011.33 1552.47 1011.33C1549 1011.33 1544.33 1016.93 1544.33 1021.2C1544.33 1026.53 1549.13 1032.67 1555.67 1035.47C1562.6 1038.53 1564.73 1040.93 1564.07 1044.93C1563.67 1048.13 1563.13 1048.27 1548.33 1047.07C1544.47 1046.67 1543.67 1047.07 1543.27 1049.6C1542.33 1056.27 1560.33 1059.33 1569 1054C1580.33 1046.93 1577.53 1035.47 1562.73 1028C1555 1024.13 1553.67 1021.47 1557.27 1017.73C1559.8 1015.2 1560.73 1015.07 1563.67 1016.4C1565.53 1017.33 1568.6 1018 1570.47 1018C1573.13 1018 1573.8 1017.47 1573.4 1015.2C1572.87 1011.33 1563.27 1005.87 1559.53 1007.33ZM262.067 1009.87C255 1012.67 253 1014.53 254.2 1017.33C255.133 1019.87 259.133 1019.6 266.467 1016.53C270.2 1015.07 271 1015.2 274.867 1017.87C279.533 1021.2 280.333 1026.27 276.733 1030.27C274.733 1032.53 274.733 1032.8 276.733 1035.07C279.4 1038 279.533 1040.67 277.533 1045.2C275.667 1049.2 271 1050.53 266.467 1048.4C261.4 1046.13 261.8 1040.53 267.267 1036C270.6 1033.2 271.133 1032.27 269.533 1031.2C266.867 1029.47 264.067 1029.73 258.6 1032C253.267 1034.13 251 1037.33 251 1042.53C251 1053.73 263.667 1060.4 273.667 1054.53C277 1052.53 277.533 1052.4 280.333 1054.4C282.6 1056 284.067 1056.13 285.933 1055.2C288.067 1054 288.333 1052 288.333 1035.47C288.333 1014.53 287.8 1013.33 276.467 1009.33C269.533 1006.93 269.267 1006.93 262.067 1009.87ZM530.334 1009.47C523.8 1011.87 521 1014.4 522.067 1017.2C523.134 1019.87 528.334 1020 531.8 1017.33C535.8 1014.27 539.8 1014.93 543.534 1019.47C546.734 1023.33 546.867 1023.73 545 1028.13C543.4 1032.13 543.4 1033.07 545.267 1036.53C547.4 1040 547.267 1040.53 544.867 1044.8C542.467 1048.8 541.534 1049.33 537.534 1048.93C531.8 1048.27 529.667 1046.53 529.667 1042.4C529.667 1040.13 531 1038.4 534.334 1036.4C539.934 1033.2 539.8 1030.8 533.934 1030.27C524.467 1029.33 516.2 1038.67 519.134 1047.07C520.6 1051.47 526.334 1056.13 531.667 1057.47C534.2 1058.13 536.334 1057.47 539.267 1055.33C542.6 1052.8 543.934 1052.53 545.8 1053.87C547.134 1054.67 549.4 1055.33 550.734 1055.33C555.534 1055.33 556.334 1052.67 556.2 1037.33C556.067 1021.73 555.534 1019.07 552.067 1014.13C550.2 1011.47 547.934 1010.53 538.334 1008.27C536.867 1007.87 533.267 1008.4 530.334 1009.47ZM849.4 1011.73C842.6 1016.27 841 1019.07 842.2 1024C843.267 1028 851.934 1036.67 855 1036.67C858.067 1036.67 863.267 1041.73 862.734 1044.27C861.934 1048.27 858.2 1049.33 851.534 1047.6C846.867 1046.4 844.867 1046.27 843.534 1047.47C841 1049.6 841.134 1050.8 844.6 1054C846.867 1056.13 849.267 1056.67 855.8 1056.67C863.667 1056.67 864.2 1056.4 868.867 1051.33C871.667 1048.27 873.667 1044.67 873.667 1042.67C873.667 1038.53 866.467 1030.27 861.8 1029.2C857.8 1028.13 852.334 1023.6 852.334 1021.07C852.334 1020.13 853.8 1018.4 855.534 1017.33C858.067 1015.6 859.4 1015.47 861.534 1016.53C868.867 1020.53 872.6 1015.87 866.6 1010.27C862.334 1006.27 856.867 1006.67 849.4 1011.73ZM999 1008.13C988.2 1011.87 984.867 1014.53 987 1018C988.2 1019.87 991.533 1019.33 998.733 1016.53C1003.13 1014.67 1003.4 1014.8 1007.13 1019.07C1010.2 1022.53 1010.87 1024.13 1010.07 1026.4C1009.53 1028 1009.13 1032.27 1009.27 1036C1009.8 1048.13 1006.07 1052.4 998.6 1048.53C992.6 1045.33 992.467 1043.47 997.8 1037.33C1002.2 1032.4 1002.33 1027.6 997.933 1029.33C996.733 1029.73 993.933 1030.53 991.933 1030.93C979.933 1033.33 980.6 1052.53 992.867 1056.67C996.733 1057.87 998.333 1057.73 1002.33 1055.87C1006.33 1054 1008.07 1053.87 1012.07 1055.2C1016.47 1056.53 1017.27 1056.4 1019.27 1053.87C1021.27 1051.47 1021.67 1048.67 1021.27 1034.67C1021 1020.93 1020.6 1017.87 1018.6 1015.6C1014.33 1010.8 1003.27 1006.67 999 1008.13ZM1155 1009.47C1148.07 1011.6 1145 1014.27 1146.07 1017.2C1147.13 1020 1151 1019.87 1157 1017.07C1160.87 1015.2 1162.2 1015.2 1164.73 1016.53C1169.53 1019.07 1171.13 1022.67 1169.67 1026.8C1168.87 1028.8 1168.6 1033.07 1169.13 1036.27C1169.67 1039.87 1169.4 1043.6 1168.33 1046.13C1166.73 1049.73 1166.2 1050 1162.47 1049.2C1152.33 1047.07 1151.13 1043.47 1158.47 1036.93C1163.53 1032.4 1163.53 1030 1158.33 1030C1145 1030 1138.6 1042.27 1147 1051.87C1152.33 1057.87 1156.6 1058.8 1163.27 1055.6C1167.53 1053.33 1169.27 1053.2 1173.13 1054.4C1176.47 1055.47 1178.2 1055.33 1179.27 1054.27C1180.07 1053.47 1180.87 1046.4 1181 1036.67C1181.4 1017.2 1179.8 1013.6 1169 1009.73C1165.27 1008.4 1162.07 1007.47 1161.67 1007.47C1161.27 1007.6 1158.33 1008.4 1155 1009.47ZM1396.6 1009.87C1389.13 1012.13 1383.67 1018.13 1380.33 1027.47C1377.27 1036.27 1383.4 1050 1392.6 1054.8C1402.07 1059.73 1415.8 1055.33 1422.33 1045.33C1425.53 1040.4 1425.8 1039.33 1425 1030.67C1423.67 1016.27 1420.6 1012.4 1408.33 1008.93C1404.73 1008 1401.8 1008.27 1396.6 1009.87ZM1409.27 1019.2C1412.87 1022.27 1415 1027.33 1415 1033.07C1415 1038 1409 1047.07 1405.13 1048.13C1392.73 1051.2 1385.93 1028.93 1396.47 1020C1401.27 1016 1405.27 1015.87 1409.27 1019.2ZM1505.27 1010.13C1502.6 1011.6 1498.47 1015.33 1496.2 1018.4C1492.33 1023.73 1492.07 1024.53 1492.6 1034.27C1493.13 1046.13 1495.53 1050.53 1503.53 1054.53C1513.13 1059.33 1530.33 1056.8 1530.33 1050.67C1530.33 1048.27 1529.4 1048 1519.4 1048C1504.6 1048 1503.27 1046.67 1504.6 1032.93C1504.73 1031.73 1504.47 1028.93 1503.93 1026.93C1503 1023.73 1503.53 1022.53 1507.13 1019.2C1512.2 1014.53 1514.87 1014.27 1518.73 1018.4C1524.2 1024.27 1521.53 1032.4 1514.6 1030.67C1510.87 1029.73 1508.33 1032.27 1511.13 1034.13C1513.4 1035.6 1529.67 1034.27 1532.07 1032.4C1532.87 1031.6 1533.67 1028.8 1533.67 1026.13C1533.67 1020.4 1529 1014.27 1521.27 1010.13C1515.13 1006.67 1511.8 1006.67 1505.27 1010.13ZM1622.6 1009.87C1616.2 1012 1612.73 1015.47 1614.33 1018C1615.53 1020 1621.4 1019.6 1625 1017.2C1629.27 1014.4 1634.2 1015.6 1637.13 1020.13C1639 1022.93 1639.13 1024.27 1637.8 1028.53C1636.87 1031.73 1636.73 1034.93 1637.4 1036.93C1638.73 1040.27 1637.13 1048 1635 1049.33C1632.07 1051.07 1624.07 1048.27 1622.6 1044.93C1621.27 1042 1621.53 1041.33 1626.2 1037.33C1632.6 1032 1631.67 1029.33 1623.8 1030.4C1619.93 1030.93 1617.27 1032.4 1614.47 1035.47C1609.53 1040.93 1610.33 1047.6 1616.47 1053.07C1620.2 1056.53 1621.27 1056.8 1626.87 1056.13C1630.2 1055.6 1636.07 1055.2 1639.93 1054.93C1643.67 1054.8 1647.13 1054.4 1647.53 1054C1647.8 1053.6 1648.33 1045.33 1648.6 1035.73C1648.87 1018.8 1648.73 1018 1645.8 1014.8C1644.07 1012.93 1639.93 1010.53 1636.6 1009.47C1629.53 1006.93 1630.73 1006.93 1622.6 1009.87ZM185.667 1010.53C180.6 1011.87 179.667 1012.67 179.667 1015.33C179.667 1019.47 184.333 1020.53 189 1017.47C193.4 1014.53 195.533 1014.8 200.2 1018.8C204.6 1022.4 205.267 1025.73 202.867 1030.27C201.8 1032.13 201.933 1034 203 1036.67C205 1041.47 203.8 1045.47 199.533 1048.13C196.867 1050 195.667 1050 192.467 1048.67C185.933 1046 185.933 1041.87 192.2 1036.13C195.533 1033.2 195.933 1028.67 193 1028.67C189.533 1028.67 180.6 1033.73 178.467 1036.93C175 1041.87 175.8 1047.07 180.733 1052C186.467 1057.73 191.267 1059.07 195.667 1056.13C199.267 1053.73 205.133 1053.33 206.333 1055.33C207.4 1057.07 211.933 1057.07 213 1055.2C213.533 1054.4 213.933 1045.73 213.933 1035.87C213.933 1020.27 213.533 1017.47 211.4 1015.07C205.667 1008.67 197.667 1007.33 185.667 1010.53ZM400.067 1011.47C395.4 1013.87 394.734 1013.87 391.8 1012C389 1010.13 384.467 1010.4 384.2 1012.53C383.4 1017.2 383.4 1044.53 384.067 1048.8C385.267 1055.87 388.467 1058.13 392.2 1054.8C394.734 1052.53 395 1050.67 395 1038.8C395 1022.8 396.6 1019.33 403.667 1019.33C411.267 1019.33 412.467 1021.73 412.2 1037.47C411.934 1052.27 413 1055.33 418.334 1055.33C422.334 1055.33 423 1053.2 423 1039.47C423 1027.2 424.6 1020 427.667 1018.8C430.734 1017.73 438.734 1020.53 439.534 1023.07C440.067 1024.4 440.2 1031.2 440.2 1038.13C440.067 1045.6 440.6 1052 441.534 1053.73C443.4 1057.33 447.8 1057.47 449.667 1054.13C451.134 1051.33 451.534 1027.6 450.2 1021.2C449 1014.8 444.334 1010.27 438.2 1009.33C433.667 1008.53 432.2 1008.93 428.734 1011.87C423.667 1016.13 422.2 1016.13 416.067 1012C410.2 1008 406.734 1007.87 400.067 1011.47ZM481.933 1011.6C477.667 1014.27 477.133 1014.27 473.133 1012.27C465.4 1008.67 465.133 1009.33 465.533 1040.8C465.8 1069.73 466.333 1072.67 471.133 1072.67C475.133 1072.67 477.667 1067.6 476.867 1061.47C476.2 1057.07 476.6 1055.47 478.733 1053.47C481.533 1051.07 481.533 1051.07 484.6 1054.67C488.6 1059.2 492.867 1058.4 499.667 1051.73C505.933 1045.6 507 1042.53 507 1030.8C507 1022.27 506.6 1020.53 503.4 1016.4C497.267 1008.53 489.267 1006.8 481.933 1011.6ZM493.4 1020.93C495.133 1022.4 495.667 1038.67 494.2 1042.67C493.533 1044.4 484.6 1050 482.6 1050C482.2 1050 480.6 1046.93 479 1043.07C473.133 1029.47 477.667 1016.67 487.533 1018.8C489.8 1019.2 492.467 1020.27 493.4 1020.93ZM1051.27 1011.07C1046.73 1012.8 1044.87 1012.93 1041.67 1011.73C1034.2 1008.93 1033.67 1010.8 1033.67 1041.2C1033.67 1071.6 1034.33 1074.4 1041.27 1071.87C1044.73 1070.67 1045 1070 1045 1063.6C1045.13 1059.07 1045.8 1055.87 1047.27 1054.53C1049.27 1052.53 1049.67 1052.53 1052.47 1054.53C1057.67 1058.13 1062.07 1057.2 1067.8 1051.33C1073.8 1045.2 1074.73 1042.8 1074.87 1031.87C1075 1021.33 1073.27 1016.8 1067.4 1012.27C1061.93 1008.13 1059.4 1008 1051.27 1011.07ZM1062.73 1020.93C1064.73 1022.93 1064.87 1038.13 1062.87 1042.4C1061.53 1045.47 1055.13 1048.67 1050.73 1048.67C1046.47 1048.67 1043.8 1030.93 1047 1022.8C1048.07 1019.73 1049 1019.33 1054.73 1019.33C1058.2 1019.33 1061.8 1020 1062.73 1020.93ZM1288.33 1011.2C1285.13 1012.93 1283 1013.33 1281.4 1012.53C1278.2 1010.8 1272.33 1011.07 1272.2 1012.93C1270.87 1035.87 1271.13 1050.8 1273 1053.6C1275.53 1057.33 1279.8 1057.6 1281.67 1054.13C1282.33 1052.67 1283 1045.47 1283 1038C1283 1021.2 1283.93 1019.33 1291.53 1019.33C1300.07 1019.33 1301 1021.2 1301.13 1038.27C1301.4 1053.6 1302.6 1057.07 1307.53 1056.4C1312.2 1055.73 1313.67 1050.53 1312.87 1037.33C1311.93 1021.87 1310.47 1017.73 1304.87 1012.67C1299.53 1008 1295.13 1007.6 1288.33 1011.2ZM1457.27 1010.8C1454.47 1012.27 1451.67 1012.67 1446.87 1012C1443.27 1011.47 1440.33 1011.6 1440.2 1012.27C1439.53 1021.6 1439.8 1052.53 1440.6 1054.27C1441.27 1055.6 1442.87 1056.67 1444.2 1056.67C1449 1056.67 1450.2 1053.07 1450.33 1038.13C1450.47 1030.27 1451 1023.07 1451.53 1022.13C1453.53 1018.93 1458.87 1017.87 1463.67 1020L1468.33 1021.87V1037.73C1468.33 1055.47 1469.53 1058.4 1475.53 1055.6C1479.4 1053.87 1480.2 1049.33 1479.27 1034C1478.6 1021.33 1477 1017.2 1471 1012.13C1466.2 1008.27 1462.73 1007.87 1457.27 1010.8ZM1090.6 1012.67C1089.13 1014.8 1088.87 1018.67 1089.4 1030.4C1090.07 1047.2 1091.53 1051.07 1098.33 1055.33C1103.53 1058.53 1107.13 1058.13 1112.07 1053.6C1115 1050.8 1115.27 1050.8 1119.4 1053.07C1127.53 1057.47 1128.07 1056.27 1128.2 1033.73C1128.33 1013.07 1127.67 1010 1123 1010C1119.67 1010 1119 1012.53 1119 1026.4C1119 1038.53 1118.87 1038.67 1114.33 1043.6C1109.13 1049.33 1108.47 1049.6 1104.33 1046.27C1101.53 1044 1101.4 1042.8 1101.53 1030.4C1101.8 1014.67 1100.47 1010 1095.8 1010C1093.93 1010 1091.67 1011.2 1090.6 1012.67ZM228.2 1013.47C226.867 1015.2 226.467 1020.53 226.867 1036.8L227.267 1057.87L223.533 1062.67C220.6 1066.53 220.2 1068.13 221.267 1069.73C224.333 1074.8 232.333 1073.2 236.2 1066.8C238.733 1062.8 239 1060.4 239 1038.93C239 1026.13 238.6 1014.67 238.2 1013.47C237.133 1010.67 230.467 1010.67 228.2 1013.47ZM1588.87 1012.93C1587.67 1014.8 1587.8 1053.33 1589 1055.2C1590.33 1057.47 1594.33 1056.93 1596.73 1054.27C1598.33 1052.53 1598.87 1047.87 1599.27 1033.33C1599.4 1023.07 1599.13 1013.87 1598.6 1012.93C1597.27 1010.93 1590.2 1010.8 1588.87 1012.93ZM624.467 1026C623.4 1026.53 623 1028 623.4 1029.2C624.067 1030.93 626.6 1031.33 638.067 1031.33C645.667 1031.33 654.6 1031.73 657.8 1032.13C665.134 1033.07 670.067 1030.27 667.134 1026.8C665.667 1024.93 662.2 1024.67 645.8 1024.8C635 1024.8 625.4 1025.33 624.467 1026ZM1195.8 1044.93C1195.4 1045.87 1194.87 1049.07 1194.33 1052C1193.8 1054.8 1192.6 1058.93 1191.4 1061.07C1189.67 1064.53 1189.67 1065.2 1191.53 1067.07C1193.4 1068.93 1193.93 1068.93 1196.87 1066.13C1198.6 1064.53 1201.53 1060.53 1203.13 1057.33C1207 1050 1205.67 1044.27 1199.93 1043.6C1197.8 1043.33 1196.07 1043.87 1195.8 1044.93ZM1172.87 1118.67C1172.33 1119.87 1172.33 1122 1172.73 1123.73C1177 1140.13 1178.73 1142.93 1183.4 1140.4C1185.67 1139.2 1185.93 1138.13 1185.13 1131.73C1183.93 1121.87 1181.13 1116.67 1176.87 1116.67C1175.13 1116.67 1173.27 1117.6 1172.87 1118.67Z" fill="black"/>
</g>
<defs>
<clipPath id="clip0_7813_1203">
<rect width="1681" height="1142" fill="white"/>
</clipPath>
</defs>
</svg>
