<svg width="1750" height="1100" viewBox="0 0 1750 1100" fill="none" xmlns="http://www.w3.org/2000/svg">
<path d="M578.115 205.562C576.34 206.845 573.874 209.113 572.789 210.593C570.816 213.256 570.718 214.735 570.422 246.396L570.126 279.34H529.193C484.71 279.34 484.414 279.34 479.384 284.863C474.649 289.992 474.551 291.57 474.551 339.604V384.778L432.435 385.074C391.995 385.37 390.022 385.469 385.781 387.441C377.299 391.387 370 402.335 370 411.015C370 419.694 377.299 430.643 385.781 434.588C390.022 436.561 391.995 436.659 432.435 436.955L474.551 437.251V483.411C474.551 532.53 474.649 533.911 479.384 539.139C484.414 544.662 484.71 544.662 529.193 544.662H570.126L570.422 577.605C570.718 609.267 570.816 610.746 572.789 613.409C573.874 614.889 576.34 617.157 578.115 618.341C581.37 620.609 581.37 620.609 623.881 620.609H666.392L670.14 618.144C672.112 616.763 674.677 613.902 675.762 611.732C677.734 607.984 677.734 605.913 677.734 522.47V437.152H875H1072.27V523.357V609.464L1074.53 612.817C1075.72 614.593 1078.28 617.157 1080.06 618.341L1083.41 620.609H1126.02H1168.63L1171.98 618.341C1173.76 617.157 1176.32 614.593 1177.51 612.817C1179.78 609.464 1179.78 609.168 1179.78 577.112V544.662H1220.71C1265.29 544.662 1265.59 544.662 1270.62 539.139C1275.35 533.911 1275.45 532.53 1275.45 483.411V437.251L1317.66 436.955C1358 436.659 1359.98 436.561 1364.22 434.588C1372.7 430.643 1380 419.694 1380 411.015C1380 402.335 1372.7 391.387 1364.22 387.441C1359.98 385.469 1358 385.37 1317.66 385.074L1275.45 384.778V339.604C1275.45 291.57 1275.35 289.992 1270.62 284.863C1265.59 279.34 1265.29 279.34 1220.71 279.34H1179.78V246.89C1179.78 214.834 1179.78 214.538 1177.51 211.185C1176.32 209.409 1173.76 206.845 1171.98 205.661L1168.63 203.393H1126.12H1083.61L1079.86 205.858C1077.89 207.239 1075.32 210.1 1074.24 212.27C1072.27 216.018 1072.27 218.089 1072.27 300.546V384.877H875H677.734V299.658V214.538L675.466 211.185C674.282 209.409 671.718 206.845 669.942 205.661L666.589 203.393H623.979C581.37 203.393 581.37 203.393 578.115 205.562Z" fill="#0076BA"/>
<path d="M28.5751 865.609L2.64753 772.124H17.4829L35.6961 844.52H36.5634L55.5069 772.124H70.2053L89.1489 844.566H90.0162L108.184 772.124H123.065L97.0915 865.609H82.8952L63.2213 795.587H62.491L42.817 865.609H28.5751ZM158.145 867.024C151.237 867.024 145.287 865.549 140.297 862.597C135.336 859.614 131.502 855.43 128.793 850.044C126.115 844.627 124.776 838.282 124.776 831.009C124.776 823.827 126.115 817.497 128.793 812.02C131.502 806.542 135.275 802.266 140.114 799.193C144.983 796.119 150.674 794.582 157.186 794.582C161.142 794.582 164.976 795.237 168.689 796.545C172.402 797.854 175.734 799.908 178.686 802.708C181.638 805.507 183.966 809.144 185.67 813.617C187.374 818.06 188.226 823.462 188.226 829.822V834.661H132.491V824.436H174.851C174.851 820.845 174.121 817.665 172.66 814.895C171.2 812.096 169.146 809.889 166.498 808.277C163.881 806.664 160.807 805.857 157.277 805.857C153.443 805.857 150.095 806.801 147.235 808.687C144.405 810.544 142.214 812.978 140.662 815.991C139.14 818.973 138.379 822.214 138.379 825.714V833.702C138.379 838.388 139.201 842.375 140.844 845.662C142.518 848.948 144.846 851.459 147.828 853.193C150.811 854.898 154.295 855.75 158.281 855.75C160.868 855.75 163.227 855.384 165.357 854.654C167.487 853.893 169.328 852.767 170.88 851.276C172.432 849.785 173.619 847.944 174.441 845.753L187.359 848.081C186.324 851.885 184.468 855.217 181.79 858.078C179.142 860.908 175.81 863.114 171.793 864.696C167.807 866.248 163.257 867.024 158.145 867.024ZM217.018 772.124V865.609H203.369V772.124H217.018ZM249.028 772.124V865.609H235.38V772.124H249.028ZM302.504 865.609V772.124H336.739C343.373 772.124 348.866 773.22 353.218 775.411C357.569 777.571 360.826 780.508 362.986 784.221C365.147 787.903 366.227 792.057 366.227 796.682C366.227 800.577 365.512 803.864 364.082 806.542C362.651 809.189 360.734 811.32 358.33 812.933C355.956 814.515 353.339 815.671 350.479 816.402V817.315C353.583 817.467 356.611 818.471 359.563 820.327C362.545 822.153 365.01 824.755 366.957 828.133C368.905 831.511 369.879 835.619 369.879 840.458C369.879 845.236 368.753 849.526 366.501 853.33C364.279 857.104 360.841 860.101 356.185 862.323C351.529 864.514 345.579 865.609 338.337 865.609H302.504ZM316.609 853.513H336.967C343.723 853.513 348.562 852.204 351.483 849.587C354.404 846.97 355.865 843.699 355.865 839.773C355.865 836.821 355.12 834.113 353.628 831.648C352.137 829.183 350.007 827.22 347.238 825.759C344.499 824.299 341.243 823.568 337.469 823.568H316.609V853.513ZM316.609 812.567H335.507C338.671 812.567 341.517 811.959 344.043 810.742C346.599 809.524 348.623 807.82 350.114 805.629C351.635 803.408 352.396 800.79 352.396 797.778C352.396 793.913 351.042 790.672 348.333 788.055C345.625 785.438 341.471 784.129 335.872 784.129H316.609V812.567ZM415.731 867.024C408.823 867.024 402.874 865.549 397.883 862.597C392.923 859.614 389.089 855.43 386.38 850.044C383.702 844.627 382.363 838.282 382.363 831.009C382.363 823.827 383.702 817.497 386.38 812.02C389.089 806.542 392.862 802.266 397.701 799.193C402.57 796.119 408.26 794.582 414.773 794.582C418.729 794.582 422.563 795.237 426.276 796.545C429.989 797.854 433.321 799.908 436.273 802.708C439.224 805.507 441.552 809.144 443.257 813.617C444.961 818.06 445.813 823.462 445.813 829.822V834.661H390.078V824.436H432.438C432.438 820.845 431.708 817.665 430.247 814.895C428.786 812.096 426.732 809.889 424.085 808.277C421.468 806.664 418.394 805.857 414.864 805.857C411.03 805.857 407.682 806.801 404.822 808.687C401.992 810.544 399.801 812.978 398.249 815.991C396.727 818.973 395.966 822.214 395.966 825.714V833.702C395.966 838.388 396.788 842.375 398.431 845.662C400.105 848.948 402.433 851.459 405.415 853.193C408.397 854.898 411.882 855.75 415.868 855.75C418.455 855.75 420.813 855.384 422.944 854.654C425.074 853.893 426.915 852.767 428.467 851.276C430.019 849.785 431.206 847.944 432.027 845.753L444.946 848.081C443.911 851.885 442.055 855.217 439.377 858.078C436.729 860.908 433.397 863.114 429.38 864.696C425.393 866.248 420.844 867.024 415.731 867.024ZM460.956 865.609V795.495H474.605V865.609H460.956ZM467.849 784.677C465.475 784.677 463.436 783.886 461.732 782.303C460.059 780.69 459.222 778.773 459.222 776.552C459.222 774.3 460.059 772.383 461.732 770.8C463.436 769.187 465.475 768.381 467.849 768.381C470.223 768.381 472.246 769.187 473.92 770.8C475.624 772.383 476.476 774.3 476.476 776.552C476.476 778.773 475.624 780.69 473.92 782.303C472.246 783.886 470.223 784.677 467.849 784.677ZM506.615 823.979V865.609H492.966V795.495H506.067V806.907H506.934C508.547 803.195 511.073 800.212 514.512 797.96C517.981 795.708 522.348 794.582 527.613 794.582C532.39 794.582 536.575 795.587 540.166 797.595C543.756 799.573 546.541 802.525 548.519 806.451C550.497 810.376 551.486 815.23 551.486 821.012V865.609H537.838V822.655C537.838 817.573 536.514 813.602 533.866 810.742C531.219 807.851 527.582 806.405 522.957 806.405C519.792 806.405 516.977 807.09 514.512 808.459C512.077 809.829 510.145 811.837 508.715 814.485C507.315 817.102 506.615 820.267 506.615 823.979ZM599.187 893.363C593.618 893.363 588.825 892.632 584.808 891.172C580.822 889.711 577.566 887.779 575.04 885.375C572.514 882.971 570.627 880.338 569.38 877.478L581.111 872.639C581.933 873.978 583.028 875.393 584.398 876.884C585.797 878.406 587.684 879.699 590.058 880.764C592.462 881.829 595.551 882.362 599.324 882.362C604.498 882.362 608.773 881.099 612.151 878.573C615.529 876.078 617.218 872.091 617.218 866.614V852.828H616.351C615.529 854.319 614.342 855.978 612.79 857.804C611.269 859.63 609.169 861.212 606.491 862.551C603.813 863.89 600.329 864.559 596.038 864.559C590.499 864.559 585.508 863.266 581.065 860.679C576.653 858.062 573.153 854.213 570.567 849.131C568.01 844.018 566.732 837.734 566.732 830.278C566.732 822.823 567.995 816.432 570.521 811.107C573.077 805.781 576.577 801.703 581.02 798.873C585.463 796.013 590.499 794.582 596.129 794.582C600.481 794.582 603.995 795.313 606.673 796.773C609.351 798.204 611.436 799.877 612.927 801.795C614.449 803.712 615.62 805.401 616.442 806.861H617.446V795.495H630.821V867.161C630.821 873.187 629.421 878.132 626.621 881.997C623.822 885.861 620.033 888.722 615.255 890.578C610.508 892.435 605.152 893.363 599.187 893.363ZM599.05 853.239C602.976 853.239 606.293 852.326 609.001 850.5C611.74 848.644 613.81 845.996 615.209 842.558C616.64 839.088 617.355 834.934 617.355 830.096C617.355 825.379 616.655 821.225 615.255 817.634C613.855 814.043 611.801 811.244 609.093 809.235C606.384 807.196 603.037 806.177 599.05 806.177C594.942 806.177 591.519 807.242 588.78 809.372C586.041 811.472 583.972 814.332 582.572 817.954C581.202 821.575 580.518 825.622 580.518 830.096C580.518 834.691 581.218 838.723 582.617 842.192C584.017 845.662 586.087 848.37 588.825 850.318C591.595 852.265 595.003 853.239 599.05 853.239ZM684.239 865.609V772.124H717.562C724.804 772.124 730.815 773.372 735.592 775.867C740.401 778.362 743.991 781.816 746.365 786.229C748.739 790.611 749.926 795.678 749.926 801.429C749.926 807.151 748.724 812.187 746.319 816.539C743.946 820.86 740.355 824.223 735.547 826.627C730.769 829.031 724.759 830.233 717.516 830.233H692.273V818.091H716.238C720.803 818.091 724.515 817.436 727.376 816.128C730.267 814.819 732.382 812.917 733.721 810.422C735.06 807.927 735.729 804.929 735.729 801.429C735.729 797.899 735.045 794.841 733.675 792.254C732.336 789.668 730.221 787.69 727.33 786.32C724.47 784.92 720.711 784.221 716.055 784.221H698.344V865.609H684.239ZM730.389 823.431L753.486 865.609H737.418L714.777 823.431H730.389ZM795.333 867.024C788.425 867.024 782.476 865.549 777.485 862.597C772.525 859.614 768.69 855.43 765.982 850.044C763.304 844.627 761.965 838.282 761.965 831.009C761.965 823.827 763.304 817.497 765.982 812.02C768.69 806.542 772.464 802.266 777.303 799.193C782.172 796.119 787.862 794.582 794.375 794.582C798.331 794.582 802.165 795.237 805.878 796.545C809.59 797.854 812.922 799.908 815.874 802.708C818.826 805.507 821.154 809.144 822.858 813.617C824.563 818.06 825.415 823.462 825.415 829.822V834.661H769.679V824.436H812.04C812.04 820.845 811.31 817.665 809.849 814.895C808.388 812.096 806.334 809.889 803.687 808.277C801.069 806.664 797.996 805.857 794.466 805.857C790.631 805.857 787.284 806.801 784.423 808.687C781.593 810.544 779.402 812.978 777.85 815.991C776.329 818.973 775.568 822.214 775.568 825.714V833.702C775.568 838.388 776.39 842.375 778.033 845.662C779.707 848.948 782.035 851.459 785.017 853.193C787.999 854.898 791.484 855.75 795.47 855.75C798.057 855.75 800.415 855.384 802.545 854.654C804.676 853.893 806.517 852.767 808.069 851.276C809.621 849.785 810.808 847.944 811.629 845.753L824.547 848.081C823.513 851.885 821.656 855.217 818.978 858.078C816.331 860.908 812.999 863.114 808.982 864.696C804.995 866.248 800.446 867.024 795.333 867.024ZM870.092 867.024C863.306 867.024 857.463 865.488 852.563 862.414C847.694 859.31 843.951 855.034 841.334 849.587C838.717 844.14 837.408 837.902 837.408 830.872C837.408 823.751 838.747 817.467 841.425 812.02C844.103 806.542 847.877 802.266 852.746 799.193C857.615 796.119 863.351 794.582 869.955 794.582C875.28 794.582 880.028 795.571 884.197 797.549C888.366 799.497 891.728 802.236 894.285 805.766C896.871 809.296 898.408 813.419 898.895 818.136H885.612C884.881 814.85 883.208 812.02 880.591 809.646C878.004 807.272 874.535 806.085 870.183 806.085C866.379 806.085 863.047 807.09 860.186 809.098C857.356 811.076 855.15 813.906 853.567 817.589C851.985 821.24 851.194 825.562 851.194 830.552C851.194 835.665 851.97 840.077 853.522 843.79C855.074 847.503 857.265 850.378 860.095 852.417C862.956 854.456 866.318 855.476 870.183 855.476C872.77 855.476 875.113 855.004 877.213 854.061C879.343 853.087 881.123 851.702 882.553 849.907C884.014 848.111 885.034 845.951 885.612 843.425H898.895C898.408 847.959 896.932 852.007 894.467 855.567C892.002 859.127 888.701 861.927 884.562 863.966C880.454 866.005 875.63 867.024 870.092 867.024ZM943.024 867.024C936.451 867.024 930.715 865.518 925.815 862.505C920.916 859.493 917.112 855.278 914.404 849.861C911.695 844.444 910.341 838.115 910.341 830.872C910.341 823.599 911.695 817.239 914.404 811.791C917.112 806.344 920.916 802.114 925.815 799.101C930.715 796.089 936.451 794.582 943.024 794.582C949.598 794.582 955.334 796.089 960.233 799.101C965.133 802.114 968.937 806.344 971.645 811.791C974.354 817.239 975.708 823.599 975.708 830.872C975.708 838.115 974.354 844.444 971.645 849.861C968.937 855.278 965.133 859.493 960.233 862.505C955.334 865.518 949.598 867.024 943.024 867.024ZM943.07 855.567C947.331 855.567 950.861 854.441 953.66 852.189C956.46 849.937 958.529 846.94 959.868 843.197C961.238 839.454 961.922 835.33 961.922 830.826C961.922 826.353 961.238 822.245 959.868 818.502C958.529 814.728 956.46 811.7 953.66 809.418C950.861 807.135 947.331 805.994 943.07 805.994C938.779 805.994 935.219 807.135 932.389 809.418C929.589 811.7 927.504 814.728 926.135 818.502C924.796 822.245 924.127 826.353 924.127 830.826C924.127 835.33 924.796 839.454 926.135 843.197C927.504 846.94 929.589 849.937 932.389 852.189C935.219 854.441 938.779 855.567 943.07 855.567ZM990.943 865.609V795.495H1004.04V806.907H1004.91C1006.37 803.042 1008.76 800.03 1012.08 797.869C1015.39 795.678 1019.37 794.582 1023.99 794.582C1028.68 794.582 1032.6 795.678 1035.77 797.869C1038.96 800.06 1041.32 803.073 1042.84 806.907H1043.57C1045.25 803.164 1047.91 800.182 1051.56 797.96C1055.21 795.708 1059.57 794.582 1064.62 794.582C1070.98 794.582 1076.17 796.576 1080.18 800.562C1084.23 804.549 1086.25 810.559 1086.25 818.593V865.609H1072.61V819.871C1072.61 815.124 1071.31 811.685 1068.73 809.555C1066.14 807.424 1063.05 806.359 1059.46 806.359C1055.02 806.359 1051.56 807.729 1049.1 810.468C1046.63 813.176 1045.4 816.66 1045.4 820.921V865.609H1031.8V819.004C1031.8 815.2 1030.61 812.141 1028.24 809.829C1025.86 807.516 1022.77 806.359 1018.97 806.359C1016.38 806.359 1013.99 807.044 1011.8 808.413C1009.64 809.752 1007.89 811.624 1006.55 814.028C1005.25 816.432 1004.59 819.217 1004.59 822.382V865.609H990.943ZM1104.55 865.609V795.495H1117.65V806.907H1118.51C1119.98 803.042 1122.36 800.03 1125.68 797.869C1129 795.678 1132.97 794.582 1137.6 794.582C1142.28 794.582 1146.21 795.678 1149.37 797.869C1152.57 800.06 1154.93 803.073 1156.45 806.907H1157.18C1158.85 803.164 1161.51 800.182 1165.17 797.96C1168.82 795.708 1173.17 794.582 1178.22 794.582C1184.58 794.582 1189.77 796.576 1193.79 800.562C1197.83 804.549 1199.86 810.559 1199.86 818.593V865.609H1186.21V819.871C1186.21 815.124 1184.92 811.685 1182.33 809.555C1179.74 807.424 1176.65 806.359 1173.06 806.359C1168.62 806.359 1165.17 807.729 1162.7 810.468C1160.24 813.176 1159 816.66 1159 820.921V865.609H1145.4V819.004C1145.4 815.2 1144.21 812.141 1141.84 809.829C1139.47 807.516 1136.38 806.359 1132.57 806.359C1129.99 806.359 1127.6 807.044 1125.41 808.413C1123.25 809.752 1121.5 811.624 1120.16 814.028C1118.85 816.432 1118.2 819.217 1118.2 822.382V865.609H1104.55ZM1248.37 867.024C1241.46 867.024 1235.51 865.549 1230.52 862.597C1225.56 859.614 1221.73 855.43 1219.02 850.044C1216.34 844.627 1215 838.282 1215 831.009C1215 823.827 1216.34 817.497 1219.02 812.02C1221.73 806.542 1225.5 802.266 1230.34 799.193C1235.21 796.119 1240.9 794.582 1247.41 794.582C1251.37 794.582 1255.2 795.237 1258.91 796.545C1262.63 797.854 1265.96 799.908 1268.91 802.708C1271.86 805.507 1274.19 809.144 1275.89 813.617C1277.6 818.06 1278.45 823.462 1278.45 829.822V834.661H1222.72V824.436H1265.08C1265.08 820.845 1264.35 817.665 1262.89 814.895C1261.42 812.096 1259.37 809.889 1256.72 808.277C1254.11 806.664 1251.03 805.857 1247.5 805.857C1243.67 805.857 1240.32 806.801 1237.46 808.687C1234.63 810.544 1232.44 812.978 1230.89 815.991C1229.37 818.973 1228.6 822.214 1228.6 825.714V833.702C1228.6 838.388 1229.43 842.375 1231.07 845.662C1232.74 848.948 1235.07 851.459 1238.05 853.193C1241.04 854.898 1244.52 855.75 1248.51 855.75C1251.09 855.75 1253.45 855.384 1255.58 854.654C1257.71 853.893 1259.55 852.767 1261.11 851.276C1262.66 849.785 1263.84 847.944 1264.67 845.753L1277.58 848.081C1276.55 851.885 1274.69 855.217 1272.01 858.078C1269.37 860.908 1266.04 863.114 1262.02 864.696C1258.03 866.248 1253.48 867.024 1248.37 867.024ZM1307.24 823.979V865.609H1293.59V795.495H1306.7V806.907H1307.56C1309.18 803.195 1311.7 800.212 1315.14 797.96C1318.61 795.708 1322.98 794.582 1328.24 794.582C1333.02 794.582 1337.2 795.587 1340.79 797.595C1344.38 799.573 1347.17 802.525 1349.15 806.451C1351.13 810.376 1352.11 815.23 1352.11 821.012V865.609H1338.47V822.655C1338.47 817.573 1337.14 813.602 1334.49 810.742C1331.85 807.851 1328.21 806.405 1323.58 806.405C1320.42 806.405 1317.61 807.09 1315.14 808.459C1312.71 809.829 1310.77 811.837 1309.34 814.485C1307.94 817.102 1307.24 820.267 1307.24 823.979ZM1396.67 866.979C1391.01 866.979 1385.95 865.533 1381.51 862.642C1377.1 859.721 1373.63 855.567 1371.1 850.181C1368.61 844.764 1367.36 838.267 1367.36 830.689C1367.36 823.112 1368.62 816.63 1371.15 811.244C1373.71 805.857 1377.2 801.734 1381.65 798.873C1386.09 796.013 1391.13 794.582 1396.76 794.582C1401.11 794.582 1404.61 795.313 1407.26 796.773C1409.93 798.204 1412 799.877 1413.46 801.795C1414.96 803.712 1416.11 805.401 1416.93 806.861H1417.75V772.124H1431.4V865.609H1418.07V854.7H1416.93C1416.11 856.191 1414.92 857.895 1413.37 859.812C1411.85 861.729 1409.75 863.403 1407.07 864.833C1404.4 866.264 1400.93 866.979 1396.67 866.979ZM1399.68 855.339C1403.6 855.339 1406.92 854.304 1409.63 852.235C1412.37 850.135 1414.44 847.229 1415.84 843.516C1417.27 839.804 1417.98 835.482 1417.98 830.552C1417.98 825.683 1417.28 821.423 1415.88 817.771C1414.48 814.119 1412.43 811.274 1409.72 809.235C1407.01 807.196 1403.67 806.177 1399.68 806.177C1395.57 806.177 1392.15 807.242 1389.41 809.372C1386.67 811.502 1384.6 814.408 1383.2 818.091C1381.83 821.773 1381.15 825.927 1381.15 830.552C1381.15 835.239 1381.85 839.454 1383.25 843.197C1384.65 846.94 1386.71 849.907 1389.45 852.098C1392.22 854.258 1395.63 855.339 1399.68 855.339ZM1471.29 867.161C1466.84 867.161 1462.83 866.34 1459.24 864.696C1455.65 863.023 1452.8 860.603 1450.7 857.439C1448.63 854.274 1447.6 850.394 1447.6 845.799C1447.6 841.842 1448.36 838.586 1449.88 836.03C1451.4 833.474 1453.45 831.45 1456.04 829.959C1458.63 828.468 1461.52 827.342 1464.71 826.581C1467.91 825.82 1471.17 825.242 1474.48 824.846C1478.68 824.36 1482.09 823.964 1484.71 823.66C1487.32 823.325 1489.23 822.792 1490.41 822.062C1491.6 821.332 1492.19 820.145 1492.19 818.502V818.182C1492.19 814.195 1491.07 811.107 1488.82 808.916C1486.59 806.725 1483.28 805.629 1478.86 805.629C1474.27 805.629 1470.65 806.648 1468 808.687C1465.38 810.696 1463.57 812.933 1462.57 815.398L1449.74 812.476C1451.26 808.216 1453.49 804.777 1456.41 802.16C1459.36 799.512 1462.75 797.595 1466.59 796.408C1470.42 795.191 1474.45 794.582 1478.68 794.582C1481.48 794.582 1484.45 794.917 1487.58 795.587C1490.75 796.226 1493.7 797.413 1496.44 799.147C1499.21 800.882 1501.48 803.362 1503.24 806.588C1505.01 809.783 1505.89 813.937 1505.89 819.049V865.609H1492.56V856.023H1492.01C1491.13 857.788 1489.81 859.523 1488.04 861.227C1486.27 862.931 1484.01 864.346 1481.24 865.472C1478.47 866.598 1475.15 867.161 1471.29 867.161ZM1474.25 856.206C1478.03 856.206 1481.25 855.46 1483.93 853.969C1486.64 852.478 1488.69 850.531 1490.09 848.127C1491.52 845.692 1492.24 843.09 1492.24 840.321V831.283C1491.75 831.77 1490.81 832.226 1489.41 832.652C1488.04 833.048 1486.47 833.398 1484.71 833.702C1482.94 833.976 1481.22 834.235 1479.55 834.478C1477.88 834.691 1476.48 834.874 1475.35 835.026C1472.7 835.361 1470.28 835.924 1468.09 836.715C1465.93 837.506 1464.2 838.647 1462.89 840.138C1461.61 841.599 1460.97 843.547 1460.97 845.981C1460.97 849.359 1462.22 851.915 1464.71 853.65C1467.21 855.354 1470.39 856.206 1474.25 856.206ZM1556.8 795.495V806.451H1518.5V795.495H1556.8ZM1528.77 778.697H1542.42V845.023C1542.42 847.67 1542.81 849.663 1543.6 851.002C1544.4 852.311 1545.41 853.209 1546.66 853.695C1547.94 854.152 1549.33 854.38 1550.82 854.38C1551.91 854.38 1552.87 854.304 1553.69 854.152C1554.51 854 1555.15 853.878 1555.61 853.787L1558.07 865.062C1557.28 865.366 1556.16 865.67 1554.7 865.975C1553.24 866.309 1551.41 866.492 1549.22 866.522C1545.63 866.583 1542.28 865.944 1539.18 864.605C1536.07 863.266 1533.56 861.197 1531.64 858.397C1529.73 855.597 1528.77 852.083 1528.77 847.853V778.697ZM1571.89 865.609V795.495H1585.54V865.609H1571.89ZM1578.79 784.677C1576.41 784.677 1574.37 783.886 1572.67 782.303C1571 780.69 1570.16 778.773 1570.16 776.552C1570.16 774.3 1571 772.383 1572.67 770.8C1574.37 769.187 1576.41 768.381 1578.79 768.381C1581.16 768.381 1583.18 769.187 1584.86 770.8C1586.56 772.383 1587.41 774.3 1587.41 776.552C1587.41 778.773 1586.56 780.69 1584.86 782.303C1583.18 783.886 1581.16 784.677 1578.79 784.677ZM1633.44 867.024C1626.86 867.024 1621.13 865.518 1616.23 862.505C1611.33 859.493 1607.53 855.278 1604.82 849.861C1602.11 844.444 1600.75 838.115 1600.75 830.872C1600.75 823.599 1602.11 817.239 1604.82 811.791C1607.53 806.344 1611.33 802.114 1616.23 799.101C1621.13 796.089 1626.86 794.582 1633.44 794.582C1640.01 794.582 1645.75 796.089 1650.65 799.101C1655.55 802.114 1659.35 806.344 1662.06 811.791C1664.77 817.239 1666.12 823.599 1666.12 830.872C1666.12 838.115 1664.77 844.444 1662.06 849.861C1659.35 855.278 1655.55 859.493 1650.65 862.505C1645.75 865.518 1640.01 867.024 1633.44 867.024ZM1633.48 855.567C1637.74 855.567 1641.27 854.441 1644.07 852.189C1646.87 849.937 1648.94 846.94 1650.28 843.197C1651.65 839.454 1652.34 835.33 1652.34 830.826C1652.34 826.353 1651.65 822.245 1650.28 818.502C1648.94 814.728 1646.87 811.7 1644.07 809.418C1641.27 807.135 1637.74 805.994 1633.48 805.994C1629.19 805.994 1625.63 807.135 1622.8 809.418C1620 811.7 1617.92 814.728 1616.55 818.502C1615.21 822.245 1614.54 826.353 1614.54 830.826C1614.54 835.33 1615.21 839.454 1616.55 843.197C1617.92 846.94 1620 849.937 1622.8 852.189C1625.63 854.441 1629.19 855.567 1633.48 855.567ZM1695 823.979V865.609H1681.36V795.495H1694.46V806.907H1695.32C1696.94 803.195 1699.46 800.212 1702.9 797.96C1706.37 795.708 1710.74 794.582 1716 794.582C1720.78 794.582 1724.96 795.587 1728.55 797.595C1732.15 799.573 1734.93 802.525 1736.91 806.451C1738.89 810.376 1739.88 815.23 1739.88 821.012V865.609H1726.23V822.655C1726.23 817.573 1724.9 813.602 1722.26 810.742C1719.61 807.851 1715.97 806.405 1711.35 806.405C1708.18 806.405 1705.37 807.09 1702.9 808.459C1700.47 809.829 1698.53 811.837 1697.1 814.485C1695.7 817.102 1695 820.267 1695 823.979Z" fill="black"/>
</svg>
