<svg width="194" height="44" viewBox="0 0 194 44" fill="none" xmlns="http://www.w3.org/2000/svg">
<rect width="194" height="43.4689" rx="4.0249" fill="#FF7558"/>
<path d="M53.3132 16.2819L55.9033 24.1156H56.0054L58.5907 16.2819H60.5734L57.0648 26.2344H54.8391L51.3353 16.2819H53.3132ZM61.8065 26.2344V18.77H63.5657V26.2344H61.8065ZM62.691 17.7106C62.4124 17.7106 62.1726 17.6183 61.9718 17.4336C61.7709 17.2457 61.6705 17.0206 61.6705 16.7581C61.6705 16.4925 61.7709 16.2673 61.9718 16.0827C62.1726 15.8948 62.4124 15.8008 62.691 15.8008C62.9729 15.8008 63.2126 15.8948 63.4102 16.0827C63.6111 16.2673 63.7115 16.4925 63.7115 16.7581C63.7115 17.0206 63.6111 17.2457 63.4102 17.4336C63.2126 17.6183 62.9729 17.7106 62.691 17.7106ZM68.6792 26.3802C67.9309 26.3802 67.2845 26.2247 66.7403 25.9136C66.1992 25.5994 65.7829 25.1555 65.4913 24.5821C65.1998 24.0054 65.054 23.3267 65.054 22.5459C65.054 21.7781 65.1998 21.1043 65.4913 20.5243C65.7862 19.9412 66.1976 19.4876 66.7257 19.1636C67.2538 18.8364 67.8742 18.6728 68.5869 18.6728C69.047 18.6728 69.4811 18.7473 69.8893 18.8964C70.3007 19.0422 70.6636 19.2689 70.9778 19.5767C71.2953 19.8845 71.5448 20.2765 71.7262 20.7527C71.9076 21.2257 71.9984 21.7895 71.9984 22.4439V22.9833H65.8801V21.7976H70.3121C70.3088 21.4606 70.2359 21.1609 70.0934 20.8985C69.9508 20.6329 69.7516 20.4239 69.4957 20.2716C69.243 20.1194 68.9481 20.0432 68.6112 20.0432C68.2516 20.0432 67.9357 20.1307 67.6636 20.3057C67.3914 20.4774 67.1792 20.7041 67.027 20.986C66.8779 21.2646 66.8018 21.5708 66.7986 21.9045V22.9396C66.7986 23.3737 66.8779 23.7463 67.0367 24.0573C67.1954 24.365 67.4174 24.6015 67.7025 24.7668C67.9876 24.9288 68.3213 25.0098 68.7035 25.0098C68.9595 25.0098 69.1911 24.9741 69.3985 24.9028C69.6058 24.8283 69.7856 24.7198 69.9379 24.5772C70.0901 24.4347 70.2052 24.2581 70.2829 24.0476L71.9255 24.2322C71.8218 24.6663 71.6242 25.0454 71.3326 25.3694C71.0443 25.6901 70.6749 25.9396 70.2246 26.1177C69.7743 26.2927 69.2592 26.3802 68.6792 26.3802ZM74.987 26.2344L72.8779 18.77H74.6711L75.9832 24.0184H76.0513L77.3925 18.77H79.1663L80.5075 23.9892H80.5804L81.8731 18.77H83.6711L81.5572 26.2344H79.7251L78.3256 21.1901H78.2235L76.8239 26.2344H74.987ZM92.0746 18.77V20.1307H87.6621V18.77H92.0746ZM88.7652 26.2344V18.0654C88.7652 17.5632 88.8689 17.1453 89.0762 16.8116C89.2868 16.4779 89.5687 16.2284 89.9218 16.0632C90.2749 15.898 90.6669 15.8154 91.0978 15.8154C91.4024 15.8154 91.6729 15.8397 91.9094 15.8883C92.1459 15.9369 92.3208 15.9806 92.4342 16.0195L92.0843 17.3802C92.0098 17.3575 91.9159 17.3348 91.8025 17.3121C91.6891 17.2862 91.5627 17.2733 91.4234 17.2733C91.0962 17.2733 90.8646 17.3526 90.7285 17.5114C90.5957 17.6669 90.5292 17.8904 90.5292 18.182V26.2344H88.7652ZM96.4762 26.3802C95.7278 26.3802 95.0815 26.2247 94.5372 25.9136C93.9962 25.5994 93.5799 25.1555 93.2883 24.5821C92.9967 24.0054 92.8509 23.3267 92.8509 22.5459C92.8509 21.7781 92.9967 21.1043 93.2883 20.5243C93.5831 19.9412 93.9945 19.4876 94.5226 19.1636C95.0507 18.8364 95.6711 18.6728 96.3839 18.6728C96.8439 18.6728 97.278 18.7473 97.6862 18.8964C98.0977 19.0422 98.4605 19.2689 98.7748 19.5767C99.0923 19.8845 99.3417 20.2765 99.5232 20.7527C99.7046 21.2257 99.7953 21.7895 99.7953 22.4439V22.9833H93.6771V21.7976H98.109C98.1058 21.4606 98.0329 21.1609 97.8903 20.8985C97.7478 20.6329 97.5485 20.4239 97.2926 20.2716C97.0399 20.1194 96.7451 20.0432 96.4081 20.0432C96.0485 20.0432 95.7327 20.1307 95.4605 20.3057C95.1884 20.4774 94.9762 20.7041 94.8239 20.986C94.6749 21.2646 94.5988 21.5708 94.5955 21.9045V22.9396C94.5955 23.3737 94.6749 23.7463 94.8336 24.0573C94.9924 24.365 95.2143 24.6015 95.4994 24.7668C95.7845 24.9288 96.1182 25.0098 96.5005 25.0098C96.7564 25.0098 96.9881 24.9741 97.1954 24.9028C97.4027 24.8283 97.5826 24.7198 97.7348 24.5772C97.8871 24.4347 98.0021 24.2581 98.0799 24.0476L99.7224 24.2322C99.6187 24.6663 99.4211 25.0454 99.1295 25.3694C98.8412 25.6901 98.4719 25.9396 98.0215 26.1177C97.5712 26.2927 97.0561 26.3802 96.4762 26.3802ZM103.431 26.385C102.958 26.385 102.532 26.3008 102.153 26.1323C101.778 25.9606 101.48 25.7079 101.259 25.3742C101.042 25.0405 100.934 24.6291 100.934 24.1399C100.934 23.7187 101.011 23.3704 101.167 23.0951C101.322 22.8197 101.535 22.5994 101.804 22.4342C102.072 22.2689 102.375 22.1442 102.712 22.06C103.052 21.9725 103.404 21.9093 103.767 21.8704C104.204 21.8251 104.559 21.7846 104.831 21.749C105.103 21.7101 105.301 21.6518 105.424 21.574C105.55 21.493 105.613 21.3683 105.613 21.1998V21.1707C105.613 20.8046 105.505 20.5211 105.288 20.3202C105.071 20.1194 104.758 20.0189 104.35 20.0189C103.919 20.0189 103.577 20.1129 103.325 20.3008C103.075 20.4887 102.907 20.7106 102.819 20.9666L101.177 20.7333C101.306 20.2797 101.52 19.9007 101.818 19.5962C102.116 19.2884 102.481 19.0584 102.912 18.9061C103.342 18.7506 103.819 18.6728 104.34 18.6728C104.7 18.6728 105.058 18.7149 105.414 18.7992C105.771 18.8834 106.096 19.0227 106.391 19.2171C106.686 19.4082 106.922 19.669 107.1 19.9995C107.282 20.33 107.373 20.743 107.373 21.2387V26.2344H105.681V25.209H105.623C105.516 25.4163 105.366 25.6107 105.171 25.7922C104.98 25.9703 104.739 26.1145 104.447 26.2247C104.159 26.3316 103.82 26.385 103.431 26.385ZM103.888 25.0924C104.241 25.0924 104.548 25.0227 104.807 24.8834C105.066 24.7409 105.265 24.553 105.404 24.3197C105.547 24.0864 105.618 23.8321 105.618 23.5567V22.6771C105.563 22.7225 105.469 22.7646 105.336 22.8035C105.207 22.8424 105.061 22.8764 104.899 22.9055C104.737 22.9347 104.577 22.9606 104.418 22.9833C104.259 23.006 104.122 23.0254 104.005 23.0416C103.743 23.0773 103.508 23.1356 103.3 23.2166C103.093 23.2976 102.929 23.4109 102.809 23.5567C102.69 23.6993 102.63 23.8839 102.63 24.1107C102.63 24.4347 102.748 24.6793 102.984 24.8445C103.221 25.0098 103.522 25.0924 103.888 25.0924ZM112.869 18.77V20.1307H108.578V18.77H112.869ZM109.637 16.9817H111.396V23.9892C111.396 24.2257 111.432 24.4072 111.503 24.5335C111.578 24.6566 111.675 24.7409 111.795 24.7862C111.915 24.8316 112.048 24.8542 112.193 24.8542C112.304 24.8542 112.404 24.8461 112.495 24.8299C112.589 24.8138 112.66 24.7992 112.708 24.7862L113.005 26.1615C112.911 26.1939 112.777 26.2295 112.602 26.2684C112.43 26.3073 112.219 26.3299 111.97 26.3364C111.529 26.3494 111.132 26.283 110.779 26.1372C110.426 25.9882 110.146 25.7581 109.939 25.4471C109.734 25.1361 109.634 24.7473 109.637 24.2808V16.9817ZM119.098 23.0951V18.77H120.857V26.2344H119.151V24.9077H119.073C118.905 25.3256 118.628 25.6674 118.242 25.9331C117.86 26.1987 117.389 26.3316 116.828 26.3316C116.339 26.3316 115.907 26.223 115.531 26.006C115.158 25.7857 114.867 25.4666 114.656 25.0486C114.445 24.6275 114.34 24.1188 114.34 23.5227V18.77H116.099V23.2506C116.099 23.7236 116.229 24.0994 116.488 24.378C116.747 24.6566 117.087 24.7959 117.509 24.7959C117.768 24.7959 118.019 24.7328 118.262 24.6064C118.505 24.4801 118.704 24.2922 118.86 24.0427C119.018 23.79 119.098 23.4741 119.098 23.0951ZM122.666 26.2344V18.77H124.372V20.0141H124.449C124.585 19.5832 124.819 19.2511 125.149 19.0179C125.483 18.7814 125.863 18.6631 126.291 18.6631C126.388 18.6631 126.497 18.668 126.617 18.6777C126.74 18.6842 126.842 18.6955 126.923 18.7117V20.33C126.848 20.304 126.73 20.2814 126.568 20.2619C126.409 20.2392 126.255 20.2279 126.106 20.2279C125.786 20.2279 125.497 20.2976 125.241 20.4369C124.989 20.5729 124.789 20.7625 124.644 21.0054C124.498 21.2484 124.425 21.5287 124.425 21.8462V26.2344H122.666ZM131.089 26.3802C130.34 26.3802 129.694 26.2247 129.15 25.9136C128.609 25.5994 128.192 25.1555 127.901 24.5821C127.609 24.0054 127.463 23.3267 127.463 22.5459C127.463 21.7781 127.609 21.1043 127.901 20.5243C128.196 19.9412 128.607 19.4876 129.135 19.1636C129.663 18.8364 130.284 18.6728 130.996 18.6728C131.456 18.6728 131.891 18.7473 132.299 18.8964C132.71 19.0422 133.073 19.2689 133.387 19.5767C133.705 19.8845 133.954 20.2765 134.136 20.7527C134.317 21.2257 134.408 21.7895 134.408 22.4439V22.9833H128.29V21.7976H132.722C132.718 21.4606 132.645 21.1609 132.503 20.8985C132.36 20.6329 132.161 20.4239 131.905 20.2716C131.652 20.1194 131.358 20.0432 131.021 20.0432C130.661 20.0432 130.345 20.1307 130.073 20.3057C129.801 20.4774 129.589 20.7041 129.436 20.986C129.287 21.2646 129.211 21.5708 129.208 21.9045V22.9396C129.208 23.3737 129.287 23.7463 129.446 24.0573C129.605 24.365 129.827 24.6015 130.112 24.7668C130.397 24.9288 130.731 25.0098 131.113 25.0098C131.369 25.0098 131.601 24.9741 131.808 24.9028C132.015 24.8283 132.195 24.7198 132.347 24.5772C132.5 24.4347 132.615 24.2581 132.692 24.0476L134.335 24.2322C134.231 24.6663 134.034 25.0454 133.742 25.3694C133.454 25.6901 133.084 25.9396 132.634 26.1177C132.184 26.2927 131.669 26.3802 131.089 26.3802ZM141.796 20.743L140.192 20.918C140.147 20.756 140.067 20.6037 139.954 20.4612C139.844 20.3186 139.695 20.2036 139.507 20.1161C139.319 20.0287 139.089 19.9849 138.817 19.9849C138.451 19.9849 138.143 20.0643 137.893 20.223C137.647 20.3818 137.526 20.5875 137.529 20.8402C137.526 21.0573 137.605 21.2338 137.767 21.3699C137.932 21.506 138.204 21.6178 138.583 21.7052L139.857 21.9774C140.563 22.1296 141.088 22.371 141.431 22.7014C141.778 23.0319 141.953 23.4644 141.956 23.999C141.953 24.4687 141.815 24.8834 141.543 25.243C141.274 25.5994 140.9 25.878 140.42 26.0789C139.941 26.2797 139.39 26.3802 138.768 26.3802C137.855 26.3802 137.119 26.189 136.562 25.8067C136.005 25.4212 135.673 24.885 135.566 24.1982L137.281 24.033C137.359 24.3699 137.524 24.6242 137.777 24.7959C138.029 24.9676 138.358 25.0535 138.763 25.0535C139.181 25.0535 139.516 24.9676 139.769 24.7959C140.025 24.6242 140.153 24.412 140.153 24.1593C140.153 23.9455 140.07 23.7689 139.905 23.6296C139.743 23.4903 139.491 23.3834 139.147 23.3089L137.874 23.0416C137.158 22.8926 136.628 22.6415 136.285 22.2884C135.941 21.932 135.771 21.4817 135.775 20.9374C135.771 20.4774 135.896 20.0789 136.149 19.7419C136.405 19.4018 136.759 19.1394 137.213 18.9547C137.67 18.7668 138.196 18.6728 138.792 18.6728C139.667 18.6728 140.356 18.8591 140.858 19.2317C141.363 19.6043 141.676 20.108 141.796 20.743Z" fill="white"/>
</svg>
