<svg width="753" height="753" viewBox="0 0 753 753" fill="none" xmlns="http://www.w3.org/2000/svg">
<mask id="mask0_3033_11355" style="mask-type:alpha" maskUnits="userSpaceOnUse" x="0" y="0" width="753" height="753">
<rect width="753" height="753" rx="182.507" fill="#C4C4C4"/>
</mask>
<g mask="url(#mask0_3033_11355)">
<rect width="753" height="753" fill="#FF7557"/>
</g>
<g clip-path="url(#clip0_3033_11355)">
<path d="M332.74 392.758L355.231 240.391C356.168 234.047 353.504 227.704 348.125 224.214C339.236 218.448 325.085 210.003 313.493 206.459C301.158 202.687 283.65 201.995 272.296 202.005C265.41 202.011 259.421 206.463 257.6 213.103C254.09 225.907 249.6 247.493 253.619 263.547C258.029 281.158 260.244 288.997 262.584 307C265.095 326.323 254.258 360.548 263.286 381.456C270.547 398.274 304.789 401.573 321.758 402.162C327.307 402.355 331.929 398.25 332.74 392.758Z" fill="#FFBCAD"/>
<path d="M339.684 420.545C345.115 383.465 367.159 231.59 374.986 177.956C375.848 172.05 381.417 168.046 387.324 168.909L442.935 177.032C448.84 177.894 453.016 183.431 452.158 189.336L436.571 296.704C435.708 302.647 439.959 308.203 445.909 309.017L507.572 317.453C513.49 318.262 517.734 323.785 516.92 329.703L511.704 367.659C510.892 373.572 505.376 377.751 499.462 376.941L438.688 368.618C432.162 367.725 425.474 372.833 424.532 379.351C419.081 417.064 425.592 372.109 417.894 424.831C417.79 425.548 417.748 426.332 417.793 427.055C418.321 435.406 419.368 440.25 422.209 448.15C425.1 456.75 429.941 463.759 432.398 467.444C434.349 470.696 441.871 478.813 445.839 482.692C452.271 488.979 466.434 498.951 479.225 504.227C488.497 508.051 497.921 510.811 507.745 511.766C513.906 512.364 519.115 517.302 519.115 523.491V579.403C519.115 585.31 514.37 590.263 508.469 590.002C502.868 589.754 497.361 589.23 491.51 588.414C482.188 587.113 467.012 583.138 457.618 579.598C448.224 576.057 438.957 571.842 431.892 567.963C418.598 560.664 408.515 553.468 396.845 543.827C389.92 538.107 384.849 531.542 378.201 524.822C370.468 516.078 365.459 508.642 359.051 497.289C353.056 486.67 348.5 475.755 344.526 461.519C341.997 453.208 339.106 434.275 339.684 420.545Z" fill="white" stroke="black" stroke-width="0.0722637" stroke-linecap="round"/>
<path d="M264.164 508.345C257.155 510.441 251.807 511.376 245.592 511.742C239.771 512.084 234.536 516.438 234.536 522.269L234.536 548.921C234.536 548.921 234.536 548.921 234.536 576.429C234.536 582.167 239.019 587.082 244.757 587.044C250.166 587.009 255.866 586.615 263.225 585.595C274.281 583.716 283.459 581.91 300.079 575.406C316.173 569.108 325.516 563.266 337.945 554.883C346.881 548.857 353.257 543.743 360.265 537.369C364.536 533.484 364.917 526.798 361.441 522.188C361.118 521.76 360.779 521.315 360.419 520.847C354.855 513.042 351.097 506.394 348.135 500.758C344.449 493.965 339.174 480.741 337.367 474.092C336.063 469.513 335.166 466.028 334.527 463.323C333.866 460.521 330.128 459.7 328.334 461.952C325.516 465.491 325.227 465.854 321.758 469.901C315.471 476.694 308.968 483.27 300.874 489.051C295.671 493.314 288.083 498.012 280.568 501.697C277.172 503.648 270.234 506.394 264.164 508.345Z" fill="#FFBCAD" stroke="white" stroke-width="0.0144527" stroke-linecap="round"/>
</g>
<defs>
<clipPath id="clip0_3033_11355">
<rect width="284.467" height="426.7" fill="white" transform="translate(234.267 167.333)"/>
</clipPath>
</defs>
</svg>
