<svg width="2166" height="453" viewBox="0 0 2166 453" fill="none" xmlns="http://www.w3.org/2000/svg">
<mask id="mask0_1072_1122" style="mask-type:alpha" maskUnits="userSpaceOnUse" x="0" y="-1" width="453" height="454">
<rect y="-0.00390625" width="452.972" height="452.972" rx="109.788" fill="#C4C4C4"/>
</mask>
<g mask="url(#mask0_1072_1122)">
<rect width="452.972" height="452.972" fill="#FF7557"/>
<path d="M252.616 127.074C252.616 138.767 252.616 160.413 252.616 177.852C252.616 211.589 250.433 207.664 204.851 207.664C174.386 207.664 193.786 207.664 179.005 207.664C137.576 207.664 132.949 234.854 132.949 255.339C132.948 266.13 132.175 279.703 133.332 287.814C135.001 299.507 144.5 309.043 156.133 316.21C192.253 338.464 198.429 301.309 217.544 292.196M227.04 292.196C223.354 292.196 220.82 292.196 217.544 292.196M227.04 292.196H217.544M227.04 292.196C230.596 292.196 232.941 292.196 236.708 292.196C255.604 301.169 264.065 337.567 294.941 319.703C304.498 314.173 320.102 308.237 320.102 285.632V252.545" stroke="white" stroke-width="39.3119" stroke-linecap="square"/>
<circle cx="319.981" cy="189.215" r="19.656" fill="white"/>
</g>
<g opacity="0.9">
<path d="M575.551 337.223C575.551 288.13 569.813 132.927 574.273 132.928M575.551 337.223C573.256 337.223 574.273 132.928 574.273 132.928M575.551 337.223C646.028 338.767 699.969 342.326 703.412 233.113C696.993 120.628 624.902 132.927 574.273 132.928" stroke="black" stroke-width="38.9841" stroke-linecap="square"/>
<path d="M749.16 145.714C749.16 156.479 757.887 165.206 768.652 165.206C779.418 165.206 788.144 156.479 788.144 145.714L749.16 145.714ZM788.144 144.717C788.144 133.952 779.418 125.225 768.652 125.225C757.887 125.225 749.16 133.952 749.16 144.717L788.144 144.717ZM749.254 337.807L749.268 357.299L788.252 357.271L788.238 337.779L749.254 337.807ZM788.144 207.291L788.13 187.799L749.146 187.827L749.16 207.319L788.144 207.291ZM788.144 145.714L788.144 144.717L749.16 144.717L749.16 145.714L788.144 145.714ZM788.238 337.779L788.144 207.291L749.16 207.319L749.254 337.807L788.238 337.779Z" fill="black"/>
<path d="M841.113 205.459L901.017 335.643C902.688 339.273 907.877 339.184 909.422 335.498L963.916 205.459" stroke="black" stroke-width="38.9841" stroke-linecap="square"/>
<path d="M1045.04 261.763C1095.82 261.763 1107.1 261.762 1146.7 261.762C1149.33 261.762 1151.44 259.486 1151.2 256.869C1142.42 161.437 1025.53 171.116 1025.53 261.764C1025.52 330.406 1096.68 353.012 1141.44 326.615" stroke="black" stroke-width="38.9841" stroke-linecap="square"/>
<path d="M1216.92 337.337L1216.92 194.573M1224.82 250.901C1242.46 214.278 1284.76 194.433 1292.67 194.573" stroke="black" stroke-width="38.9841" stroke-linecap="square"/>
<path d="M1415.53 190.745C1384.98 189.834 1354.9 190.745 1354.9 226.493C1354.9 257.981 1380.28 262.281 1392.5 262.281C1401.9 262.281 1425.58 272.524 1425.58 300.924C1425.58 331.299 1402.37 338.348 1357.72 337.408" stroke="black" stroke-width="38.9841" stroke-linecap="square"/>
<path d="M1628.2 336.221C1628.2 287.129 1628.34 190.843 1628.34 118.967M1628.2 336.221C1628.21 322.41 1628.29 205.711 1628.29 205.711C1593.58 190.202 1549.72 191.142 1534.47 216.521C1518.67 237.2 1523.57 273.389 1524.37 305.05C1538.56 352.812 1608 336.743 1628.2 336.221Z" stroke="black" stroke-width="38.9841" stroke-linecap="square"/>
<path d="M1713.24 261.763C1764.02 261.763 1775.3 261.762 1814.9 261.762C1817.53 261.762 1819.64 259.486 1819.4 256.869C1810.62 161.437 1693.73 171.116 1693.72 261.764C1693.72 330.406 1764.88 353.012 1809.64 326.615" stroke="black" stroke-width="38.9841" stroke-linecap="square"/>
<path d="M1942.15 190.745C1911.6 189.834 1881.52 190.745 1881.52 226.493C1881.52 257.981 1906.9 262.281 1919.12 262.281C1928.52 262.281 1952.19 272.524 1952.19 300.924C1952.19 331.299 1928.99 338.348 1884.34 337.408" stroke="black" stroke-width="38.9841" stroke-linecap="square"/>
<path d="M2029.94 338.748L2027.65 115.297M2038.77 270.64C2062.87 247.642 2105.94 206.768 2130.85 181.863M2064.37 255.315C2082.74 270.235 2116.02 310.404 2137.47 337.358" stroke="black" stroke-width="38.9841" stroke-linecap="square"/>
</g>
</svg>
