<svg width="41" height="39" viewBox="0 0 41 39" fill="none" xmlns="http://www.w3.org/2000/svg">
<path d="M33.1875 4.21974L21.4344 24.3707C20.7544 25.5348 21.1576 27.0245 22.3348 27.6973L23.4597 28.3403C24.6352 29.0121 26.1413 28.6126 26.82 27.4489L38.574 7.29621L33.1875 4.21974Z" fill="#8BB7C8"/>
<path d="M21.8222 28.5761C21.2676 28.2591 20.845 27.8034 20.5667 27.2818L20.5473 27.4986C20.5082 27.9424 20.4418 28.6722 20.4014 29.1164L20.1349 32.0754C20.1331 32.0904 20.1354 32.1044 20.1339 32.115L21.0163 30.6039C21.1063 30.4516 21.3043 30.3991 21.4592 30.4865C21.6148 30.5765 21.6678 30.7726 21.5779 30.9249L20.6975 32.4384C20.7098 32.4293 20.7201 32.4236 20.7324 32.4145L23.1879 30.708C23.5563 30.4512 24.1605 30.0311 24.5303 29.774L24.7102 29.6489C24.113 29.6701 23.5031 29.5356 22.9492 29.2214L21.8222 28.5761Z" fill="#8BB7C8"/>
<path d="M39.0645 1.58209L37.9397 0.939133C36.7621 0.264914 35.2573 0.664076 34.5794 1.8305L33.7084 3.32396L39.0939 6.40216L39.9649 4.90869C40.6432 3.74363 40.24 2.25395 39.0645 1.58209Z" fill="#8BB7C8"/>
<path d="M38.899 8.36007L33.6026 17.4417C33.3902 17.806 33.5162 18.2717 33.8842 18.4821C34.2522 18.6924 34.7226 18.5676 34.9351 18.2033L40.23 9.12201C40.4425 8.75771 40.3165 8.29201 39.9485 8.08168C39.5805 7.87135 39.1101 7.99613 38.899 8.36007Z" fill="#8BB7C8"/>
<path d="M22.5726 34.0678H16.9792C14.9585 34.0678 13.7667 34.4837 12.9764 34.7585C12.0579 35.0814 11.9824 35.1053 11.1223 34.3314C10.8589 34.0918 10.6111 33.7703 10.3491 33.4278C9.70546 32.5904 8.89948 31.5387 7.50967 31.6219C5.52321 31.7319 5.34806 33.7774 5.24411 34.9996C5.22702 35.2054 5.20709 35.4352 5.18003 35.6608C5.04475 35.2421 4.91374 34.7853 4.81407 34.4357C4.65173 33.8634 4.4837 33.2741 4.30286 32.7779C3.92692 31.753 3.27047 31.6135 2.87745 31.6219C2.4887 31.6304 1.45488 31.6515 0.381199 35.0222C0.21032 35.5565 0.510781 36.126 1.05047 36.2966C1.59301 36.4643 2.1683 36.1669 2.33918 35.6326C2.45025 35.283 2.58695 34.9193 2.72508 34.5922C2.7621 34.7219 2.80055 34.8544 2.83757 34.9855C3.36587 36.8435 3.7831 38.3082 4.91659 38.5761C5.00346 38.5958 5.11168 38.6113 5.23699 38.6113C5.56166 38.6113 5.99455 38.4986 6.41463 38.0418C7.10811 37.2904 7.20494 36.164 7.28895 35.173C7.32883 34.6993 7.4043 33.8154 7.62217 33.6505C7.91836 33.6392 8.23875 34.0382 8.71436 34.6585C9.00628 35.0391 9.33807 35.4705 9.73963 35.8313C11.3886 37.3186 12.3199 37.1424 13.6584 36.6744C14.3932 36.4178 15.3088 36.0992 16.9778 36.0992H22.5712C23.1379 36.0992 23.5979 35.6424 23.5979 35.0828C23.5993 34.5231 23.1408 34.0678 22.5726 34.0678Z" fill="#8BB7C8"/>
</svg>
