<svg width="40" height="39" viewBox="0 0 40 39" fill="none" xmlns="http://www.w3.org/2000/svg">
<path d="M8.7063 6.05785H8.8279V5.93625V2.40305C8.8279 1.83595 9.03571 1.41992 9.33995 1.14467C9.64626 0.867547 10.0577 0.726585 10.4729 0.726585C10.8881 0.726585 11.2995 0.867547 11.6059 1.14467C11.9101 1.41992 12.1179 1.83595 12.1179 2.40305V5.93625V6.05785H12.2395H27.6341H27.7557V5.93625V2.40305C27.7557 1.83595 27.9635 1.41992 28.2677 1.14467C28.574 0.867547 28.9855 0.726585 29.4007 0.726585C29.8158 0.726585 30.2273 0.867547 30.5336 1.14467C30.8379 1.41992 31.0457 1.83595 31.0457 2.40305V5.93625V6.05785H31.1673H33.5647C37.0307 6.05785 39.8784 8.90551 39.8784 12.3715V32.1821C39.8784 35.6482 37.0307 38.4958 33.5647 38.4958H6.4353C2.96926 38.4958 0.121604 35.6482 0.121604 32.1821V12.3715C0.121604 8.9056 2.96911 6.058 6.43503 6.05785C6.43512 6.05785 6.43521 6.05785 6.4353 6.05785H8.7063ZM36.3359 17.4188V17.2972H36.2143H3.65901H3.53741V17.4188V32.1826C3.53741 33.7639 4.85378 35.0802 6.43503 35.0802H33.5644C35.153 35.0802 36.3359 33.7563 36.3359 32.1826V17.4188Z" fill="black"/>
<path d="M8.7063 6.05785H8.8279V5.93625V2.40305C8.8279 1.83595 9.03571 1.41992 9.33995 1.14467C9.64626 0.867547 10.0577 0.726585 10.4729 0.726585C10.8881 0.726585 11.2995 0.867547 11.6059 1.14467C11.9101 1.41992 12.1179 1.83595 12.1179 2.40305V5.93625V6.05785H12.2395H27.6341H27.7557V5.93625V2.40305C27.7557 1.83595 27.9635 1.41992 28.2677 1.14467C28.574 0.867547 28.9855 0.726585 29.4007 0.726585C29.8158 0.726585 30.2273 0.867547 30.5336 1.14467C30.8379 1.41992 31.0457 1.83595 31.0457 2.40305V5.93625V6.05785H31.1673H33.5647C37.0307 6.05785 39.8784 8.90551 39.8784 12.3715V32.1821C39.8784 35.6482 37.0307 38.4958 33.5647 38.4958H6.4353C2.96926 38.4958 0.121604 35.6482 0.121604 32.1821V12.3715C0.121604 8.9056 2.96911 6.058 6.43503 6.05785C6.43512 6.05785 6.43521 6.05785 6.4353 6.05785H8.7063ZM36.3359 17.4188V17.2972H36.2143H3.65901H3.53741V17.4188V32.1826C3.53741 33.7639 4.85378 35.0802 6.43503 35.0802H33.5644C35.153 35.0802 36.3359 33.7563 36.3359 32.1826V17.4188Z" fill="#8BB7C8"/>
<path d="M8.7063 6.05785H8.8279V5.93625V2.40305C8.8279 1.83595 9.03571 1.41992 9.33995 1.14467C9.64626 0.867547 10.0577 0.726585 10.4729 0.726585C10.8881 0.726585 11.2995 0.867547 11.6059 1.14467C11.9101 1.41992 12.1179 1.83595 12.1179 2.40305V5.93625V6.05785H12.2395H27.6341H27.7557V5.93625V2.40305C27.7557 1.83595 27.9635 1.41992 28.2677 1.14467C28.574 0.867547 28.9855 0.726585 29.4007 0.726585C29.8158 0.726585 30.2273 0.867547 30.5336 1.14467C30.8379 1.41992 31.0457 1.83595 31.0457 2.40305V5.93625V6.05785H31.1673H33.5647C37.0307 6.05785 39.8784 8.90551 39.8784 12.3715V32.1821C39.8784 35.6482 37.0307 38.4958 33.5647 38.4958H6.4353C2.96926 38.4958 0.121604 35.6482 0.121604 32.1821V12.3715C0.121604 8.9056 2.96911 6.058 6.43503 6.05785C6.43512 6.05785 6.43521 6.05785 6.4353 6.05785H8.7063ZM36.3359 17.4188V17.2972H36.2143H3.65901H3.53741V17.4188V32.1826C3.53741 33.7639 4.85378 35.0802 6.43503 35.0802H33.5644C35.153 35.0802 36.3359 33.7563 36.3359 32.1826V17.4188Z" stroke="black" stroke-width="0.243209"/>
<path d="M8.7063 6.05785H8.8279V5.93625V2.40305C8.8279 1.83595 9.03571 1.41992 9.33995 1.14467C9.64626 0.867547 10.0577 0.726585 10.4729 0.726585C10.8881 0.726585 11.2995 0.867547 11.6059 1.14467C11.9101 1.41992 12.1179 1.83595 12.1179 2.40305V5.93625V6.05785H12.2395H27.6341H27.7557V5.93625V2.40305C27.7557 1.83595 27.9635 1.41992 28.2677 1.14467C28.574 0.867547 28.9855 0.726585 29.4007 0.726585C29.8158 0.726585 30.2273 0.867547 30.5336 1.14467C30.8379 1.41992 31.0457 1.83595 31.0457 2.40305V5.93625V6.05785H31.1673H33.5647C37.0307 6.05785 39.8784 8.90551 39.8784 12.3715V32.1821C39.8784 35.6482 37.0307 38.4958 33.5647 38.4958H6.4353C2.96926 38.4958 0.121604 35.6482 0.121604 32.1821V12.3715C0.121604 8.9056 2.96911 6.058 6.43503 6.05785C6.43512 6.05785 6.43521 6.05785 6.4353 6.05785H8.7063ZM36.3359 17.4188V17.2972H36.2143H3.65901H3.53741V17.4188V32.1826C3.53741 33.7639 4.85378 35.0802 6.43503 35.0802H33.5644C35.153 35.0802 36.3359 33.7563 36.3359 32.1826V17.4188Z" stroke="#8BB7C8" stroke-width="0.243209"/>
</svg>
