<svg width="41" height="39" viewBox="0 0 41 39" fill="none" xmlns="http://www.w3.org/2000/svg">
<path d="M39.1281 10.9492H32.9743C32.1246 10.9492 31.4358 11.5455 31.4358 12.2811V37.2855C31.4358 38.0211 32.1246 38.6174 32.9743 38.6174H39.1281C39.9778 38.6174 40.6666 38.0211 40.6666 37.2855V12.2811C40.6666 11.5455 39.9778 10.9492 39.1281 10.9492Z" fill="#8BB7C8"/>
<path d="M28.8718 20.5566H22.7179C21.8682 20.5566 21.1794 21.153 21.1794 21.8886V37.2854C21.1794 38.021 21.8682 38.6173 22.7179 38.6173H28.8718C29.7214 38.6173 30.4102 38.021 30.4102 37.2854V21.8886C30.4102 21.153 29.7214 20.5566 28.8718 20.5566Z" fill="#8BB7C8"/>
<path d="M18.6152 16.7207H12.4613C11.6116 16.7207 10.9229 17.317 10.9229 18.0526V37.2854C10.9229 38.021 11.6116 38.6173 12.4613 38.6173H18.6152C19.4648 38.6173 20.1536 38.021 20.1536 37.2854V18.0526C20.1536 17.317 19.4648 16.7207 18.6152 16.7207Z" fill="#8BB7C8"/>
<path d="M8.35881 24.4102H2.20497C1.3553 24.4102 0.666504 25.0065 0.666504 25.7421V37.2853C0.666504 38.0209 1.3553 38.6172 2.20497 38.6172H8.35881C9.20848 38.6172 9.89727 38.0209 9.89727 37.2853V25.7421C9.89727 25.0065 9.20848 24.4102 8.35881 24.4102Z" fill="#8BB7C8"/>
<path d="M31.4563 6.8822C31.3912 7.23071 31.4886 7.58734 31.7271 7.87372C31.9656 8.16009 32.3256 8.35279 32.7281 8.40946H32.9743C33.3395 8.40931 33.6928 8.29668 33.9709 8.0917C34.249 7.88673 34.4338 7.60278 34.4922 7.29065L35.5179 1.96301C35.5588 1.78718 35.5588 1.60607 35.5179 1.43024C35.5179 1.43024 35.5179 1.43024 35.5179 1.32369C35.4751 1.18998 35.4057 1.06376 35.3127 0.950757C35.3127 0.950757 35.2102 0.950757 35.1692 0.844204C35.074 0.75802 34.9631 0.686017 34.8409 0.631098H34.6153C34.4863 0.612551 34.3546 0.612551 34.2256 0.631098H26.8204C26.4124 0.631098 26.0211 0.771424 25.7326 1.02121C25.4441 1.27099 25.282 1.60976 25.282 1.96301C25.282 2.31625 25.4441 2.65503 25.7326 2.90481C26.0211 3.15459 26.4124 3.29492 26.8204 3.29492H29.4666L20.6666 9.01326L15.3743 5.99426C15.0772 5.8242 14.7219 5.74731 14.3673 5.77639C14.0128 5.80547 13.6804 5.93876 13.4256 6.15409L5.22044 13.2576C4.93233 13.5073 4.77051 13.8459 4.77051 14.1988C4.77051 14.5518 4.93233 14.8903 5.22044 15.14C5.5089 15.3895 5.89992 15.5296 6.30762 15.5296C6.71531 15.5296 7.10633 15.3895 7.3948 15.14L14.7179 8.87118L19.8051 11.8191C20.0676 11.9838 20.3835 12.0724 20.7076 12.0724C21.0318 12.0724 21.3477 11.9838 21.6102 11.8191L31.8666 5.01752L31.4563 6.8822Z" fill="#8BB7C8"/>
</svg>
