<svg width="41" height="39" viewBox="0 0 41 39" fill="none" xmlns="http://www.w3.org/2000/svg">
<path d="M9.55586 4.63631C10.2344 4.63631 10.8278 4.70946 11.4214 4.78235V2.22478C11.4214 1.34793 10.5733 0.617188 9.55586 0.617188C8.53839 0.617188 7.6903 1.348 7.6903 2.22478V4.78235C8.11417 4.7092 8.62328 4.63631 9.04708 4.63631H9.55586Z" fill="#8BB7C8"/>
<path d="M0.333252 18.2234H18.7353V27.4308H0.333252V18.2234Z" fill="#8BB7C8"/>
<path d="M9.06848 6.24391C4.14965 6.46312 0.333252 10.117 0.333252 14.3555V16.6207H18.7353V14.136C18.7356 9.67867 14.4112 6.02405 9.06848 6.24391Z" fill="#8BB7C8"/>
<path d="M0.333252 36.2788C0.333252 37.594 1.52058 38.6172 3.0469 38.6172H16.0218C17.5481 38.6172 18.7354 37.594 18.7354 36.2788V28.9713H0.33341L0.333252 36.2788Z" fill="#8BB7C8"/>
<path d="M31.1537 4.63631C31.8323 4.63631 32.4256 4.70946 33.0193 4.78235V2.22478C33.0193 1.34793 32.1712 0.617188 31.1537 0.617188C30.1362 0.617188 29.2881 1.348 29.2881 2.22478V4.78235C29.712 4.7092 30.2211 4.63631 30.6449 4.63631H31.1537Z" fill="#8BB7C8"/>
<path d="M21.9311 18.2234H40.3331V27.4308H21.9311V18.2234Z" fill="#8BB7C8"/>
<path d="M30.6663 6.24391C25.7475 6.46312 21.9311 10.117 21.9311 14.3555V16.6207H40.3331V14.136C40.3334 9.67867 36.009 6.02405 30.6663 6.24391Z" fill="#8BB7C8"/>
<path d="M21.9311 36.2788C21.9311 37.594 23.1184 38.6172 24.6447 38.6172H37.6196C39.1459 38.6172 40.3333 37.594 40.3333 36.2788V28.9713H21.9313L21.9311 36.2788Z" fill="#8BB7C8"/>
</svg>
