<svg width="41" height="39" viewBox="0 0 41 39" fill="none" xmlns="http://www.w3.org/2000/svg">
<path d="M4.21299 4.45298C7.00235 4.98167 10.9142 5.31561 15.232 5.31507C20.2109 5.31615 24.6559 4.87 27.4529 4.19726C28.3825 3.975 29.1295 3.72522 29.6235 3.48299C29.6678 3.46141 29.706 3.44037 29.7462 3.41933C29.7121 3.30118 29.6643 3.19275 29.6083 3.09996C29.3986 2.76062 29.1295 2.56803 28.8257 2.38892C28.2925 2.08627 27.6005 1.85429 26.7309 1.64012C25.4303 1.3229 23.7441 1.06827 21.7846 0.8897C19.8257 0.711672 17.5975 0.611328 15.2325 0.611328C11.3864 0.611868 7.90755 0.875134 5.35173 1.3105C4.07103 1.52953 3.02642 1.78686 2.24385 2.1003C1.85155 2.26052 1.52285 2.42884 1.23944 2.6619C1.099 2.78004 0.9662 2.91707 0.856294 3.09996C0.800833 3.19275 0.752495 3.30172 0.718404 3.41987C0.802868 3.46465 0.893439 3.50996 0.995712 3.55528C1.70348 3.87357 2.81984 4.19025 4.21299 4.45298Z" fill="#8BB7C8"/>
<path d="M4.21299 14.4571C7.00235 14.9858 10.9142 15.3198 15.232 15.3192C17.6739 15.3198 19.9854 15.2124 22.0385 15.0241C23.4984 12.7707 25.9443 11.2882 28.7117 11.2882C29.0806 11.2882 29.4414 11.3233 29.7971 11.3745V5.14999C28.9402 5.49795 27.8472 5.79359 26.5197 6.04606C23.6011 6.59741 19.6257 6.93297 15.232 6.93351C12.5292 6.93351 9.98354 6.80619 7.74574 6.58015C5.50794 6.35357 3.58053 6.03042 2.0968 5.62851C1.55999 5.48177 1.0873 5.32586 0.666504 5.15538V13.3949C0.763689 13.4488 0.869524 13.5039 0.994694 13.5589C1.70348 13.8777 2.81984 14.1949 4.21299 14.4571Z" fill="#8BB7C8"/>
<path d="M4.23843 24.6657C7.01762 25.298 10.9223 25.6983 15.232 25.6978C17.8413 25.6978 20.2963 25.551 22.4481 25.2948C21.286 23.7961 20.6194 21.9014 20.6194 19.8681C20.6194 18.7552 20.8265 17.6946 21.1919 16.7176C19.3474 16.8589 17.3401 16.9377 15.232 16.9382C12.5292 16.9382 9.98354 16.8109 7.74574 16.5848C5.50794 16.3583 3.58053 16.0351 2.0968 15.6332C1.55999 15.4865 1.0873 15.3305 0.666504 15.1601V23.3667C0.773865 23.4411 0.896491 23.5183 1.04201 23.5959C1.74317 23.9736 2.85138 24.3518 4.23843 24.6657Z" fill="#8BB7C8"/>
<path d="M20.5304 27.1069C18.8681 27.2401 17.0913 27.3157 15.232 27.3162C12.5251 27.3162 9.97438 27.163 7.732 26.8911C5.4881 26.6187 3.55508 26.2302 2.0622 25.7447C1.5427 25.5742 1.07916 25.394 0.667013 25.1966V32.7795C0.666504 33.0164 0.721966 33.2478 0.812027 33.4469C0.9835 33.8229 1.2491 34.0948 1.55542 34.3316C2.09629 34.74 2.80356 35.0561 3.68127 35.3448C4.99607 35.772 6.69146 36.1124 8.65908 36.3509C10.6252 36.5894 12.8599 36.7231 15.232 36.7231C15.2717 36.7231 15.3104 36.7221 15.3501 36.7221C15.8207 32.8448 17.7176 29.4078 20.5304 27.1069Z" fill="#8BB7C8"/>
<path d="M31.5662 26.1304C33.7613 25.0034 35.2786 22.6265 35.2786 19.8681C35.2786 16.0232 32.3386 12.9067 28.7122 12.9067C25.0859 12.9067 22.1464 16.0232 22.1464 19.8681C22.1464 22.6265 23.6637 25.004 25.8583 26.1304C20.6357 27.5066 16.759 32.5708 16.759 38.6113H40.6665C40.6665 32.5708 36.7898 27.5066 31.5662 26.1304Z" fill="#8BB7C8"/>
</svg>
