<svg width="40" height="39" viewBox="0 0 40 39" fill="none" xmlns="http://www.w3.org/2000/svg">
<path d="M8.61206 25.9795C11.8341 25.9795 14.6839 24.0591 16.1713 21.1454C17.6582 24.1254 20.5084 25.9795 23.7305 25.9795C28.4392 25.9795 32.2189 21.8735 32.2189 16.8408C32.2189 11.8078 28.3773 7.70214 23.6685 7.70214L8.61237 7.70182C3.84164 7.70182 0 11.8078 0 16.8405C0 21.8731 3.84164 25.9792 8.61237 25.9792L8.61206 25.9795Z" fill="#8BB7C8"/>
<path d="M38.2032 26.6185V5.18685H38.389C39.2563 5.18685 40 4.39206 40 3.46499V2.33905C40 1.41202 39.2564 0.617188 38.389 0.617188H33.8661C32.9987 0.617188 32.2551 1.41199 32.2551 2.33905V3.46499C32.2551 4.39202 32.9987 5.18685 33.8661 5.18685H34.4857V26.6185C34.4857 29.5322 32.2551 31.9163 29.5289 31.9163H24.5722C22.0317 31.9163 20.1795 32.8885 19.8697 30.3059H16.0901C16.3999 35.0741 19.9873 35.8897 24.5103 35.8897H29.467C34.3617 35.8897 38.2032 31.7175 38.2032 26.6185Z" fill="#8BB7C8"/>
<path d="M20.4139 30.2685H11.7403C10.2631 30.2685 9.06137 31.5535 9.06137 33.1328V35.7532C9.06137 37.3328 10.2631 38.6172 11.7403 38.6172H20.4131C21.891 38.6172 23.093 37.3328 23.093 35.7532V33.1328C23.093 31.5536 21.891 30.2685 20.4137 30.2685H20.4139Z" fill="#8BB7C8"/>
</svg>
